Mina-Bold.ufo
<glyph name="exclam" format="1">
  <advance width="273"/>
  <unicode hex="0021"/>
  <outline>
    <contour>
      <point x="66.5996" y="23" type="curve" smooth="yes"/>
      <point x="66.5996" y="113" type="line" smooth="yes"/>
      <point x="66.5996" y="128"/>
      <point x="74.5996" y="138"/>
      <point x="90.5996" y="138" type="curve" smooth="yes"/>
      <point x="178.6" y="138" type="line" smooth="yes"/>
      <point x="193.6" y="138"/>
      <point x="201.6" y="127"/>
      <point x="201.6" y="113" type="curve" smooth="yes"/>
      <point x="201.6" y="23" type="line" smooth="yes"/>
      <point x="201.6" y="8"/>
      <point x="192.6" y="0"/>
      <point x="178.6" y="0" type="curve" smooth="yes"/>
      <point x="90.5996" y="0" type="line" smooth="yes"/>
      <point x="76.5996" y="0"/>
      <point x="66.5996" y="9"/>
    </contour>
    <contour>
      <point x="64.8994" y="731" type="line"/>
      <point x="206.149" y="731" type="line"/>
      <point x="191.449" y="196" type="line"/>
      <point x="77.3994" y="196" type="line"/>
    </contour>
  </outline>
</glyph>
<glyph name="quotedbl" format="1">
  <advance width="444"/>
  <unicode hex="0022"/>
  <outline>
    <contour>
      <point x="64.6504" y="665" type="line"/>
      <point x="64.6504" y="732" type="line"/>
      <point x="199.601" y="732" type="line"/>
      <point x="199.601" y="665" type="line"/>
      <point x="189.601" y="531" type="line"/>
      <point x="76.2002" y="531" type="line"/>
    </contour>
    <contour>
      <point x="245.301" y="665" type="line"/>
      <point x="245.301" y="732" type="line"/>
      <point x="380.251" y="732" type="line"/>
      <point x="380.251" y="665" type="line"/>
      <point x="370.251" y="531" type="line"/>
      <point x="255.751" y="531" type="line"/>
    </contour>
  </outline>
</glyph>
<glyph name="numbersign" format="1">
  <advance width="721"/>
  <unicode hex="0023"/>
  <outline>
    <contour>
      <point x="15.0498" y="210" type="line"/>
      <point x="29.6514" y="306" type="line"/>
      <point x="182.052" y="306" type="line"/>
      <point x="202.552" y="427" type="line"/>
      <point x="49.0518" y="427" type="line"/>
      <point x="64.6514" y="523" type="line"/>
      <point x="220.451" y="523" type="line"/>
      <point x="257.451" y="732" type="line"/>
      <point x="353.451" y="732" type="line"/>
      <point x="316.451" y="523" type="line"/>
      <point x="439.551" y="523" type="line"/>
      <point x="475.551" y="732" type="line"/>
      <point x="571.551" y="732" type="line"/>
      <point x="535.551" y="523" type="line"/>
      <point x="707.051" y="523" type="line"/>
      <point x="692.551" y="427" type="line"/>
      <point x="520.501" y="427" type="line"/>
      <point x="500.001" y="305" type="line"/>
      <point x="672.051" y="305" type="line"/>
      <point x="658.551" y="209" type="line"/>
      <point x="479.9" y="209" type="line"/>
      <point x="442.9" y="0" type="line"/>
      <point x="346.9" y="0" type="line"/>
      <point x="383.9" y="209" type="line"/>
      <point x="260.25" y="210" type="line"/>
      <point x="223.25" y="0" type="line"/>
      <point x="127.25" y="0" type="line"/>
      <point x="164.25" y="210" type="line"/>
    </contour>
    <contour>
      <point x="278.052" y="306" type="line"/>
      <point x="404.002" y="305" type="line"/>
      <point x="424.502" y="427" type="line"/>
      <point x="298.552" y="427" type="line"/>
    </contour>
  </outline>
</glyph>
<glyph name="dollar" format="1">
  <advance width="570"/>
  <unicode hex="0024"/>
  <outline>
    <contour>
      <point x="238" y="824" type="line"/>
      <point x="323" y="824" type="line"/>
      <point x="323" y="737" type="line"/>
      <point x="385" y="733"/>
      <point x="444.667" y="723.667"/>
      <point x="502" y="709" type="curve"/>
      <point x="502" y="600" type="line"/>
      <point x="406.667" y="606"/>
      <point x="344.833" y="609.167"/>
      <point x="316.5" y="609.5" type="curve" smooth="yes"/>
      <point x="288.167" y="609.833"/>
      <point x="272.667" y="610"/>
      <point x="270" y="610" type="curve" smooth="yes"/>
      <point x="240" y="610"/>
      <point x="217.833" y="605.667"/>
      <point x="203.5" y="597" type="curve" smooth="yes"/>
      <point x="189.167" y="588.333"/>
      <point x="182" y="568.667"/>
      <point x="182" y="538" type="curve" smooth="yes"/>
      <point x="182" y="502" type="line" smooth="yes"/>
      <point x="182" y="476.667"/>
      <point x="188.5" y="458.667"/>
      <point x="201.5" y="448" type="curve" smooth="yes"/>
      <point x="214.5" y="437.333"/>
      <point x="234.667" y="432"/>
      <point x="262" y="432" type="curve" smooth="yes"/>
      <point x="355" y="432" type="line" smooth="yes"/>
      <point x="431.667" y="432"/>
      <point x="483.333" y="401.667"/>
      <point x="510" y="341" type="curve" smooth="yes"/>
      <point x="522.667" y="311"/>
      <point x="529" y="276.667"/>
      <point x="529" y="238" type="curve" smooth="yes"/>
      <point x="529" y="189" type="line" smooth="yes"/>
      <point x="529" y="111.667"/>
      <point x="507.333" y="58.3333"/>
      <point x="464" y="29" type="curve" smooth="yes"/>
      <point x="427.333" y="4.33333"/>
      <point x="382.333" y="-8"/>
      <point x="329" y="-8" type="curve" smooth="yes"/>
      <point x="326" y="-8"/>
      <point x="326" y="-8"/>
      <point x="323" y="-8" type="curve" smooth="yes"/>
      <point x="323" y="-90" type="line"/>
      <point x="238" y="-90" type="line"/>
      <point x="238" y="-6" type="line"/>
      <point x="176.667" y="-2.66667"/>
      <point x="119" y="6.66667"/>
      <point x="65" y="22" type="curve"/>
      <point x="65" y="130" type="line"/>
      <point x="171" y="124"/>
      <point x="248.667" y="121"/>
      <point x="298" y="121" type="curve" smooth="yes"/>
      <point x="358.667" y="121"/>
      <point x="389" y="142"/>
      <point x="389" y="184" type="curve" smooth="yes"/>
      <point x="389" y="223" type="line" smooth="yes"/>
      <point x="389" y="245.667"/>
      <point x="384.167" y="262.833"/>
      <point x="374.5" y="274.5" type="curve" smooth="yes"/>
      <point x="364.833" y="286.167"/>
      <point x="347.333" y="292"/>
      <point x="322" y="292" type="curve" smooth="yes"/>
      <point x="231" y="292" type="line" smooth="yes"/>
      <point x="198.333" y="292"/>
      <point x="170" y="296.833"/>
      <point x="146" y="306.5" type="curve" smooth="yes"/>
      <point x="122" y="316.167"/>
      <point x="103.5" y="328"/>
      <point x="90.5" y="342" type="curve" smooth="yes"/>
      <point x="77.5" y="356"/>
      <point x="67" y="372.333"/>
      <point x="59" y="391" type="curve" smooth="yes"/>
      <point x="47.6667" y="420.333"/>
      <point x="42" y="452"/>
      <point x="42" y="486" type="curve" smooth="yes"/>
      <point x="42" y="549" type="line" smooth="yes"/>
      <point x="42.6667" y="671"/>
      <point x="108" y="734"/>
      <point x="238" y="738" type="curve"/>
    </contour>
  </outline>
</glyph>
<glyph name="percent" format="1">
  <advance width="962"/>
  <unicode hex="0025"/>
  <outline>
    <contour>
      <point x="32.0996" y="479.5" type="curve" smooth="yes"/>
      <point x="32.0996" y="601.5" type="line" smooth="yes"/>
      <point x="32.0996" y="686.5"/>
      <point x="65.5996" y="732"/>
      <point x="166.6" y="732" type="curve" smooth="yes"/>
      <point x="267.6" y="732" type="line" smooth="yes"/>
      <point x="365.6" y="732"/>
      <point x="400.1" y="686.5"/>
      <point x="400.1" y="601.5" type="curve" smooth="yes"/>
      <point x="400.1" y="479.5" type="line" smooth="yes"/>
      <point x="400.1" y="394.5"/>
      <point x="366.6" y="349"/>
      <point x="265.6" y="349" type="curve" smooth="yes"/>
      <point x="164.6" y="349" type="line" smooth="yes"/>
      <point x="66.5996" y="349"/>
      <point x="32.0996" y="394.5"/>
    </contour>
    <contour>
      <point x="130.1" y="496" type="line" smooth="yes"/>
      <point x="130.1" y="461.85"/>
      <point x="139.05" y="447"/>
      <point x="178.35" y="447" type="curve" smooth="yes"/>
      <point x="251.85" y="447" type="line" smooth="yes"/>
      <point x="296.649" y="447"/>
      <point x="302.1" y="463.65"/>
      <point x="302.1" y="496" type="curve" smooth="yes"/>
      <point x="302.1" y="585" type="line" smooth="yes"/>
      <point x="302.1" y="625.2"/>
      <point x="288.75" y="634"/>
      <point x="253.85" y="634" type="curve" smooth="yes"/>
      <point x="180.35" y="634" type="line" smooth="yes"/>
      <point x="142.149" y="634"/>
      <point x="130.1" y="623.95"/>
      <point x="130.1" y="585" type="curve" smooth="yes"/>
    </contour>
    <contour>
      <point x="207.75" y="0" type="line"/>
      <point x="654.55" y="732" type="line"/>
      <point x="754.7" y="732" type="line"/>
      <point x="311.75" y="0" type="line"/>
    </contour>
    <contour>
      <point x="562.6" y="133.05" type="curve" smooth="yes"/>
      <point x="562.6" y="255.05" type="line" smooth="yes"/>
      <point x="562.6" y="340.05"/>
      <point x="595.55" y="385.55"/>
      <point x="696.55" y="385.55" type="curve" smooth="yes"/>
      <point x="798.1" y="385.55" type="line" smooth="yes"/>
      <point x="896.1" y="385.55"/>
      <point x="930.6" y="340.05"/>
      <point x="930.6" y="255.05" type="curve" smooth="yes"/>
      <point x="930.6" y="133.05" type="line" smooth="yes"/>
      <point x="930.6" y="48.0498"/>
      <point x="897.1" y="2.5498"/>
      <point x="796.1" y="2.5498" type="curve" smooth="yes"/>
      <point x="694.55" y="2.5498" type="line" smooth="yes"/>
      <point x="596.55" y="2.5498"/>
      <point x="562.6" y="48.0498"/>
    </contour>
    <contour>
      <point x="660.6" y="149.55" type="line" smooth="yes"/>
      <point x="660.6" y="115.399"/>
      <point x="669.551" y="100.55"/>
      <point x="708.851" y="100.55" type="curve" smooth="yes"/>
      <point x="781.801" y="100.55" type="line" smooth="yes"/>
      <point x="826.601" y="100.55"/>
      <point x="832.601" y="117.2"/>
      <point x="832.601" y="149.55" type="curve" smooth="yes"/>
      <point x="832.601" y="238.55" type="line" smooth="yes"/>
      <point x="832.601" y="278.75"/>
      <point x="818.7" y="287.55"/>
      <point x="783.8" y="287.55" type="curve" smooth="yes"/>
      <point x="710.85" y="287.55" type="line" smooth="yes"/>
      <point x="672.649" y="287.55"/>
      <point x="660.6" y="277.5"/>
      <point x="660.6" y="238.55" type="curve" smooth="yes"/>
    </contour>
  </outline>
</glyph>
<glyph name="ampersand" format="1">
  <advance width="679"/>
  <unicode hex="0026"/>
  <outline>
    <contour>
      <point x="320" y="608" type="line" smooth="yes"/>
      <point x="275.333" y="608"/>
      <point x="253" y="597.333"/>
      <point x="253" y="576" type="curve" smooth="yes"/>
      <point x="253" y="560.667"/>
      <point x="263.333" y="538.667"/>
      <point x="284" y="510" type="curve" smooth="yes"/>
      <point x="453" y="279" type="line"/>
      <point x="574" y="393" type="line"/>
      <point x="623" y="334" type="line"/>
      <point x="563" y="227" type="line"/>
      <point x="526" y="183" type="line"/>
      <point x="662" y="0" type="line"/>
      <point x="498" y="0" type="line"/>
      <point x="427" y="96" type="line"/>
      <point x="362" y="38" type="line" smooth="yes"/>
      <point x="329.333" y="8.66667"/>
      <point x="288" y="-6"/>
      <point x="238" y="-6" type="curve" smooth="yes"/>
      <point x="212" y="-6"/>
      <point x="185.667" y="-1"/>
      <point x="159" y="9" type="curve" smooth="yes"/>
      <point x="120.333" y="23"/>
      <point x="88.5" y="48.6667"/>
      <point x="63.5" y="86" type="curve" smooth="yes"/>
      <point x="38.5" y="123.333"/>
      <point x="26" y="162"/>
      <point x="26" y="202" type="curve" smooth="yes"/>
      <point x="26" y="264.667"/>
      <point x="54" y="320.333"/>
      <point x="110" y="369" type="curve" smooth="yes"/>
      <point x="179" y="430" type="line"/>
      <point x="128" y="504" type="line" smooth="yes"/>
      <point x="106" y="535.333"/>
      <point x="95" y="565.333"/>
      <point x="95" y="594" type="curve" smooth="yes"/>
      <point x="95" y="630.667"/>
      <point x="106.833" y="661.5"/>
      <point x="130.5" y="686.5" type="curve" smooth="yes"/>
      <point x="154.167" y="711.5"/>
      <point x="179.667" y="726"/>
      <point x="207" y="730" type="curve" smooth="yes"/>
      <point x="237.667" y="734.667"/>
      <point x="273.333" y="737"/>
      <point x="314" y="737" type="curve" smooth="yes"/>
      <point x="354.667" y="737"/>
      <point x="411.333" y="728"/>
      <point x="484" y="710" type="curve"/>
      <point x="484" y="608" type="line"/>
    </contour>
    <contour>
      <point x="197" y="284" type="line" smooth="yes"/>
      <point x="171" y="262"/>
      <point x="158" y="240.667"/>
      <point x="158" y="220" type="curve" smooth="yes"/>
      <point x="158" y="199.333"/>
      <point x="164" y="181.5"/>
      <point x="176" y="166.5" type="curve" smooth="yes"/>
      <point x="188" y="151.5"/>
      <point x="199.833" y="140.833"/>
      <point x="211.5" y="134.5" type="curve" smooth="yes"/>
      <point x="223.167" y="128.167"/>
      <point x="232.667" y="125"/>
      <point x="240" y="125" type="curve" smooth="yes"/>
      <point x="251" y="125"/>
      <point x="251" y="125"/>
      <point x="256" y="125" type="curve" smooth="yes"/>
      <point x="271.333" y="127"/>
      <point x="285.667" y="134.333"/>
      <point x="299" y="147" type="curve" smooth="yes"/>
      <point x="350" y="196" type="line"/>
      <point x="249" y="330" type="line"/>
    </contour>
  </outline>
</glyph>
<glyph name="quotesingle" format="1">
  <advance width="224"/>
  <unicode hex="0027"/>
  <outline>
    <contour>
      <point x="41.7998" y="665" type="line"/>
      <point x="41.7998" y="732" type="line"/>
      <point x="182.8" y="732" type="line"/>
      <point x="182.8" y="665" type="line"/>
      <point x="172.8" y="531" type="line"/>
      <point x="52.7998" y="531" type="line"/>
    </contour>
  </outline>
</glyph>
<glyph name="parenleft" format="1">
  <advance width="377"/>
  <unicode hex="0028"/>
  <outline>
    <contour>
      <point x="56.8496" y="326" type="curve" smooth="yes"/>
      <point x="56.8496" y="650.6"/>
      <point x="232.35" y="860"/>
      <point x="232.35" y="860" type="curve"/>
      <point x="362.85" y="860" type="line"/>
      <point x="362.85" y="860"/>
      <point x="196.85" y="607.9"/>
      <point x="196.85" y="326" type="curve" smooth="yes"/>
      <point x="196.85" y="17.2002"/>
      <point x="362.85" y="-210"/>
      <point x="362.85" y="-210" type="curve"/>
      <point x="232.35" y="-210" type="line"/>
      <point x="232.35" y="-210"/>
      <point x="56.8496" y="-34.5498"/>
    </contour>
  </outline>
</glyph>
<glyph name="parenright" format="1">
  <advance width="377"/>
  <unicode hex="0029"/>
  <outline>
    <contour>
      <point x="15.0498" y="-210" type="line"/>
      <point x="15.0498" y="-210"/>
      <point x="181.05" y="17.2002"/>
      <point x="181.05" y="326" type="curve" smooth="yes"/>
      <point x="181.05" y="607.9"/>
      <point x="15.0498" y="860"/>
      <point x="15.0498" y="860" type="curve"/>
      <point x="145.55" y="860" type="line"/>
      <point x="145.55" y="860"/>
      <point x="321.05" y="650.6"/>
      <point x="321.05" y="326" type="curve" smooth="yes"/>
      <point x="321.05" y="-34.5498"/>
      <point x="145.55" y="-210"/>
      <point x="145.55" y="-210" type="curve"/>
    </contour>
  </outline>
</glyph>
<glyph name="asterisk" format="1">
  <advance width="427"/>
  <unicode hex="002A"/>
  <outline>
    <contour>
      <point x="37.9004" y="566" type="line"/>
      <point x="37.9004" y="622.5" type="line"/>
      <point x="176.9" y="646" type="line"/>
      <point x="181.9" y="561" type="line"/>
    </contour>
    <contour>
      <point x="94.9004" y="416.2" type="line"/>
      <point x="119.45" y="552.85" type="line"/>
      <point x="201.9" y="532" type="line"/>
      <point x="148.4" y="399.25" type="line"/>
    </contour>
    <contour>
      <point x="165.55" y="719.75" type="line"/>
      <point x="219.95" y="739.051" type="line"/>
      <point x="287.25" y="616.65" type="line"/>
      <point x="208.25" y="584" type="line"/>
    </contour>
    <contour>
      <point x="190.4" y="466.65" type="line"/>
      <point x="236.9" y="538.001" type="line"/>
      <point x="349.101" y="448.101" type="line"/>
      <point x="316.551" y="402.9" type="line"/>
    </contour>
    <contour>
      <point x="239.45" y="571.001" type="line"/>
      <point x="358.9" y="649.751" type="line"/>
      <point x="390" y="602.651" type="line"/>
      <point x="293.5" y="505.651" type="line"/>
    </contour>
  </outline>
</glyph>
<glyph name="plus" format="1">
  <advance width="483"/>
  <unicode hex="002B"/>
  <outline>
    <contour>
      <point x="33.5" y="297" type="line"/>
      <point x="33.5" y="415" type="line"/>
      <point x="181.5" y="415" type="line"/>
      <point x="181.5" y="564" type="line"/>
      <point x="299.5" y="564" type="line"/>
      <point x="299.5" y="415" type="line"/>
      <point x="449.5" y="415" type="line"/>
      <point x="449.5" y="297" type="line"/>
      <point x="299.5" y="297" type="line"/>
      <point x="299.5" y="148" type="line"/>
      <point x="181.5" y="148" type="line"/>
      <point x="181.5" y="297" type="line"/>
    </contour>
  </outline>
</glyph>
<glyph name="comma" format="1">
  <advance width="261"/>
  <unicode hex="002C"/>
  <outline>
    <contour>
      <point x="64.6504" y="25" type="curve" smooth="yes"/>
      <point x="64.6504" y="112" type="line" smooth="yes"/>
      <point x="64.6504" y="130"/>
      <point x="73.6504" y="139"/>
      <point x="89.6504" y="139" type="curve" smooth="yes"/>
      <point x="173.65" y="139" type="line" smooth="yes"/>
      <point x="191.65" y="139"/>
      <point x="197.65" y="127"/>
      <point x="197.65" y="112" type="curve" smooth="yes"/>
      <point x="197.65" y="-11" type="line" smooth="yes"/>
      <point x="197.65" y="-121.95"/>
      <point x="69.6504" y="-88"/>
      <point x="69.6504" y="-88" type="curve"/>
      <point x="69.6504" y="-39.5" type="line"/>
      <point x="99.6504" y="-40.5"/>
      <point x="100.65" y="-24.4502"/>
      <point x="100.65" y="-14" type="curve" smooth="yes"/>
      <point x="100.65" y="0" type="line"/>
      <point x="89.6504" y="0" type="line" smooth="yes"/>
      <point x="75.6504" y="0"/>
      <point x="64.6504" y="8"/>
    </contour>
  </outline>
</glyph>
<glyph name="period" format="1">
  <advance width="263"/>
  <unicode hex="002E"/>
  <outline>
    <contour>
      <point x="64.6504" y="23" type="curve" smooth="yes"/>
      <point x="64.6504" y="113" type="line" smooth="yes"/>
      <point x="64.6504" y="128"/>
      <point x="72.6504" y="138"/>
      <point x="88.6504" y="138" type="curve" smooth="yes"/>
      <point x="174.65" y="138" type="line" smooth="yes"/>
      <point x="192.65" y="138"/>
      <point x="199.65" y="129"/>
      <point x="199.65" y="113" type="curve" smooth="yes"/>
      <point x="199.65" y="23" type="line" smooth="yes"/>
      <point x="199.65" y="5"/>
      <point x="188.65" y="0"/>
      <point x="174.65" y="0" type="curve" smooth="yes"/>
      <point x="88.6504" y="0" type="line" smooth="yes"/>
      <point x="74.6504" y="0"/>
      <point x="64.6504" y="9"/>
    </contour>
  </outline>
</glyph>
<glyph name="slash" format="1">
  <advance width="456"/>
  <unicode hex="002F"/>
  <outline>
    <contour>
      <point x="15.0498" y="-72" type="line"/>
      <point x="296.05" y="770" type="line"/>
      <point x="441.05" y="770" type="line"/>
      <point x="160.05" y="-72" type="line"/>
    </contour>
  </outline>
</glyph>
<glyph name="one" format="1">
  <advance width="371"/>
  <unicode hex="0031"/>
  <outline>
    <contour>
      <point x="311" y="732" type="line"/>
      <point x="311" y="0" type="line"/>
      <point x="171" y="0" type="line"/>
      <point x="171" y="593" type="line"/>
      <point x="30" y="558" type="line"/>
      <point x="30" y="649" type="line"/>
      <point x="172" y="732" type="line"/>
    </contour>
  </outline>
</glyph>
<glyph name="two" format="1">
  <advance width="588"/>
  <unicode hex="0032"/>
  <outline>
    <contour>
      <point x="30" y="612" type="line"/>
      <point x="30" y="716" type="line"/>
      <point x="128" y="733.333"/>
      <point x="229.333" y="742"/>
      <point x="334" y="742" type="curve" smooth="yes"/>
      <point x="408" y="742"/>
      <point x="463" y="719.667"/>
      <point x="499" y="675" type="curve" smooth="yes"/>
      <point x="533.667" y="632.333"/>
      <point x="551" y="579"/>
      <point x="551" y="515" type="curve" smooth="yes"/>
      <point x="551" y="403.667"/>
      <point x="459" y="275"/>
      <point x="275" y="129" type="curve"/>
      <point x="551" y="129" type="line"/>
      <point x="551" y="0" type="line"/>
      <point x="38" y="0" type="line"/>
      <point x="38" y="123" type="line"/>
      <point x="91.3333" y="159"/>
      <point x="142.167" y="197.667"/>
      <point x="190.5" y="239" type="curve" smooth="yes"/>
      <point x="238.833" y="280.333"/>
      <point x="277.5" y="315.667"/>
      <point x="306.5" y="345" type="curve" smooth="yes"/>
      <point x="335.5" y="374.333"/>
      <point x="360" y="404.5"/>
      <point x="380" y="435.5" type="curve" smooth="yes"/>
      <point x="400" y="466.5"/>
      <point x="410" y="493"/>
      <point x="410" y="515" type="curve" smooth="yes"/>
      <point x="410" y="537"/>
      <point x="406" y="555.333"/>
      <point x="398" y="570" type="curve" smooth="yes"/>
      <point x="382" y="598"/>
      <point x="346" y="612"/>
      <point x="290" y="612" type="curve" smooth="yes"/>
    </contour>
  </outline>
</glyph>
<glyph name="three" format="1">
  <advance width="583"/>
  <unicode hex="0033"/>
  <outline>
    <contour>
      <point x="339" y="-7" type="curve" smooth="yes"/>
      <point x="281" y="-7" type="line" smooth="yes"/>
      <point x="268" y="-7"/>
      <point x="268" y="-7"/>
      <point x="262" y="-7" type="curve" smooth="yes"/>
      <point x="258" y="-7"/>
      <point x="246.833" y="-6.83333"/>
      <point x="228.5" y="-6.5" type="curve" smooth="yes"/>
      <point x="210.167" y="-6.16667"/>
      <point x="197.667" y="-5.83333"/>
      <point x="191" y="-5.5" type="curve" smooth="yes"/>
      <point x="184.333" y="-5.16667"/>
      <point x="173.333" y="-4.5"/>
      <point x="158" y="-3.5" type="curve" smooth="yes"/>
      <point x="142.667" y="-2.5"/>
      <point x="130.833" y="-1.33333"/>
      <point x="122.5" y="0" type="curve" smooth="yes"/>
      <point x="114.167" y="1.33333"/>
      <point x="103.667" y="3"/>
      <point x="91" y="5" type="curve" smooth="yes"/>
      <point x="71" y="8.33333"/>
      <point x="50.3333" y="13.6667"/>
      <point x="29" y="21" type="curve"/>
      <point x="30" y="123" type="line"/>
      <point x="284" y="123" type="line" smooth="yes"/>
      <point x="322" y="123"/>
      <point x="348.5" y="127"/>
      <point x="363.5" y="135" type="curve" smooth="yes"/>
      <point x="378.5" y="143"/>
      <point x="386" y="161.667"/>
      <point x="386" y="191" type="curve" smooth="yes"/>
      <point x="386" y="223" type="line" smooth="yes"/>
      <point x="386" y="251"/>
      <point x="378.167" y="270.167"/>
      <point x="362.5" y="280.5" type="curve" smooth="yes"/>
      <point x="346.833" y="290.833"/>
      <point x="322.667" y="296.667"/>
      <point x="290" y="298" type="curve" smooth="yes"/>
      <point x="91" y="306" type="line"/>
      <point x="91" y="418" type="line"/>
      <point x="290" y="428" type="line" smooth="yes"/>
      <point x="325.333" y="430"/>
      <point x="350.5" y="436.167"/>
      <point x="365.5" y="446.5" type="curve" smooth="yes"/>
      <point x="380.5" y="456.833"/>
      <point x="388" y="474.667"/>
      <point x="388" y="500" type="curve" smooth="yes"/>
      <point x="388" y="536" type="line" smooth="yes"/>
      <point x="388" y="554"/>
      <point x="383.167" y="568.333"/>
      <point x="373.5" y="579" type="curve" smooth="yes"/>
      <point x="363.833" y="589.667"/>
      <point x="352.333" y="596.667"/>
      <point x="339" y="600" type="curve" smooth="yes"/>
      <point x="325.667" y="603.333"/>
      <point x="309.333" y="605"/>
      <point x="290" y="605" type="curve" smooth="yes"/>
      <point x="23" y="605" type="line"/>
      <point x="23" y="706" type="line"/>
      <point x="77.6667" y="725.333"/>
      <point x="164" y="735"/>
      <point x="282" y="735" type="curve" smooth="yes"/>
      <point x="304" y="735"/>
      <point x="325.333" y="734.667"/>
      <point x="346" y="734" type="curve" smooth="yes"/>
      <point x="401.333" y="732.667"/>
      <point x="445.333" y="716.333"/>
      <point x="478" y="685" type="curve" smooth="yes"/>
      <point x="510.667" y="653.667"/>
      <point x="527" y="611.333"/>
      <point x="527" y="558" type="curve" smooth="yes"/>
      <point x="527" y="506" type="line" smooth="yes"/>
      <point x="527" y="430"/>
      <point x="501.667" y="382.667"/>
      <point x="451" y="364" type="curve"/>
      <point x="501.667" y="342.667"/>
      <point x="527" y="292.667"/>
      <point x="527" y="214" type="curve" smooth="yes"/>
      <point x="527" y="172" type="line" smooth="yes"/>
      <point x="527" y="114"/>
      <point x="511" y="69.6667"/>
      <point x="479" y="39" type="curve" smooth="yes"/>
      <point x="447" y="8.33333"/>
      <point x="400.333" y="-7"/>
    </contour>
  </outline>
</glyph>
<glyph name="four" format="1">
  <advance width="620"/>
  <unicode hex="0034"/>
  <outline>
    <contour>
      <point x="392" y="292" type="line"/>
      <point x="392" y="459" type="line"/>
      <point x="424" y="536" type="line"/>
      <point x="532" y="536" type="line"/>
      <point x="532" y="292" type="line"/>
      <point x="606" y="292" type="line"/>
      <point x="606" y="184" type="line"/>
      <point x="532" y="160" type="line"/>
      <point x="532" y="2" type="line"/>
      <point x="392" y="2" type="line"/>
      <point x="392" y="160" type="line"/>
      <point x="49" y="160" type="line"/>
      <point x="15" y="224" type="line"/>
      <point x="276" y="732" type="line"/>
      <point x="430" y="732" type="line"/>
      <point x="211" y="292" type="line"/>
    </contour>
  </outline>
</glyph>
<glyph name="five" format="1">
  <advance width="596"/>
  <unicode hex="0035"/>
  <outline>
    <contour>
      <point x="208" y="438" type="line"/>
      <point x="229.333" y="455.333"/>
      <point x="265" y="464"/>
      <point x="315" y="464" type="curve" smooth="yes"/>
      <point x="333" y="464"/>
      <point x="358.833" y="463.333"/>
      <point x="392.5" y="462" type="curve" smooth="yes"/>
      <point x="426.167" y="460.667"/>
      <point x="455.667" y="451.667"/>
      <point x="481" y="435" type="curve" smooth="yes"/>
      <point x="529" y="404.333"/>
      <point x="553" y="352.667"/>
      <point x="553" y="280" type="curve" smooth="yes"/>
      <point x="553" y="177" type="line" smooth="yes"/>
      <point x="553" y="103"/>
      <point x="524.667" y="50.6667"/>
      <point x="468" y="20" type="curve" smooth="yes"/>
      <point x="438" y="4"/>
      <point x="404.333" y="-4"/>
      <point x="367" y="-4" type="curve" smooth="yes"/>
      <point x="299" y="-4"/>
      <point x="246.167" y="-2.66667"/>
      <point x="208.5" y="0" type="curve" smooth="yes"/>
      <point x="170.833" y="2.66667"/>
      <point x="120.667" y="9.33333"/>
      <point x="58" y="20" type="curve"/>
      <point x="58" y="130" type="line"/>
      <point x="340" y="130" type="line" smooth="yes"/>
      <point x="368.667" y="130"/>
      <point x="388" y="136.833"/>
      <point x="398" y="150.5" type="curve" smooth="yes"/>
      <point x="408" y="164.167"/>
      <point x="413" y="181"/>
      <point x="413" y="201" type="curve" smooth="yes"/>
      <point x="413" y="268" type="line" smooth="yes"/>
      <point x="413" y="302.667"/>
      <point x="402.667" y="324.333"/>
      <point x="382" y="333" type="curve" smooth="yes"/>
      <point x="372.667" y="337"/>
      <point x="360.667" y="339"/>
      <point x="346" y="339" type="curve" smooth="yes"/>
      <point x="252" y="339" type="line" smooth="yes"/>
      <point x="233.333" y="339"/>
      <point x="218.5" y="334.167"/>
      <point x="207.5" y="324.5" type="curve" smooth="yes"/>
      <point x="196.5" y="314.833"/>
      <point x="191" y="300"/>
      <point x="191" y="280" type="curve"/>
      <point x="59" y="280" type="line"/>
      <point x="81" y="732" type="line"/>
      <point x="526" y="732" type="line"/>
      <point x="526" y="603" type="line"/>
      <point x="216" y="603" type="line"/>
    </contour>
  </outline>
</glyph>
<glyph name="six" format="1">
  <advance width="608"/>
  <unicode hex="0036"/>
  <outline>
    <contour>
      <point x="50" y="384" type="curve" smooth="yes"/>
      <point x="50" y="435.333"/>
      <point x="53.1667" y="481.167"/>
      <point x="59.5" y="521.5" type="curve" smooth="yes"/>
      <point x="65.8333" y="561.833"/>
      <point x="74.3333" y="594.833"/>
      <point x="85" y="620.5" type="curve" smooth="yes"/>
      <point x="95.6667" y="646.167"/>
      <point x="108.667" y="667.333"/>
      <point x="124" y="684" type="curve" smooth="yes"/>
      <point x="150.667" y="714.667"/>
      <point x="183.333" y="731.667"/>
      <point x="222" y="735" type="curve" smooth="yes"/>
      <point x="247.333" y="737.667"/>
      <point x="273.667" y="739"/>
      <point x="301" y="739" type="curve" smooth="yes"/>
      <point x="373.667" y="739"/>
      <point x="453.333" y="731"/>
      <point x="540" y="715" type="curve"/>
      <point x="540" y="609" type="line"/>
      <point x="290" y="609" type="line" smooth="yes"/>
      <point x="260" y="609"/>
      <point x="237.667" y="598.667"/>
      <point x="223" y="578" type="curve" smooth="yes"/>
      <point x="208.333" y="556.667"/>
      <point x="199.667" y="535.333"/>
      <point x="197" y="514" type="curve" smooth="yes"/>
      <point x="192.333" y="482.667"/>
      <point x="190" y="452.667"/>
      <point x="190" y="424" type="curve"/>
      <point x="244.667" y="437.333"/>
      <point x="312" y="444"/>
      <point x="392" y="444" type="curve" smooth="yes"/>
      <point x="460.667" y="444"/>
      <point x="507" y="427.333"/>
      <point x="531" y="394" type="curve" smooth="yes"/>
      <point x="553" y="364.667"/>
      <point x="564" y="324.667"/>
      <point x="564" y="274" type="curve" smooth="yes"/>
      <point x="564" y="164" type="line" smooth="yes"/>
      <point x="564" y="54"/>
      <point x="505" y="-1"/>
      <point x="387" y="-1" type="curve" smooth="yes"/>
      <point x="244" y="-1" type="line" smooth="yes"/>
      <point x="178" y="-1"/>
      <point x="131" y="24"/>
      <point x="103" y="74" type="curve" smooth="yes"/>
      <point x="67.6667" y="136"/>
      <point x="50" y="239.333"/>
    </contour>
    <contour>
      <point x="190" y="321" type="line"/>
      <point x="190" y="245.667"/>
      <point x="198" y="194.333"/>
      <point x="214" y="167" type="curve" smooth="yes"/>
      <point x="230" y="141"/>
      <point x="253.667" y="128"/>
      <point x="285" y="128" type="curve" smooth="yes"/>
      <point x="361" y="128" type="line" smooth="yes"/>
      <point x="383.667" y="128"/>
      <point x="400" y="132.167"/>
      <point x="410" y="140.5" type="curve" smooth="yes"/>
      <point x="420" y="148.833"/>
      <point x="425" y="165.333"/>
      <point x="425" y="190" type="curve" smooth="yes"/>
      <point x="425" y="257" type="line" smooth="yes"/>
      <point x="425" y="291.667"/>
      <point x="413.667" y="312"/>
      <point x="391" y="318" type="curve" smooth="yes"/>
      <point x="383.667" y="320"/>
      <point x="374.667" y="321"/>
      <point x="364" y="321" type="curve" smooth="yes"/>
    </contour>
  </outline>
</glyph>
<glyph name="seven" format="1">
  <advance width="554"/>
  <unicode hex="0037"/>
  <outline>
    <contour>
      <point x="23" y="603" type="line"/>
      <point x="23" y="732" type="line"/>
      <point x="494" y="732" type="line"/>
      <point x="532" y="668" type="line"/>
      <point x="287" y="0" type="line"/>
      <point x="134" y="0" type="line"/>
      <point x="359" y="603" type="line"/>
    </contour>
  </outline>
</glyph>
<glyph name="eight" format="1">
  <advance width="624"/>
  <unicode hex="0038"/>
  <outline>
    <contour>
      <point x="57" y="168" type="curve" smooth="yes"/>
      <point x="57" y="241" type="line" smooth="yes"/>
      <point x="57" y="271"/>
      <point x="64" y="295.833"/>
      <point x="78" y="315.5" type="curve" smooth="yes"/>
      <point x="92" y="335.167"/>
      <point x="111.333" y="348"/>
      <point x="136" y="354" type="curve"/>
      <point x="102.667" y="368"/>
      <point x="80.6667" y="389"/>
      <point x="70" y="417" type="curve" smooth="yes"/>
      <point x="61.3333" y="439.667"/>
      <point x="57" y="467"/>
      <point x="57" y="499" type="curve" smooth="yes"/>
      <point x="57" y="564" type="line" smooth="yes"/>
      <point x="57" y="630.667"/>
      <point x="75.3333" y="676.667"/>
      <point x="112" y="702" type="curve" smooth="yes"/>
      <point x="145.333" y="725.333"/>
      <point x="189.333" y="737"/>
      <point x="244" y="737" type="curve" smooth="yes"/>
      <point x="395" y="737" type="line" smooth="yes"/>
      <point x="453.667" y="737"/>
      <point x="497.167" y="723.333"/>
      <point x="525.5" y="696" type="curve" smooth="yes"/>
      <point x="553.833" y="668.667"/>
      <point x="568" y="624.333"/>
      <point x="568" y="563" type="curve" smooth="yes"/>
      <point x="568" y="510" type="line" smooth="yes"/>
      <point x="568.667" y="492"/>
      <point x="565.667" y="473.667"/>
      <point x="559" y="455" type="curve" smooth="yes"/>
      <point x="547" y="419.667"/>
      <point x="525" y="399.333"/>
      <point x="493" y="394" type="curve"/>
      <point x="507.667" y="391.333"/>
      <point x="520.333" y="384.667"/>
      <point x="531" y="374" type="curve" smooth="yes"/>
      <point x="541.667" y="363.333"/>
      <point x="549.667" y="351"/>
      <point x="555" y="337" type="curve" smooth="yes"/>
      <point x="564.333" y="309.667"/>
      <point x="568.667" y="283"/>
      <point x="568" y="257" type="curve" smooth="yes"/>
      <point x="568" y="171" type="line" smooth="yes"/>
      <point x="568" y="92.3333"/>
      <point x="542.333" y="41.3333"/>
      <point x="491" y="18" type="curve" smooth="yes"/>
      <point x="465" y="6"/>
      <point x="432.667" y="0"/>
      <point x="394" y="0" type="curve" smooth="yes"/>
      <point x="244" y="0" type="line" smooth="yes"/>
      <point x="138.667" y="0"/>
      <point x="78" y="37"/>
      <point x="62" y="111" type="curve" smooth="yes"/>
      <point x="58.6667" y="128.333"/>
      <point x="57" y="147.333"/>
    </contour>
    <contour>
      <point x="197" y="183" type="line" smooth="yes"/>
      <point x="197" y="155.667"/>
      <point x="207" y="138"/>
      <point x="227" y="130" type="curve" smooth="yes"/>
      <point x="237.667" y="126"/>
      <point x="251.667" y="124"/>
      <point x="269" y="124" type="curve" smooth="yes"/>
      <point x="362" y="124" type="line" smooth="yes"/>
      <point x="406" y="124"/>
      <point x="428" y="143.667"/>
      <point x="428" y="183" type="curve" smooth="yes"/>
      <point x="428" y="253" type="line" smooth="yes"/>
      <point x="428" y="273"/>
      <point x="422.667" y="288.333"/>
      <point x="412" y="299" type="curve" smooth="yes"/>
      <point x="401.333" y="309.667"/>
      <point x="385.667" y="315"/>
      <point x="365" y="315" type="curve" smooth="yes"/>
      <point x="264" y="315" type="line" smooth="yes"/>
      <point x="219.333" y="315"/>
      <point x="197" y="294.333"/>
      <point x="197" y="253" type="curve" smooth="yes"/>
    </contour>
    <contour>
      <point x="197" y="494" type="line" smooth="yes"/>
      <point x="197" y="452.667"/>
      <point x="219.333" y="432"/>
      <point x="264" y="432" type="curve" smooth="yes"/>
      <point x="364" y="432" type="line" smooth="yes"/>
      <point x="391.333" y="432"/>
      <point x="409.333" y="438.333"/>
      <point x="418" y="451" type="curve" smooth="yes"/>
      <point x="424.667" y="461.667"/>
      <point x="428" y="476"/>
      <point x="428" y="494" type="curve" smooth="yes"/>
      <point x="428" y="541" type="line" smooth="yes"/>
      <point x="428" y="569"/>
      <point x="422.667" y="588.167"/>
      <point x="412" y="598.5" type="curve" smooth="yes"/>
      <point x="401.333" y="608.833"/>
      <point x="385" y="614"/>
      <point x="363" y="614" type="curve" smooth="yes"/>
      <point x="269" y="614" type="line" smooth="yes"/>
      <point x="243" y="614"/>
      <point x="224.5" y="609.5"/>
      <point x="213.5" y="600.5" type="curve" smooth="yes"/>
      <point x="202.5" y="591.5"/>
      <point x="197" y="571.667"/>
      <point x="197" y="541" type="curve" smooth="yes"/>
    </contour>
  </outline>
</glyph>
<glyph name="nine" format="1">
  <advance width="608"/>
  <unicode hex="0039"/>
  <outline>
    <contour>
      <point x="306" y="-4" type="curve" smooth="yes"/>
      <point x="222" y="-4"/>
      <point x="143.333" y="3.66667"/>
      <point x="70" y="19" type="curve"/>
      <point x="70" y="125" type="line"/>
      <point x="320" y="125" type="line" smooth="yes"/>
      <point x="350" y="125"/>
      <point x="372" y="135.333"/>
      <point x="386" y="156" type="curve" smooth="yes"/>
      <point x="400.667" y="177.333"/>
      <point x="409.667" y="198.667"/>
      <point x="413" y="220" type="curve" smooth="yes"/>
      <point x="417.667" y="251.333"/>
      <point x="420" y="281.667"/>
      <point x="420" y="311" type="curve"/>
      <point x="365.333" y="297"/>
      <point x="298" y="290"/>
      <point x="218" y="290" type="curve" smooth="yes"/>
      <point x="149.333" y="290"/>
      <point x="102.667" y="306.667"/>
      <point x="78" y="340" type="curve" smooth="yes"/>
      <point x="56.6667" y="370"/>
      <point x="46" y="410.333"/>
      <point x="46" y="461" type="curve" smooth="yes"/>
      <point x="46" y="570" type="line" smooth="yes"/>
      <point x="46" y="680"/>
      <point x="105" y="735"/>
      <point x="223" y="735" type="curve" smooth="yes"/>
      <point x="366" y="735" type="line" smooth="yes"/>
      <point x="390.667" y="735"/>
      <point x="412.333" y="731.833"/>
      <point x="431" y="725.5" type="curve" smooth="yes"/>
      <point x="449.667" y="719.167"/>
      <point x="467.5" y="707.333"/>
      <point x="484.5" y="690" type="curve" smooth="yes"/>
      <point x="501.5" y="672.667"/>
      <point x="515.333" y="650"/>
      <point x="526" y="622" type="curve" smooth="yes"/>
      <point x="548.667" y="560.667"/>
      <point x="560" y="470"/>
      <point x="560" y="350" type="curve" smooth="yes"/>
      <point x="560" y="206"/>
      <point x="535.333" y="106"/>
      <point x="486" y="50" type="curve" smooth="yes"/>
      <point x="458.667" y="19.3333"/>
      <point x="426" y="2.33333"/>
      <point x="388" y="-1" type="curve" smooth="yes"/>
      <point x="361.333" y="-3"/>
      <point x="334" y="-4"/>
    </contour>
    <contour>
      <point x="185" y="477" type="line" smooth="yes"/>
      <point x="185" y="452.333"/>
      <point x="189.667" y="435.5"/>
      <point x="199" y="426.5" type="curve" smooth="yes"/>
      <point x="208.333" y="417.5"/>
      <point x="224" y="413"/>
      <point x="246" y="413" type="curve" smooth="yes"/>
      <point x="420" y="413" type="line"/>
      <point x="420" y="488.333"/>
      <point x="411.667" y="540"/>
      <point x="395" y="568" type="curve" smooth="yes"/>
      <point x="379.667" y="593.333"/>
      <point x="356.333" y="606"/>
      <point x="325" y="606" type="curve" smooth="yes"/>
      <point x="248" y="606" type="line" smooth="yes"/>
      <point x="226" y="606"/>
      <point x="210" y="601.833"/>
      <point x="200" y="593.5" type="curve" smooth="yes"/>
      <point x="190" y="585.167"/>
      <point x="185" y="568.667"/>
      <point x="185" y="544" type="curve" smooth="yes"/>
    </contour>
  </outline>
</glyph>
<glyph name="colon" format="1">
  <advance width="263"/>
  <unicode hex="003A"/>
  <outline>
    <contour>
      <point x="64.6504" y="23" type="curve" smooth="yes"/>
      <point x="64.6504" y="113" type="line" smooth="yes"/>
      <point x="64.6504" y="128"/>
      <point x="72.6504" y="138"/>
      <point x="88.6504" y="138" type="curve" smooth="yes"/>
      <point x="174.65" y="138" type="line" smooth="yes"/>
      <point x="192.65" y="138"/>
      <point x="199.65" y="129"/>
      <point x="199.65" y="113" type="curve" smooth="yes"/>
      <point x="199.65" y="23" type="line" smooth="yes"/>
      <point x="199.65" y="5"/>
      <point x="188.65" y="0"/>
      <point x="174.65" y="0" type="curve" smooth="yes"/>
      <point x="88.6504" y="0" type="line" smooth="yes"/>
      <point x="74.6504" y="0"/>
      <point x="64.6504" y="9"/>
    </contour>
    <contour>
      <point x="64.6504" y="416.45" type="curve" smooth="yes"/>
      <point x="64.6504" y="506.45" type="line" smooth="yes"/>
      <point x="64.6504" y="521.45"/>
      <point x="72.6504" y="531.45"/>
      <point x="88.6504" y="531.45" type="curve" smooth="yes"/>
      <point x="174.65" y="531.45" type="line" smooth="yes"/>
      <point x="192.65" y="531.45"/>
      <point x="199.65" y="522.45"/>
      <point x="199.65" y="506.45" type="curve" smooth="yes"/>
      <point x="199.65" y="416.45" type="line" smooth="yes"/>
      <point x="199.65" y="398.45"/>
      <point x="188.65" y="393.45"/>
      <point x="174.65" y="393.45" type="curve" smooth="yes"/>
      <point x="88.6504" y="393.45" type="line" smooth="yes"/>
      <point x="74.6504" y="393.45"/>
      <point x="64.6504" y="402.45"/>
    </contour>
  </outline>
</glyph>
<glyph name="semicolon" format="1">
  <advance width="264"/>
  <unicode hex="003B"/>
  <outline>
    <contour>
      <point x="64.6504" y="25" type="curve" smooth="yes"/>
      <point x="64.6504" y="112" type="line" smooth="yes"/>
      <point x="64.6504" y="128.2"/>
      <point x="74.1006" y="139"/>
      <point x="89.6504" y="139" type="curve" smooth="yes"/>
      <point x="173.65" y="139" type="line" smooth="yes"/>
      <point x="190.301" y="139"/>
      <point x="197.65" y="127"/>
      <point x="197.65" y="112" type="curve" smooth="yes"/>
      <point x="197.65" y="-11" type="line" smooth="yes"/>
      <point x="197.65" y="-121.95"/>
      <point x="69.6504" y="-88"/>
      <point x="69.6504" y="-88" type="curve"/>
      <point x="69.6504" y="-39.5" type="line"/>
      <point x="99.6504" y="-40.5"/>
      <point x="100.65" y="-24.4502"/>
      <point x="100.65" y="-14" type="curve" smooth="yes"/>
      <point x="100.65" y="0" type="line"/>
      <point x="89.6504" y="0" type="line" smooth="yes"/>
      <point x="75.6504" y="0"/>
      <point x="64.6504" y="10.25"/>
    </contour>
    <contour>
      <point x="65.5508" y="416.9" type="curve" smooth="yes"/>
      <point x="65.5508" y="506.9" type="line" smooth="yes"/>
      <point x="65.5508" y="521.9"/>
      <point x="73.5508" y="531.9"/>
      <point x="89.5508" y="531.9" type="curve" smooth="yes"/>
      <point x="175.551" y="531.9" type="line" smooth="yes"/>
      <point x="193.551" y="531.9"/>
      <point x="200.551" y="522.9"/>
      <point x="200.551" y="506.9" type="curve" smooth="yes"/>
      <point x="200.551" y="416.9" type="line" smooth="yes"/>
      <point x="200.551" y="398.9"/>
      <point x="189.551" y="393.9"/>
      <point x="175.551" y="393.9" type="curve" smooth="yes"/>
      <point x="89.5508" y="393.9" type="line" smooth="yes"/>
      <point x="75.5508" y="393.9"/>
      <point x="65.5508" y="402.9"/>
    </contour>
  </outline>
</glyph>
<glyph name="less" format="1">
  <advance width="450"/>
  <unicode hex="003C"/>
  <outline>
    <contour>
      <point x="37.9004" y="287.6" type="line"/>
      <point x="37.9004" y="417.1" type="line"/>
      <point x="412.9" y="561.5" type="line"/>
      <point x="412.9" y="432" type="line"/>
      <point x="186.95" y="353.45" type="line"/>
      <point x="412.9" y="264.9" type="line"/>
      <point x="412.9" y="134.5" type="line"/>
    </contour>
  </outline>
</glyph>
<glyph name="equal" format="1">
  <advance width="467"/>
  <unicode hex="003D"/>
  <outline>
    <contour>
      <point x="20" y="184.5" type="line"/>
      <point x="20" y="302.5" type="line"/>
      <point x="447" y="302.5" type="line"/>
      <point x="447" y="184.5" type="line"/>
    </contour>
    <contour>
      <point x="20" y="399" type="line"/>
      <point x="20" y="517" type="line"/>
      <point x="447" y="517" type="line"/>
      <point x="447" y="399" type="line"/>
    </contour>
  </outline>
</glyph>
<glyph name="greater" format="1">
  <advance width="450"/>
  <unicode hex="003E"/>
  <outline>
    <contour>
      <point x="37.9004" y="134.5" type="line"/>
      <point x="37.9004" y="264.9" type="line"/>
      <point x="263.851" y="353.45" type="line"/>
      <point x="37.9004" y="432" type="line"/>
      <point x="37.9004" y="561.5" type="line"/>
      <point x="412.9" y="417.1" type="line"/>
      <point x="412.9" y="287.6" type="line"/>
    </contour>
  </outline>
</glyph>
<glyph name="question" format="1">
  <advance width="542"/>
  <unicode hex="003F"/>
  <outline>
    <contour>
      <point x="15.0498" y="609" type="line"/>
      <point x="15.0498" y="713.5" type="line"/>
      <point x="108.25" y="732"/>
      <point x="182.05" y="744"/>
      <point x="297.05" y="739" type="curve"/>
      <point x="449.05" y="739"/>
      <point x="512.55" y="641"/>
      <point x="512.55" y="543" type="curve" smooth="yes"/>
      <point x="512.55" y="469.5" type="line" smooth="yes"/>
      <point x="512.55" y="334.5"/>
      <point x="438.1" y="272.25"/>
      <point x="286.05" y="285" type="curve"/>
      <point x="286.05" y="195" type="line"/>
      <point x="172.55" y="195" type="line"/>
      <point x="172.55" y="390" type="line"/>
      <point x="287.05" y="390" type="line" smooth="yes"/>
      <point x="336.05" y="392"/>
      <point x="373.55" y="412.4"/>
      <point x="373.55" y="471.7" type="curve" smooth="yes"/>
      <point x="373.55" y="525.4" type="line" smooth="yes"/>
      <point x="373.55" y="584.7"/>
      <point x="339.05" y="609"/>
      <point x="264.05" y="609" type="curve" smooth="yes"/>
    </contour>
    <contour>
      <point x="161.75" y="23" type="curve" smooth="yes"/>
      <point x="161.749" y="113" type="line" smooth="yes"/>
      <point x="161.749" y="128"/>
      <point x="169.749" y="138"/>
      <point x="185.749" y="138" type="curve" smooth="yes"/>
      <point x="272.649" y="138" type="line" smooth="yes"/>
      <point x="289.3" y="138"/>
      <point x="296.75" y="128.1"/>
      <point x="296.75" y="113" type="curve" smooth="yes"/>
      <point x="296.75" y="23" type="line" smooth="yes"/>
      <point x="296.75" y="6.34961"/>
      <point x="286.65" y="0"/>
      <point x="272.65" y="0" type="curve" smooth="yes"/>
      <point x="185.75" y="0" type="line" smooth="yes"/>
      <point x="171.75" y="0"/>
      <point x="161.75" y="9"/>
    </contour>
  </outline>
</glyph>
<glyph name="at" format="1">
  <advance width="868"/>
  <unicode hex="0040"/>
  <outline>
    <contour>
      <point x="256" y="512" type="curve" smooth="yes"/>
      <point x="448" y="512" type="line" smooth="yes"/>
      <point x="512.667" y="512"/>
      <point x="558.667" y="498"/>
      <point x="586" y="470" type="curve" smooth="yes"/>
      <point x="610.667" y="444.667"/>
      <point x="623" y="406.667"/>
      <point x="623" y="356" type="curve" smooth="yes"/>
      <point x="623" y="0" type="line"/>
      <point x="533" y="0" type="line"/>
      <point x="513" y="59" type="line"/>
      <point x="513" y="59"/>
      <point x="513" y="59"/>
      <point x="505.5" y="52" type="curve" smooth="yes"/>
      <point x="500.5" y="47.3333"/>
      <point x="493.333" y="41.6667"/>
      <point x="484" y="35" type="curve" smooth="yes"/>
      <point x="474.667" y="28.3333"/>
      <point x="464" y="21.6667"/>
      <point x="452" y="15" type="curve" smooth="yes"/>
      <point x="423.333" y="-1"/>
      <point x="390.5" y="-9"/>
      <point x="353.5" y="-9" type="curve" smooth="yes"/>
      <point x="316.5" y="-9"/>
      <point x="286.667" y="4.16667"/>
      <point x="264" y="30.5" type="curve" smooth="yes"/>
      <point x="241.333" y="56.8333"/>
      <point x="230" y="88.3333"/>
      <point x="230" y="125" type="curve" smooth="yes"/>
      <point x="230" y="167" type="line" smooth="yes"/>
      <point x="230" y="211.667"/>
      <point x="242.667" y="245.833"/>
      <point x="268" y="269.5" type="curve" smooth="yes"/>
      <point x="293.333" y="293.167"/>
      <point x="329.333" y="305"/>
      <point x="376" y="305" type="curve" smooth="yes"/>
      <point x="511" y="305" type="line"/>
      <point x="511.667" y="319"/>
      <point x="512" y="329.667"/>
      <point x="512" y="337" type="curve" smooth="yes"/>
      <point x="512" y="344.333"/>
      <point x="511.667" y="348"/>
      <point x="511" y="348" type="curve"/>
      <point x="511" y="368.667"/>
      <point x="506.333" y="382.5"/>
      <point x="497" y="389.5" type="curve" smooth="yes"/>
      <point x="487.667" y="396.5"/>
      <point x="471.667" y="400"/>
      <point x="449" y="400" type="curve" smooth="yes"/>
      <point x="256" y="400" type="line" smooth="yes"/>
      <point x="209.333" y="400"/>
      <point x="180.667" y="385.667"/>
      <point x="170" y="357" type="curve" smooth="yes"/>
      <point x="164.667" y="344.333"/>
      <point x="162" y="328.667"/>
      <point x="162" y="310" type="curve" smooth="yes"/>
      <point x="162" y="22" type="line" smooth="yes"/>
      <point x="162" y="-34.6667"/>
      <point x="182.667" y="-69.3333"/>
      <point x="224" y="-82" type="curve" smooth="yes"/>
      <point x="234" y="-84.6667"/>
      <point x="244.667" y="-86"/>
      <point x="256" y="-86" type="curve" smooth="yes"/>
      <point x="589" y="-86" type="line" smooth="yes"/>
      <point x="627.667" y="-86"/>
      <point x="654.5" y="-77.1667"/>
      <point x="669.5" y="-59.5" type="curve" smooth="yes"/>
      <point x="684.5" y="-41.8333"/>
      <point x="692" y="-14.6667"/>
      <point x="692" y="22" type="curve" smooth="yes"/>
      <point x="692" y="479" type="line" smooth="yes"/>
      <point x="692" y="516.333"/>
      <point x="682.667" y="545.167"/>
      <point x="664" y="565.5" type="curve" smooth="yes"/>
      <point x="645.333" y="585.833"/>
      <point x="620.333" y="596"/>
      <point x="589" y="596" type="curve" smooth="yes"/>
      <point x="185" y="596" type="line"/>
      <point x="185" y="681" type="line"/>
      <point x="215.667" y="687.667"/>
      <point x="259" y="693.833"/>
      <point x="315" y="699.5" type="curve" smooth="yes"/>
      <point x="371" y="705.167"/>
      <point x="413" y="708"/>
      <point x="441" y="708" type="curve" smooth="yes"/>
      <point x="483" y="708"/>
      <point x="483" y="708"/>
      <point x="489" y="708" type="curve" smooth="yes"/>
      <point x="589" y="708" type="line" smooth="yes"/>
      <point x="647.667" y="708"/>
      <point x="697.333" y="691"/>
      <point x="738" y="657" type="curve" smooth="yes"/>
      <point x="782" y="619.667"/>
      <point x="804" y="560.333"/>
      <point x="804" y="479" type="curve" smooth="yes"/>
      <point x="804" y="22" type="line" smooth="yes"/>
      <point x="804" y="-52"/>
      <point x="786.833" y="-107.5"/>
      <point x="752.5" y="-144.5" type="curve" smooth="yes"/>
      <point x="718.167" y="-181.5"/>
      <point x="665.333" y="-200"/>
      <point x="594" y="-200" type="curve" smooth="yes"/>
      <point x="256" y="-200" type="line" smooth="yes"/>
      <point x="194.667" y="-200"/>
      <point x="145" y="-182.833"/>
      <point x="107" y="-148.5" type="curve" smooth="yes"/>
      <point x="69" y="-114.167"/>
      <point x="50" y="-61"/>
      <point x="50" y="11" type="curve" smooth="yes"/>
      <point x="50" y="315" type="line" smooth="yes"/>
      <point x="50" y="411.667"/>
      <point x="89.6667" y="473"/>
      <point x="169" y="499" type="curve" smooth="yes"/>
      <point x="194.333" y="507.667"/>
      <point x="223.333" y="512"/>
    </contour>
    <contour>
      <point x="394" y="103" type="curve" smooth="yes"/>
      <point x="395" y="103"/>
      <point x="395" y="103"/>
      <point x="395.5" y="103" type="curve" smooth="yes"/>
      <point x="396" y="103"/>
      <point x="396" y="103"/>
      <point x="397" y="103" type="curve" smooth="yes"/>
      <point x="442.333" y="103"/>
      <point x="480.333" y="117.667"/>
      <point x="511" y="147" type="curve"/>
      <point x="511" y="226" type="line"/>
      <point x="392" y="215" type="line" smooth="yes"/>
      <point x="362.667" y="212.333"/>
      <point x="348" y="197"/>
      <point x="348" y="169" type="curve" smooth="yes"/>
      <point x="348" y="168"/>
      <point x="348" y="168"/>
      <point x="348" y="155.5" type="curve" smooth="yes"/>
      <point x="348" y="143"/>
      <point x="348" y="143"/>
      <point x="348" y="142" type="curve" smooth="yes"/>
      <point x="348" y="131.333"/>
      <point x="352.167" y="122.167"/>
      <point x="360.5" y="114.5" type="curve" smooth="yes"/>
      <point x="368.833" y="106.833"/>
      <point x="380" y="103"/>
    </contour>
  </outline>
</glyph>
<glyph name="A" format="1">
  <advance width="692"/>
  <unicode hex="0041"/>
  <outline>
    <contour>
      <point x="34" y="0" type="line"/>
      <point x="281" y="732" type="line"/>
      <point x="440.25" y="732" type="line"/>
      <point x="678" y="0" type="line"/>
      <point x="528.95" y="0" type="line"/>
      <point x="476.95" y="162.2" type="line"/>
      <point x="237.2" y="162.2" type="line"/>
      <point x="184.4" y="0" type="line"/>
    </contour>
    <contour>
      <point x="273.55" y="286.25" type="line"/>
      <point x="443.8" y="286.25" type="line"/>
      <point x="361.55" y="547.5" type="line"/>
    </contour>
  </outline>
</glyph>
<glyph name="B" format="1">
  <advance width="604"/>
  <unicode hex="0042"/>
  <outline>
    <contour>
      <point x="60.75" y="0" type="line"/>
      <point x="60.75" y="732" type="line"/>
      <point x="362.55" y="732" type="line" smooth="yes"/>
      <point x="514.05" y="732"/>
      <point x="569.05" y="641.6"/>
      <point x="569.05" y="536.5" type="curve" smooth="yes"/>
      <point x="569.05" y="469.1"/>
      <point x="540.35" y="393.199"/>
      <point x="468.8" y="379.999" type="curve"/>
      <point x="529.85" y="368.899"/>
      <point x="580.75" y="308.1"/>
      <point x="580.75" y="215" type="curve" smooth="yes"/>
      <point x="580.75" y="78.9004"/>
      <point x="519.3" y="0"/>
      <point x="365.3" y="0" type="curve" smooth="yes"/>
    </contour>
    <contour>
      <point x="201.2" y="123.5" type="line"/>
      <point x="359.8" y="123.499" type="line" smooth="yes"/>
      <point x="402.3" y="123.499"/>
      <point x="440.75" y="143.649"/>
      <point x="440.75" y="221.399" type="curve" smooth="yes"/>
      <point x="440.75" y="275.05"/>
      <point x="419.05" y="324"/>
      <point x="359.8" y="324" type="curve" smooth="yes"/>
      <point x="201.2" y="324" type="line"/>
    </contour>
    <contour>
      <point x="201.2" y="441.999" type="line"/>
      <point x="354.3" y="441.999" type="line" smooth="yes"/>
      <point x="404.55" y="441.999"/>
      <point x="431.25" y="472.649"/>
      <point x="431.25" y="524.949" type="curve" smooth="yes"/>
      <point x="431.25" y="592.799"/>
      <point x="389.8" y="608.499"/>
      <point x="354.3" y="608.499" type="curve" smooth="yes"/>
      <point x="201.2" y="608.499" type="line"/>
    </contour>
  </outline>
</glyph>
<glyph name="C" format="1">
  <advance width="571"/>
  <unicode hex="0043"/>
  <outline>
    <contour>
      <point x="41.7998" y="368" type="curve" smooth="yes"/>
      <point x="41.7998" y="602"/>
      <point x="91.75" y="740"/>
      <point x="290.75" y="740" type="curve" smooth="yes"/>
      <point x="393.35" y="740"/>
      <point x="466.949" y="730.2"/>
      <point x="545.749" y="706.75" type="curve"/>
      <point x="545.749" y="597.15" type="line" smooth="yes"/>
      <point x="544.749" y="597.15"/>
      <point x="421.799" y="611"/>
      <point x="323.749" y="611" type="curve" smooth="yes"/>
      <point x="221.299" y="611"/>
      <point x="181.799" y="587.55"/>
      <point x="181.799" y="366" type="curve" smooth="yes"/>
      <point x="181.799" y="202"/>
      <point x="208.898" y="123"/>
      <point x="324.299" y="123" type="curve" smooth="yes"/>
      <point x="429.299" y="123"/>
      <point x="545.749" y="131.1"/>
      <point x="545.749" y="131.1" type="curve"/>
      <point x="545.749" y="21.5" type="line"/>
      <point x="480.149" y="1.34961"/>
      <point x="395.55" y="-7.65039"/>
      <point x="290.75" y="-6" type="curve" smooth="yes"/>
      <point x="105.75" y="-4.34961"/>
      <point x="41.7998" y="135.95"/>
    </contour>
  </outline>
</glyph>
<glyph name="D" format="1">
  <advance width="662"/>
  <unicode hex="0044"/>
  <outline>
    <contour>
      <point x="60.75" y="0" type="line"/>
      <point x="60.75" y="732" type="line"/>
      <point x="371.8" y="732" type="line" smooth="yes"/>
      <point x="582.5" y="732"/>
      <point x="625.75" y="544.35"/>
      <point x="625.75" y="363" type="curve" smooth="yes"/>
      <point x="625.75" y="147.5"/>
      <point x="550.5" y="0"/>
      <point x="371.8" y="0" type="curve" smooth="yes"/>
    </contour>
    <contour>
      <point x="200.75" y="124.85" type="line"/>
      <point x="360.8" y="124.851" type="line" smooth="yes"/>
      <point x="451.55" y="124.851"/>
      <point x="485.75" y="217.15"/>
      <point x="485.75" y="364" type="curve" smooth="yes"/>
      <point x="485.75" y="559.85"/>
      <point x="438.85" y="608.5"/>
      <point x="360.8" y="608.5" type="curve" smooth="yes"/>
      <point x="200.75" y="608.5" type="line"/>
    </contour>
  </outline>
</glyph>
<glyph name="E" format="1">
  <advance width="567"/>
  <unicode hex="0045"/>
  <outline>
    <contour>
      <point x="58" y="143.9" type="curve" smooth="yes"/>
      <point x="58.001" y="580" type="line" smooth="yes"/>
      <point x="58.001" y="707.025"/>
      <point x="147.966" y="733.351"/>
      <point x="217.001" y="732.001" type="curve" smooth="yes"/>
      <point x="217.001" y="732.001"/>
      <point x="474.701" y="724.801"/>
      <point x="539.051" y="716.001" type="curve"/>
      <point x="539.051" y="600.251" type="line"/>
      <point x="250.001" y="600.251" type="line" smooth="yes"/>
      <point x="198.001" y="600.251"/>
      <point x="198.001" y="571.251"/>
      <point x="198.001" y="544.251" type="curve" smooth="yes"/>
      <point x="198.001" y="430.051" type="line"/>
      <point x="493.551" y="419.501" type="line"/>
      <point x="493.551" y="304.401" type="line"/>
      <point x="198.001" y="294.951" type="line"/>
      <point x="198.001" y="180.751" type="line" smooth="yes"/>
      <point x="198.451" y="127.751"/>
      <point x="231.001" y="128.751"/>
      <point x="260.001" y="128.751" type="curve" smooth="yes"/>
      <point x="539.051" y="128.751" type="line"/>
      <point x="539.051" y="14.001" type="line"/>
      <point x="482.4" y="6.30078"/>
      <point x="227" y="-2.99902"/>
      <point x="227" y="-2.99902" type="curve" smooth="yes"/>
      <point x="161.715" y="-5.89941"/>
      <point x="58" y="8.90039"/>
    </contour>
  </outline>
</glyph>
<glyph name="F" format="1">
  <advance width="567"/>
  <unicode hex="0046"/>
  <outline>
    <contour>
      <point x="58" y="0" type="line"/>
      <point x="58" y="577.8" type="line" smooth="yes"/>
      <point x="58" y="697.25"/>
      <point x="140.265" y="733.9"/>
      <point x="217" y="732" type="curve" smooth="yes"/>
      <point x="217" y="732"/>
      <point x="474.7" y="724.8"/>
      <point x="539.05" y="716" type="curve"/>
      <point x="539.05" y="600.25" type="line"/>
      <point x="250" y="600.25" type="line" smooth="yes"/>
      <point x="198" y="600.25"/>
      <point x="198" y="571.25"/>
      <point x="198" y="544.25" type="curve" smooth="yes"/>
      <point x="198" y="430.05" type="line"/>
      <point x="493.55" y="419.5" type="line"/>
      <point x="493.55" y="304.4" type="line"/>
      <point x="198" y="294.95" type="line"/>
      <point x="198" y="0" type="line"/>
    </contour>
  </outline>
</glyph>
<glyph name="G" format="1">
  <advance width="614"/>
  <unicode hex="0047"/>
  <outline>
    <contour>
      <point x="41.7998" y="370" type="curve" smooth="yes"/>
      <point x="41.7998" y="582.65"/>
      <point x="81.75" y="740"/>
      <point x="280.75" y="740" type="curve" smooth="yes"/>
      <point x="391.6" y="740"/>
      <point x="456.5" y="733.7"/>
      <point x="562.25" y="707.5" type="curve"/>
      <point x="562.25" y="599" type="line"/>
      <point x="556.25" y="599"/>
      <point x="428.15" y="616.5"/>
      <point x="313.75" y="616.5" type="curve" smooth="yes"/>
      <point x="203.2" y="616.5"/>
      <point x="181.8" y="548.55"/>
      <point x="181.8" y="368" type="curve" smooth="yes"/>
      <point x="181.8" y="177.9"/>
      <point x="203.55" y="126.65"/>
      <point x="307.3" y="125.75" type="curve" smooth="yes"/>
      <point x="375.6" y="125.3"/>
      <point x="433.3" y="171.75"/>
      <point x="433.3" y="171.75" type="curve"/>
      <point x="433.3" y="303" type="line"/>
      <point x="330.75" y="303" type="line"/>
      <point x="330.75" y="391.5" type="line"/>
      <point x="373.5" y="409.65"/>
      <point x="432.55" y="416.5"/>
      <point x="505.3" y="416.5" type="curve" smooth="yes"/>
      <point x="526.3" y="416.5"/>
      <point x="549.3" y="415.5"/>
      <point x="573.3" y="413.5" type="curve"/>
      <point x="573.3" y="0" type="line"/>
      <point x="472.75" y="0" type="line"/>
      <point x="435.3" y="49" type="line"/>
      <point x="402.8" y="19.2002"/>
      <point x="364.3" y="-2.25"/>
      <point x="279.8" y="-5" type="curve" smooth="yes"/>
      <point x="72.7998" y="-13.0498"/>
      <point x="41.7998" y="161.3"/>
    </contour>
  </outline>
</glyph>
<glyph name="H" format="1">
  <advance width="636"/>
  <unicode hex="0048"/>
  <outline>
    <contour>
      <point x="60.75" y="0" type="line"/>
      <point x="60.75" y="732" type="line"/>
      <point x="200.75" y="732" type="line"/>
      <point x="200.75" y="418.5" type="line"/>
      <point x="451.75" y="418.5" type="line"/>
      <point x="451.75" y="732" type="line"/>
      <point x="591.75" y="732" type="line"/>
      <point x="591.75" y="0" type="line"/>
      <point x="451.75" y="0" type="line"/>
      <point x="451.75" y="289.5" type="line"/>
      <point x="200.75" y="289.5" type="line"/>
      <point x="200.75" y="0" type="line"/>
    </contour>
  </outline>
</glyph>
<glyph name="I" format="1">
  <advance width="245"/>
  <unicode hex="0049"/>
  <outline>
    <contour>
      <point x="60.75" y="0" type="line"/>
      <point x="60.75" y="732" type="line"/>
      <point x="200.75" y="732" type="line"/>
      <point x="200.75" y="0" type="line"/>
    </contour>
  </outline>
</glyph>
<glyph name="J" format="1">
  <advance width="356"/>
  <unicode hex="004A"/>
  <outline>
    <contour>
      <point x="26.75" y="23.2002" type="curve"/>
      <point x="28.5498" y="132.199" type="line"/>
      <point x="119.6" y="124.1"/>
      <point x="171.199" y="121.149"/>
      <point x="171.649" y="226.05" type="curve" smooth="yes"/>
      <point x="171.649" y="732" type="line"/>
      <point x="311.649" y="732" type="line"/>
      <point x="311.649" y="165" type="line" smooth="yes"/>
      <point x="311.649" y="118"/>
      <point x="308.55" y="50"/>
      <point x="258.55" y="18" type="curve" smooth="yes"/>
      <point x="205.55" y="-16"/>
      <point x="78.75" y="-10.7998"/>
    </contour>
  </outline>
</glyph>
<glyph name="K" format="1">
  <advance width="628"/>
  <unicode hex="004B"/>
  <outline>
    <contour>
      <point x="60.75" y="0" type="line"/>
      <point x="60.75" y="732" type="line"/>
      <point x="195.25" y="732" type="line"/>
      <point x="195.25" y="426" type="line"/>
      <point x="254.15" y="426" type="line"/>
      <point x="439.601" y="732" type="line"/>
      <point x="602.751" y="732" type="line"/>
      <point x="378.801" y="365.35" type="line"/>
      <point x="602.751" y="0" type="line"/>
      <point x="439.601" y="0" type="line"/>
      <point x="254.15" y="302.5" type="line"/>
      <point x="196.25" y="302.5" type="line"/>
      <point x="196.25" y="0" type="line"/>
    </contour>
  </outline>
</glyph>
<glyph name="L" format="1">
  <advance width="539"/>
  <unicode hex="004C"/>
  <outline>
    <contour>
      <point x="60.75" y="142.5" type="curve" smooth="yes"/>
      <point x="60.75" y="732" type="line"/>
      <point x="200.75" y="732" type="line"/>
      <point x="200.75" y="181" type="line" smooth="yes"/>
      <point x="200.75" y="128"/>
      <point x="233.75" y="129"/>
      <point x="262.75" y="129" type="curve" smooth="yes"/>
      <point x="513.75" y="129" type="line"/>
      <point x="513.75" y="0" type="line"/>
      <point x="213.25" y="0" type="line" smooth="yes"/>
      <point x="133.5" y="0"/>
      <point x="60.75" y="29.5"/>
    </contour>
  </outline>
</glyph>
<glyph name="M" format="1">
  <advance width="847"/>
  <unicode hex="004D"/>
  <outline>
    <contour>
      <point x="41.7998" y="0" type="line"/>
      <point x="106.299" y="732" type="line"/>
      <point x="300.699" y="732" type="line"/>
      <point x="422.549" y="231.9" type="line"/>
      <point x="543.898" y="732" type="line"/>
      <point x="737.849" y="732" type="line"/>
      <point x="806.499" y="0" type="line"/>
      <point x="668.149" y="-0" type="line"/>
      <point x="620.399" y="488.55" type="line"/>
      <point x="502.249" y="0" type="line"/>
      <point x="345.949" y="-0" type="line"/>
      <point x="223.449" y="488.55" type="line"/>
      <point x="180.149" y="0" type="line"/>
    </contour>
  </outline>
</glyph>
<glyph name="N" format="1">
  <advance width="678"/>
  <unicode hex="004E"/>
  <outline>
    <contour>
      <point x="60.75" y="0" type="line"/>
      <point x="60.75" y="732" type="line"/>
      <point x="202.75" y="732" type="line"/>
      <point x="493.2" y="259" type="line"/>
      <point x="493.2" y="732" type="line"/>
      <point x="633.2" y="732" type="line"/>
      <point x="633.2" y="0" type="line"/>
      <point x="493.2" y="0" type="line"/>
      <point x="201.75" y="467.5" type="line"/>
      <point x="201.75" y="0" type="line"/>
    </contour>
  </outline>
</glyph>
<glyph name="O" format="1">
  <advance width="671"/>
  <unicode hex="004F"/>
  <outline>
    <contour>
      <point x="49.5996" y="361" type="curve" smooth="yes"/>
      <point x="49.5996" y="704"/>
      <point x="176.05" y="737"/>
      <point x="344.05" y="737" type="curve" smooth="yes"/>
      <point x="517.05" y="737"/>
      <point x="637.6" y="704"/>
      <point x="637.6" y="361" type="curve" smooth="yes"/>
      <point x="637.6" y="38"/>
      <point x="524.05" y="-4"/>
      <point x="344.05" y="-4" type="curve" smooth="yes"/>
      <point x="164.05" y="-4"/>
      <point x="49.5996" y="28"/>
    </contour>
    <contour>
      <point x="189.6" y="361" type="curve" smooth="yes"/>
      <point x="189.6" y="161.2"/>
      <point x="219.05" y="125"/>
      <point x="344.05" y="125" type="curve" smooth="yes"/>
      <point x="461.55" y="125"/>
      <point x="497.6" y="163.7"/>
      <point x="497.6" y="361" type="curve" smooth="yes"/>
      <point x="497.6" y="589.05"/>
      <point x="455.3" y="608"/>
      <point x="344.05" y="608" type="curve" smooth="yes"/>
      <point x="235.8" y="608"/>
      <point x="189.6" y="594"/>
    </contour>
  </outline>
</glyph>
<glyph name="P" format="1">
  <advance width="602"/>
  <unicode hex="0050"/>
  <outline>
    <contour>
      <point x="51.2002" y="0" type="line"/>
      <point x="51.2002" y="732" type="line"/>
      <point x="365.95" y="732" type="line" smooth="yes"/>
      <point x="457.601" y="732"/>
      <point x="569.001" y="703.4"/>
      <point x="569.001" y="506.25" type="curve" smooth="yes"/>
      <point x="569.001" y="282.95"/>
      <point x="449.851" y="266.65"/>
      <point x="365.95" y="270.5" type="curve" smooth="yes"/>
      <point x="325.95" y="272.15"/>
      <point x="196.2" y="287.5"/>
      <point x="191.2" y="290.5" type="curve"/>
      <point x="191.2" y="0" type="line"/>
    </contour>
    <contour>
      <point x="191.2" y="394" type="line"/>
      <point x="354.951" y="393.999" type="line" smooth="yes"/>
      <point x="399.251" y="393.999"/>
      <point x="428.001" y="416.699"/>
      <point x="428.001" y="504.6" type="curve" smooth="yes"/>
      <point x="427.101" y="591.05"/>
      <point x="389.95" y="607.5"/>
      <point x="354.95" y="607.5" type="curve" smooth="yes"/>
      <point x="191.2" y="607.5" type="line"/>
    </contour>
  </outline>
</glyph>
<glyph name="Q" format="1">
  <advance width="671"/>
  <unicode hex="0051"/>
  <outline>
    <contour>
      <point x="49.5996" y="361" type="curve" smooth="yes"/>
      <point x="49.5996" y="704"/>
      <point x="173.35" y="737"/>
      <point x="343.149" y="737" type="curve" smooth="yes"/>
      <point x="516.149" y="737"/>
      <point x="637.6" y="704"/>
      <point x="637.6" y="361" type="curve" smooth="yes"/>
      <point x="637.6" y="38"/>
      <point x="523.149" y="-2.90039"/>
      <point x="343.149" y="-4" type="curve" smooth="yes"/>
      <point x="163.149" y="-4"/>
      <point x="49.5996" y="28"/>
    </contour>
    <contour>
      <point x="189.6" y="361" type="curve" smooth="yes"/>
      <point x="189.6" y="161.2"/>
      <point x="218.149" y="125"/>
      <point x="343.149" y="125" type="curve" smooth="yes"/>
      <point x="460.649" y="125"/>
      <point x="497.6" y="163.7"/>
      <point x="497.6" y="361" type="curve" smooth="yes"/>
      <point x="497.6" y="589.05"/>
      <point x="454.399" y="608"/>
      <point x="343.149" y="608" type="curve" smooth="yes"/>
      <point x="234.899" y="608"/>
      <point x="189.6" y="594"/>
    </contour>
    <contour>
      <point x="299.949" y="-33" type="curve"/>
      <point x="379.449" y="-33" type="line"/>
      <point x="410.649" y="-86.3496"/>
      <point x="482.85" y="-77.2998"/>
      <point x="541.949" y="-61.25" type="curve"/>
      <point x="541.949" y="-174.25" type="line"/>
      <point x="441.35" y="-196.3"/>
      <point x="307.699" y="-161.05"/>
    </contour>
  </outline>
</glyph>
<glyph name="R" format="1">
  <advance width="607"/>
  <unicode hex="0052"/>
  <outline>
    <contour>
      <point x="51.2002" y="0" type="line"/>
      <point x="51.2012" y="732" type="line"/>
      <point x="371.451" y="732" type="line" smooth="yes"/>
      <point x="485.701" y="732"/>
      <point x="570.701" y="678.55"/>
      <point x="570.701" y="503.75" type="curve" smooth="yes"/>
      <point x="570.701" y="322.55"/>
      <point x="494.801" y="301.05"/>
      <point x="454.15" y="288.25" type="curve"/>
      <point x="592.75" y="0" type="line"/>
      <point x="435.2" y="0" type="line"/>
      <point x="314.2" y="277" type="line"/>
      <point x="191.2" y="291" type="line"/>
      <point x="191.2" y="0" type="line"/>
    </contour>
    <contour>
      <point x="191.751" y="401" type="line"/>
      <point x="357.701" y="401" type="line" smooth="yes"/>
      <point x="406.451" y="401"/>
      <point x="429.701" y="415.3"/>
      <point x="429.701" y="503.75" type="curve" smooth="yes"/>
      <point x="429.701" y="586.9"/>
      <point x="401.701" y="607.5"/>
      <point x="357.701" y="607.5" type="curve" smooth="yes"/>
      <point x="191.751" y="607.5" type="line"/>
    </contour>
  </outline>
</glyph>
<glyph name="S" format="1">
  <advance width="590"/>
  <unicode hex="0053"/>
  <outline>
    <contour>
      <point x="49.5996" y="485.75" type="curve" smooth="yes"/>
      <point x="49.5996" y="548.999" type="line" smooth="yes"/>
      <point x="49.5996" y="693.999"/>
      <point x="135.6" y="736.349"/>
      <point x="247.6" y="737.999" type="curve" smooth="yes"/>
      <point x="352.85" y="740.199"/>
      <point x="472.8" y="726.149"/>
      <point x="530.6" y="709.05" type="curve"/>
      <point x="530.6" y="599" type="line"/>
      <point x="466.6" y="604.65"/>
      <point x="322.399" y="609"/>
      <point x="286.1" y="609" type="curve" smooth="yes"/>
      <point x="224.899" y="610.35"/>
      <point x="189.6" y="606.1"/>
      <point x="189.6" y="538" type="curve" smooth="yes"/>
      <point x="189.6" y="502.25" type="line" smooth="yes"/>
      <point x="189.6" y="444.25"/>
      <point x="211.8" y="431.75"/>
      <point x="268.5" y="431.75" type="curve" smooth="yes"/>
      <point x="384.1" y="431.75" type="line" smooth="yes"/>
      <point x="527.55" y="431.75"/>
      <point x="557.149" y="318.65"/>
      <point x="557.149" y="237.75" type="curve" smooth="yes"/>
      <point x="557.149" y="189" type="line" smooth="yes"/>
      <point x="557.149" y="22.7998"/>
      <point x="453.6" y="-8"/>
      <point x="354.6" y="-8" type="curve" smooth="yes"/>
      <point x="229.699" y="-8"/>
      <point x="147.85" y="-0.349609"/>
      <point x="72.1494" y="21.9502" type="curve"/>
      <point x="72.1494" y="132" type="line"/>
      <point x="112.149" y="128"/>
      <point x="234.1" y="121"/>
      <point x="327.1" y="121" type="curve" smooth="yes"/>
      <point x="369.199" y="121"/>
      <point x="417.149" y="127.95"/>
      <point x="417.149" y="184.05" type="curve" smooth="yes"/>
      <point x="417.149" y="223.45" type="line" smooth="yes"/>
      <point x="417.149" y="265.05"/>
      <point x="404.55" y="291.75"/>
      <point x="351.1" y="291.75" type="curve" smooth="yes"/>
      <point x="238.6" y="291.75" type="line" smooth="yes"/>
      <point x="62.0996" y="291.75"/>
      <point x="49.5996" y="422.1"/>
    </contour>
  </outline>
</glyph>
<glyph name="T" format="1">
  <advance width="593"/>
  <unicode hex="0054"/>
  <outline>
    <contour>
      <point x="31.25" y="603" type="line"/>
      <point x="31.25" y="732" type="line"/>
      <point x="572.25" y="732" type="line"/>
      <point x="572.25" y="603" type="line"/>
      <point x="368.75" y="603" type="line"/>
      <point x="368.75" y="0" type="line"/>
      <point x="228.75" y="0" type="line"/>
      <point x="228.75" y="603" type="line"/>
    </contour>
  </outline>
</glyph>
<glyph name="U" format="1">
  <advance width="664"/>
  <unicode hex="0055"/>
  <outline>
    <contour>
      <point x="60.75" y="320" type="curve" smooth="yes"/>
      <point x="60.75" y="732" type="line"/>
      <point x="200.75" y="732" type="line"/>
      <point x="200.75" y="320" type="line" smooth="yes"/>
      <point x="200.75" y="152.65"/>
      <point x="237.85" y="124"/>
      <point x="342.75" y="124" type="curve" smooth="yes"/>
      <point x="436.25" y="124"/>
      <point x="478.75" y="158.45"/>
      <point x="478.75" y="320" type="curve" smooth="yes"/>
      <point x="478.75" y="732" type="line"/>
      <point x="619.75" y="732" type="line"/>
      <point x="619.75" y="320" type="line" smooth="yes"/>
      <point x="619.75" y="-3"/>
      <point x="463.75" y="-5"/>
      <point x="342.75" y="-5" type="curve" smooth="yes"/>
      <point x="206.75" y="-5"/>
      <point x="60.75" y="-13"/>
    </contour>
  </outline>
</glyph>
<glyph name="V" format="1">
  <advance width="685"/>
  <unicode hex="0056"/>
  <outline>
    <contour>
      <point x="34" y="732" type="line"/>
      <point x="182.65" y="732" type="line"/>
      <point x="345.5" y="184" type="line"/>
      <point x="518.35" y="732" type="line"/>
      <point x="667" y="732" type="line"/>
      <point x="425.5" y="0" type="line"/>
      <point x="263.5" y="0" type="line"/>
    </contour>
  </outline>
</glyph>
<glyph name="W" format="1">
  <advance width="992"/>
  <unicode hex="0057"/>
  <outline>
    <contour>
      <point x="34" y="732" type="line"/>
      <point x="182.649" y="732" type="line"/>
      <point x="345.05" y="188.95" type="line"/>
      <point x="476.55" y="732" type="line"/>
      <point x="626.55" y="732" type="line"/>
      <point x="575.6" y="543.1" type="line"/>
      <point x="691.55" y="186.25" type="line"/>
      <point x="825.75" y="732" type="line"/>
      <point x="974.4" y="732" type="line"/>
      <point x="772.9" y="0" type="line"/>
      <point x="610.9" y="0" type="line"/>
      <point x="512.4" y="299.75" type="line"/>
      <point x="425.5" y="0" type="line"/>
      <point x="263.5" y="0" type="line"/>
    </contour>
  </outline>
</glyph>
<glyph name="X" format="1">
  <advance width="641"/>
  <unicode hex="0058"/>
  <outline>
    <contour>
      <point x="34" y="732" type="line"/>
      <point x="188.7" y="732" type="line"/>
      <point x="327.45" y="482.2" type="line"/>
      <point x="468" y="732" type="line"/>
      <point x="622.7" y="732" type="line"/>
      <point x="402.851" y="366.6" type="line"/>
      <point x="617.7" y="0" type="line"/>
      <point x="463" y="0" type="line"/>
      <point x="327.45" y="246.4" type="line"/>
      <point x="191.7" y="0" type="line"/>
      <point x="37" y="-0" type="line"/>
      <point x="251.5" y="366.6" type="line"/>
    </contour>
  </outline>
</glyph>
<glyph name="Y" format="1">
  <advance width="656"/>
  <unicode hex="0059"/>
  <outline>
    <contour>
      <point x="34" y="732" type="line"/>
      <point x="186.5" y="732" type="line"/>
      <point x="329.3" y="381" type="line"/>
      <point x="485.5" y="732" type="line"/>
      <point x="638" y="732" type="line"/>
      <point x="397.1" y="227" type="line"/>
      <point x="397.1" y="0" type="line"/>
      <point x="257.1" y="0" type="line"/>
      <point x="257.1" y="227" type="line"/>
    </contour>
  </outline>
</glyph>
<glyph name="Z" format="1">
  <advance width="556"/>
  <unicode hex="005A"/>
  <outline>
    <contour>
      <point x="26.75" y="0" type="line"/>
      <point x="26.75" y="129" type="line"/>
      <point x="362.25" y="603" type="line"/>
      <point x="26.75" y="603" type="line"/>
      <point x="26.75" y="732" type="line"/>
      <point x="530.75" y="732" type="line"/>
      <point x="530.75" y="603" type="line"/>
      <point x="211.75" y="129" type="line"/>
      <point x="530.75" y="129" type="line"/>
      <point x="530.75" y="0" type="line"/>
    </contour>
  </outline>
</glyph>
<glyph name="bracketleft" format="1">
  <advance width="333"/>
  <unicode hex="005B"/>
  <outline>
    <contour>
      <point x="64.6504" y="-10.5" type="curve" smooth="yes"/>
      <point x="64.6504" y="653.5" type="line" smooth="yes"/>
      <point x="64.6504" y="753.1"/>
      <point x="102.75" y="842"/>
      <point x="233.65" y="842" type="curve" smooth="yes"/>
      <point x="319.15" y="842" type="line"/>
      <point x="319.15" y="724" type="line"/>
      <point x="266.65" y="724" type="line" smooth="yes"/>
      <point x="228.65" y="724"/>
      <point x="204.65" y="697"/>
      <point x="204.65" y="637" type="curve" smooth="yes"/>
      <point x="204.65" y="-5" type="line" smooth="yes"/>
      <point x="204.65" y="-65"/>
      <point x="228.65" y="-92"/>
      <point x="266.65" y="-92" type="curve" smooth="yes"/>
      <point x="319.15" y="-92" type="line"/>
      <point x="319.15" y="-210" type="line"/>
      <point x="233.65" y="-210" type="line" smooth="yes"/>
      <point x="86.25" y="-210"/>
      <point x="64.6504" y="-91.4004"/>
    </contour>
  </outline>
</glyph>
<glyph name="bracketright" format="1">
  <advance width="333"/>
  <unicode hex="005D"/>
  <outline>
    <contour>
      <point x="15.0498" y="-92" type="line"/>
      <point x="67.5498" y="-92" type="line" smooth="yes"/>
      <point x="105.55" y="-92"/>
      <point x="129.55" y="-65"/>
      <point x="129.55" y="-5" type="curve" smooth="yes"/>
      <point x="129.55" y="637" type="line" smooth="yes"/>
      <point x="129.55" y="697"/>
      <point x="105.55" y="724"/>
      <point x="67.5498" y="724" type="curve" smooth="yes"/>
      <point x="15.0498" y="724" type="line"/>
      <point x="15.0498" y="842" type="line"/>
      <point x="100.55" y="842" type="line" smooth="yes"/>
      <point x="231.45" y="842"/>
      <point x="269.55" y="753.1"/>
      <point x="269.55" y="653.5" type="curve" smooth="yes"/>
      <point x="269.55" y="-10.5" type="line" smooth="yes"/>
      <point x="269.55" y="-91.4004"/>
      <point x="247.95" y="-210"/>
      <point x="100.55" y="-210" type="curve" smooth="yes"/>
      <point x="15.0498" y="-210" type="line"/>
    </contour>
  </outline>
</glyph>
<glyph name="asciicircum" format="1">
  <advance width="384"/>
  <unicode hex="005E"/>
  <outline>
    <contour>
      <point x="37.9004" y="531" type="line"/>
      <point x="145.551" y="666.5" type="line"/>
      <point x="249.551" y="666.5" type="line"/>
      <point x="346.4" y="531" type="line"/>
      <point x="253.4" y="531" type="line"/>
      <point x="194.95" y="591" type="line"/>
      <point x="131.9" y="531" type="line"/>
    </contour>
    <contour>
      <point x="249.551" y="666.5" type="move" smooth="yes"/>
    </contour>
  </outline>
</glyph>
<glyph name="grave" format="1">
  <advance width="243"/>
  <unicode hex="0060"/>
  <outline>
    <contour>
      <point x="15" y="670" type="line"/>
      <point x="138" y="670" type="line"/>
      <point x="228" y="531" type="line"/>
      <point x="137" y="531" type="line"/>
    </contour>
  </outline>
</glyph>
<glyph name="a" format="1">
  <advance width="519"/>
  <unicode hex="0061"/>
  <outline>
    <contour>
      <point x="30.0996" y="135.35" type="curve" smooth="yes"/>
      <point x="30.1006" y="185.348" type="line" smooth="yes"/>
      <point x="30.1006" y="262.598"/>
      <point x="71.8506" y="330.998"/>
      <point x="185.65" y="330.998" type="curve" smooth="yes"/>
      <point x="185.65" y="330.998"/>
      <point x="341.65" y="329.998"/>
      <point x="341.65" y="330.998" type="curve" smooth="yes"/>
      <point x="341.65" y="330.998"/>
      <point x="342.65" y="363.998"/>
      <point x="341.65" y="364.998" type="curve" smooth="yes"/>
      <point x="341.65" y="421.598"/>
      <point x="315.15" y="430.498"/>
      <point x="270.65" y="430.498" type="curve" smooth="yes"/>
      <point x="224.5" y="430.498"/>
      <point x="91.2998" y="422.198"/>
      <point x="47.6494" y="419.048" type="curve"/>
      <point x="47.6494" y="505.498" type="line"/>
      <point x="117.55" y="532.648"/>
      <point x="190.6" y="540.549"/>
      <point x="289.6" y="540.999" type="curve" smooth="yes"/>
      <point x="403.949" y="541.449"/>
      <point x="481.649" y="501.949"/>
      <point x="481.649" y="370.499" type="curve" smooth="yes"/>
      <point x="481.649" y="-0.000976562" type="line"/>
      <point x="371.1" y="-0.000976562" type="line"/>
      <point x="341.649" y="58.499" type="line"/>
      <point x="335.8" y="46.9492"/>
      <point x="261.25" y="-7.65039"/>
      <point x="180.15" y="-6" type="curve" smooth="yes"/>
      <point x="78" y="-3.25"/>
      <point x="30.0996" y="66.2998"/>
    </contour>
    <contour>
      <point x="170.101" y="155.197" type="line" smooth="yes"/>
      <point x="170.101" y="111.047"/>
      <point x="194.001" y="106.498"/>
      <point x="219.751" y="106.498" type="curve" smooth="yes"/>
      <point x="278.301" y="106.498"/>
      <point x="341.65" y="147.598"/>
      <point x="341.65" y="147.598" type="curve"/>
      <point x="341.65" y="244.947" type="line"/>
      <point x="213.15" y="234.997" type="line" smooth="yes"/>
      <point x="176.2" y="231.547"/>
      <point x="170.101" y="204.197"/>
      <point x="170.101" y="180.997" type="curve" smooth="yes"/>
    </contour>
  </outline>
</glyph>
<glyph name="b" format="1">
  <advance width="556"/>
  <unicode hex="0062"/>
  <outline>
    <contour>
      <point x="45.7002" y="0" type="line"/>
      <point x="45.7012" y="785" type="line"/>
      <point x="184.801" y="785" type="line"/>
      <point x="184.801" y="504.5" type="line"/>
      <point x="233.4" y="526.65"/>
      <point x="301.051" y="539"/>
      <point x="346.051" y="539" type="curve" smooth="yes"/>
      <point x="493.201" y="539"/>
      <point x="519.401" y="428.15"/>
      <point x="519.401" y="263" type="curve" smooth="yes"/>
      <point x="519.401" y="101.95"/>
      <point x="476.751" y="-6"/>
      <point x="346.051" y="-6" type="curve" smooth="yes"/>
      <point x="283.001" y="-6"/>
      <point x="218.951" y="26.7998"/>
      <point x="185.801" y="53.5" type="curve"/>
      <point x="160.851" y="0" type="line"/>
    </contour>
    <contour>
      <point x="185.801" y="146.45" type="line"/>
      <point x="215.601" y="127.2"/>
      <point x="257.151" y="113.649"/>
      <point x="309.751" y="113.649" type="curve" smooth="yes"/>
      <point x="354.951" y="113.649"/>
      <point x="379.401" y="150.05"/>
      <point x="379.401" y="268.5" type="curve" smooth="yes"/>
      <point x="379.401" y="404"/>
      <point x="353.951" y="429.25"/>
      <point x="309.751" y="429.25" type="curve" smooth="yes"/>
      <point x="261.351" y="429.25"/>
      <point x="222.351" y="423.45"/>
      <point x="185.801" y="409.3" type="curve"/>
    </contour>
  </outline>
</glyph>
<glyph name="c" format="1">
  <advance width="494"/>
  <unicode hex="0063"/>
  <outline>
    <contour>
      <point x="37.9004" y="266" type="curve" smooth="yes"/>
      <point x="37.9004" y="484.8"/>
      <point x="110.9" y="536.001"/>
      <point x="212.9" y="536.001" type="curve" smooth="yes"/>
      <point x="264.9" y="536.001"/>
      <point x="369.801" y="532.901"/>
      <point x="457.4" y="504.501" type="curve"/>
      <point x="457.4" y="417.501" type="line"/>
      <point x="457.4" y="417.501"/>
      <point x="361.851" y="423.501"/>
      <point x="272.851" y="423.501" type="curve" smooth="yes"/>
      <point x="208.45" y="423.501"/>
      <point x="177.9" y="419.651"/>
      <point x="177.9" y="263.102" type="curve" smooth="yes"/>
      <point x="177.9" y="127.151"/>
      <point x="200.851" y="107.501"/>
      <point x="272.851" y="107.501" type="curve" smooth="yes"/>
      <point x="364.851" y="107.501"/>
      <point x="464.4" y="116.851"/>
      <point x="464.4" y="116.851" type="curve"/>
      <point x="464.4" y="28.9502" type="line"/>
      <point x="386.7" y="-10.5498"/>
      <point x="295.9" y="-4"/>
      <point x="212.9" y="-5" type="curve" smooth="yes"/>
      <point x="113.9" y="-5"/>
      <point x="37.9004" y="46.75"/>
    </contour>
  </outline>
</glyph>
<glyph name="d" format="1">
  <advance width="556"/>
  <unicode hex="0064"/>
  <outline>
    <contour>
      <point x="37.9004" y="263" type="curve" smooth="yes"/>
      <point x="37.9004" y="432.55"/>
      <point x="64.1016" y="539"/>
      <point x="211.252" y="539" type="curve" smooth="yes"/>
      <point x="256.252" y="539"/>
      <point x="323.452" y="526.65"/>
      <point x="372.052" y="504.5" type="curve"/>
      <point x="372.052" y="785" type="line"/>
      <point x="511.602" y="785" type="line"/>
      <point x="511.602" y="0" type="line"/>
      <point x="396.451" y="0" type="line"/>
      <point x="371.501" y="53.5" type="line"/>
      <point x="338.351" y="26.7998"/>
      <point x="274.301" y="-6"/>
      <point x="211.251" y="-6" type="curve" smooth="yes"/>
      <point x="80.5508" y="-6"/>
      <point x="37.9004" y="97.5498"/>
    </contour>
    <contour>
      <point x="177.901" y="268.5" type="curve" smooth="yes"/>
      <point x="177.901" y="150.05"/>
      <point x="202.353" y="113.65"/>
      <point x="247.553" y="113.65" type="curve" smooth="yes"/>
      <point x="300.152" y="113.65"/>
      <point x="341.702" y="127.2"/>
      <point x="371.502" y="146.45" type="curve"/>
      <point x="371.502" y="409.3" type="line"/>
      <point x="334.952" y="423.45"/>
      <point x="295.952" y="429.25"/>
      <point x="247.552" y="429.25" type="curve" smooth="yes"/>
      <point x="203.352" y="429.25"/>
      <point x="177.901" y="404"/>
    </contour>
  </outline>
</glyph>
<glyph name="e" format="1">
  <advance width="525"/>
  <unicode hex="0065"/>
  <outline>
    <contour>
      <point x="37.9004" y="268" type="curve" smooth="yes"/>
      <point x="37.9004" y="496.2"/>
      <point x="101.5" y="535"/>
      <point x="269.9" y="535" type="curve" smooth="yes"/>
      <point x="423.5" y="535"/>
      <point x="494.9" y="517.5"/>
      <point x="494.9" y="341.5" type="curve" smooth="yes"/>
      <point x="494.9" y="246.9"/>
      <point x="442.9" y="208.5"/>
      <point x="346.9" y="208.5" type="curve" smooth="yes"/>
      <point x="177.9" y="208.5" type="line"/>
      <point x="177.9" y="112.65"/>
      <point x="214.101" y="106.95"/>
      <point x="289.9" y="106.95" type="curve" smooth="yes"/>
      <point x="370.9" y="106.95"/>
      <point x="409.9" y="106.5"/>
      <point x="484.9" y="117.5" type="curve"/>
      <point x="484.9" y="23" type="line"/>
      <point x="409.95" y="-4.9502"/>
      <point x="295.9" y="-5"/>
      <point x="212.9" y="-5" type="curve" smooth="yes"/>
      <point x="77.9004" y="-5"/>
      <point x="37.9004" y="73.2002"/>
    </contour>
    <contour>
      <point x="177.9" y="309" type="curve"/>
      <point x="310.6" y="309.001" type="line" smooth="yes"/>
      <point x="339.75" y="309.001"/>
      <point x="354.9" y="323.351"/>
      <point x="354.9" y="348.65" type="curve" smooth="yes"/>
      <point x="354.9" y="415.7"/>
      <point x="345.351" y="428"/>
      <point x="278.051" y="428" type="curve" smooth="yes"/>
      <point x="204.101" y="428"/>
      <point x="176.801" y="423.7"/>
    </contour>
  </outline>
</glyph>
<glyph name="f" format="1">
  <advance width="403"/>
  <unicode hex="0066"/>
  <outline>
    <contour>
      <point x="15.0498" y="424" type="line"/>
      <point x="15.0498" y="514" type="line"/>
      <point x="98.2998" y="531" type="line"/>
      <point x="98.2998" y="630" type="line" smooth="yes"/>
      <point x="98.2998" y="720.85"/>
      <point x="134.85" y="786"/>
      <point x="254.85" y="786" type="curve" smooth="yes"/>
      <point x="303.85" y="786"/>
      <point x="345.3" y="779.75"/>
      <point x="388.8" y="762" type="curve"/>
      <point x="388.8" y="678.9" type="line" smooth="yes"/>
      <point x="387.8" y="678.9"/>
      <point x="293.3" y="679.9"/>
      <point x="293.3" y="679.9" type="curve" smooth="yes"/>
      <point x="237" y="680.9"/>
      <point x="238.3" y="652.7"/>
      <point x="238.3" y="597" type="curve" smooth="yes"/>
      <point x="238.3" y="531" type="line"/>
      <point x="358.8" y="531" type="line"/>
      <point x="358.8" y="424" type="line"/>
      <point x="238.3" y="424" type="line"/>
      <point x="238.3" y="0" type="line"/>
      <point x="98.2998" y="0" type="line"/>
      <point x="98.2998" y="424" type="line"/>
    </contour>
  </outline>
</glyph>
<glyph name="g" format="1">
  <advance width="560"/>
  <unicode hex="0067"/>
  <outline>
    <contour>
      <point x="35.3496" y="102.35" type="curve" smooth="yes"/>
      <point x="35.3496" y="144.149"/>
      <point x="53.9004" y="183.399"/>
      <point x="97.1006" y="196.899" type="curve"/>
      <point x="53.1006" y="224.899"/>
      <point x="38.5508" y="290.999"/>
      <point x="38.5508" y="343.999" type="curve" smooth="yes"/>
      <point x="38.5508" y="470.999"/>
      <point x="102.9" y="532.999"/>
      <point x="222.551" y="532.999" type="curve" smooth="yes"/>
      <point x="545.551" y="532.999" type="line"/>
      <point x="545.551" y="449.499" type="line"/>
      <point x="486.551" y="431.499" type="line"/>
      <point x="495.9" y="409.399"/>
      <point x="506.551" y="391.149"/>
      <point x="506.551" y="327.499" type="curve" smooth="yes"/>
      <point x="506.551" y="250.999"/>
      <point x="474.751" y="148.999"/>
      <point x="325.051" y="148.999" type="curve" smooth="yes"/>
      <point x="202.051" y="148.999" type="line" smooth="yes"/>
      <point x="186.051" y="148.999"/>
      <point x="161.601" y="148.849"/>
      <point x="161.601" y="125.599" type="curve" smooth="yes"/>
      <point x="161.601" y="102.349"/>
      <point x="179.908" y="98.749"/>
      <point x="202.05" y="98.749" type="curve" smooth="yes"/>
      <point x="365" y="98.749" type="line" smooth="yes"/>
      <point x="461.02" y="98.749"/>
      <point x="522.05" y="48.6992"/>
      <point x="522.05" y="-58.501" type="curve" smooth="yes"/>
      <point x="522.05" y="-116.001" type="line" smooth="yes"/>
      <point x="522.05" y="-192.501"/>
      <point x="486.55" y="-270.001"/>
      <point x="355.55" y="-270.001" type="curve" smooth="yes"/>
      <point x="205.55" y="-270.001" type="line" smooth="yes"/>
      <point x="111.55" y="-270.001"/>
      <point x="40.0498" y="-221.101"/>
      <point x="40.0498" y="-116.001" type="curve" smooth="yes"/>
      <point x="40.0498" y="-48.6006" type="line"/>
      <point x="86.6494" y="-0.100586" type="line"/>
      <point x="58.6494" y="15.499"/>
      <point x="35.3496" y="51.6992"/>
    </contour>
    <contour>
      <point x="180.601" y="-98.9502" type="line" smooth="yes"/>
      <point x="180.601" y="-151.601"/>
      <point x="208.5" y="-157.5"/>
      <point x="243.5" y="-157.5" type="curve" smooth="yes"/>
      <point x="326.4" y="-157.5" type="line" smooth="yes"/>
      <point x="376.601" y="-157.5"/>
      <point x="382.601" y="-132.75"/>
      <point x="382.601" y="-101.7" type="curve" smooth="yes"/>
      <point x="382.601" y="-62.9502" type="line" smooth="yes"/>
      <point x="382.601" y="-33"/>
      <point x="370.258" y="-14.7178"/>
      <point x="330.551" y="-14.2998" type="curve" smooth="yes"/>
      <point x="222.851" y="-14.2998" type="line" smooth="yes"/>
      <point x="203.374" y="-14.2998"/>
      <point x="180.601" y="-10.7002"/>
      <point x="180.601" y="-10.7002" type="curve"/>
    </contour>
    <contour>
      <point x="178.55" y="344.001" type="curve" smooth="yes"/>
      <point x="178.55" y="295.001"/>
      <point x="193.55" y="261.501"/>
      <point x="243.05" y="261.501" type="curve" smooth="yes"/>
      <point x="299.25" y="261.501" type="line" smooth="yes"/>
      <point x="352.3" y="261.501"/>
      <point x="367.45" y="295.901"/>
      <point x="366.55" y="344.001" type="curve" smooth="yes"/>
      <point x="365.2" y="399.177"/>
      <point x="347.55" y="420.501"/>
      <point x="298.25" y="420.501" type="curve" smooth="yes"/>
      <point x="244.55" y="420.501" type="line" smooth="yes"/>
      <point x="187.85" y="420.501"/>
      <point x="178.55" y="383.601"/>
    </contour>
  </outline>
</glyph>
<glyph name="h" format="1">
  <advance width="550"/>
  <unicode hex="0068"/>
  <outline>
    <contour>
      <point x="45.7002" y="0" type="line"/>
      <point x="45.7002" y="782.9" type="line"/>
      <point x="185.15" y="782.9" type="line"/>
      <point x="185.15" y="474.5" type="line"/>
      <point x="229.101" y="506.2"/>
      <point x="273.2" y="540"/>
      <point x="354.2" y="540" type="curve" smooth="yes"/>
      <point x="477.8" y="540"/>
      <point x="512.7" y="454.7"/>
      <point x="512.7" y="353.5" type="curve" smooth="yes"/>
      <point x="512.7" y="0" type="line"/>
      <point x="372.7" y="0" type="line"/>
      <point x="372.7" y="355.7" type="line" smooth="yes"/>
      <point x="372.7" y="408.5"/>
      <point x="349.55" y="427.5"/>
      <point x="314.05" y="427.5" type="curve" smooth="yes"/>
      <point x="257.7" y="427.5"/>
      <point x="226.95" y="413"/>
      <point x="185.7" y="381.5" type="curve"/>
      <point x="185.7" y="0" type="line"/>
    </contour>
  </outline>
</glyph>
<glyph name="i" format="1">
  <advance width="227"/>
  <unicode hex="0069"/>
  <outline>
    <contour>
      <point x="37.9004" y="609.85" type="curve" smooth="yes"/>
      <point x="37.9004" y="698.5" type="line" smooth="yes"/>
      <point x="37.9004" y="713.5"/>
      <point x="45.9004" y="723.5"/>
      <point x="61.9004" y="723.5" type="curve" smooth="yes"/>
      <point x="166.9" y="723.5" type="line" smooth="yes"/>
      <point x="181.9" y="723.5"/>
      <point x="189.351" y="712.5"/>
      <point x="189.351" y="698.5" type="curve" smooth="yes"/>
      <point x="189.351" y="609.85" type="line" smooth="yes"/>
      <point x="189.351" y="594.85"/>
      <point x="180.9" y="586.85"/>
      <point x="166.9" y="586.85" type="curve" smooth="yes"/>
      <point x="61.9004" y="586.85" type="line" smooth="yes"/>
      <point x="47.9004" y="586.85"/>
      <point x="37.9004" y="595.85"/>
    </contour>
    <contour>
      <point x="42.9502" y="0" type="line"/>
      <point x="42.9502" y="531" type="line"/>
      <point x="182.95" y="531" type="line"/>
      <point x="182.95" y="0" type="line"/>
    </contour>
  </outline>
</glyph>
<glyph name="j" format="1">
  <advance width="242"/>
  <unicode hex="006A"/>
  <outline>
    <contour>
      <point x="45.7002" y="609.85" type="curve" smooth="yes"/>
      <point x="45.7002" y="698.5" type="line" smooth="yes"/>
      <point x="45.7002" y="713.5"/>
      <point x="53.7002" y="723.5"/>
      <point x="69.7002" y="723.5" type="curve" smooth="yes"/>
      <point x="174.7" y="723.5" type="line" smooth="yes"/>
      <point x="189.7" y="723.5"/>
      <point x="197.7" y="712.5"/>
      <point x="197.7" y="698.5" type="curve" smooth="yes"/>
      <point x="197.7" y="609.85" type="line" smooth="yes"/>
      <point x="197.7" y="594.85"/>
      <point x="188.7" y="586.85"/>
      <point x="174.7" y="586.85" type="curve" smooth="yes"/>
      <point x="69.7002" y="586.85" type="line" smooth="yes"/>
      <point x="55.7002" y="586.85"/>
      <point x="45.7002" y="595.85"/>
    </contour>
    <contour>
      <point x="51.75" y="-270" type="line"/>
      <point x="51.75" y="531" type="line"/>
      <point x="191.75" y="531" type="line"/>
      <point x="191.75" y="-4" type="line" smooth="yes"/>
      <point x="192.75" y="-90"/>
      <point x="190.75" y="-191.1"/>
      <point x="154.75" y="-270" type="curve"/>
    </contour>
  </outline>
</glyph>
<glyph name="k" format="1">
  <advance width="557"/>
  <unicode hex="006B"/>
  <outline>
    <contour>
      <point x="45.7002" y="0" type="line"/>
      <point x="45.7002" y="782" type="line"/>
      <point x="185.7" y="782" type="line"/>
      <point x="185.7" y="353" type="line"/>
      <point x="214.7" y="353" type="line"/>
      <point x="365.45" y="531" type="line"/>
      <point x="542.7" y="531" type="line"/>
      <point x="343.55" y="299.5" type="line"/>
      <point x="542.7" y="0" type="line"/>
      <point x="376.45" y="0" type="line"/>
      <point x="214.7" y="246" type="line"/>
      <point x="185.7" y="246" type="line"/>
      <point x="185.7" y="0" type="line"/>
    </contour>
  </outline>
</glyph>
<glyph name="l" format="1">
  <advance width="313"/>
  <unicode hex="006C"/>
  <outline>
    <contour>
      <point x="45.7002" y="189" type="curve" smooth="yes"/>
      <point x="45.7002" y="783" type="line"/>
      <point x="185.7" y="783" type="line"/>
      <point x="185.7" y="211" type="line" smooth="yes"/>
      <point x="185.7" y="133.9"/>
      <point x="204.3" y="117.2"/>
      <point x="231.7" y="107" type="curve" smooth="yes"/>
      <point x="231.7" y="107"/>
      <point x="291.7" y="86"/>
      <point x="298.7" y="86" type="curve"/>
      <point x="298.7" y="0" type="line"/>
      <point x="183.2" y="0" type="line" smooth="yes"/>
      <point x="96.2998" y="0"/>
      <point x="45.7002" y="48"/>
    </contour>
  </outline>
</glyph>
<glyph name="m" format="1">
  <advance width="875"/>
  <unicode hex="006D"/>
  <outline>
    <contour>
      <point x="45.7002" y="0" type="line"/>
      <point x="45.7012" y="530.999" type="line"/>
      <point x="158.201" y="530.999" type="line"/>
      <point x="185.701" y="473.599" type="line"/>
      <point x="232.951" y="507.499"/>
      <point x="270.951" y="538.649"/>
      <point x="351.051" y="538.649" type="curve" smooth="yes"/>
      <point x="418.801" y="538.649"/>
      <point x="466.801" y="512.949"/>
      <point x="488.701" y="469.999" type="curve"/>
      <point x="536.301" y="504.749"/>
      <point x="597.201" y="538.649"/>
      <point x="679.602" y="538.649" type="curve" smooth="yes"/>
      <point x="796.901" y="538.649"/>
      <point x="838.102" y="459.199"/>
      <point x="838.102" y="351.699" type="curve" smooth="yes"/>
      <point x="838.102" y="-0.000976562" type="line"/>
      <point x="698.102" y="-0.000976562" type="line"/>
      <point x="698.102" y="353.899" type="line" smooth="yes"/>
      <point x="698.102" y="403.55"/>
      <point x="674.951" y="426.149"/>
      <point x="639.451" y="426.149" type="curve" smooth="yes"/>
      <point x="585.751" y="426.149"/>
      <point x="546.851" y="415.899"/>
      <point x="509.45" y="384.449" type="curve" smooth="yes"/>
      <point x="509.45" y="380.049"/>
      <point x="510" y="357.549"/>
      <point x="510" y="352.599" type="curve" smooth="yes"/>
      <point x="510" y="-0.000976562" type="line"/>
      <point x="370" y="-0.000976562" type="line"/>
      <point x="370" y="353.899" type="line" smooth="yes"/>
      <point x="370" y="403.55"/>
      <point x="346.4" y="426.149"/>
      <point x="310.9" y="426.149" type="curve" smooth="yes"/>
      <point x="255.9" y="426.149"/>
      <point x="226.95" y="412.1"/>
      <point x="185.7" y="380.6" type="curve"/>
      <point x="185.7" y="0" type="line"/>
    </contour>
  </outline>
</glyph>
<glyph name="n" format="1">
  <advance width="550"/>
  <unicode hex="006E"/>
  <outline>
    <contour>
      <point x="45.7002" y="0" type="line"/>
      <point x="45.6992" y="531" type="line"/>
      <point x="158.199" y="531" type="line"/>
      <point x="185.699" y="474.5" type="line"/>
      <point x="231.299" y="507.3"/>
      <point x="273.199" y="540"/>
      <point x="354.199" y="540" type="curve" smooth="yes"/>
      <point x="477.799" y="540"/>
      <point x="512.699" y="454.7"/>
      <point x="512.699" y="353.5" type="curve" smooth="yes"/>
      <point x="512.699" y="0" type="line"/>
      <point x="372.699" y="0" type="line"/>
      <point x="372.699" y="355.7" type="line" smooth="yes"/>
      <point x="372.699" y="408.5"/>
      <point x="349.1" y="427.5"/>
      <point x="314.05" y="427.5" type="curve" smooth="yes"/>
      <point x="257.7" y="427.5"/>
      <point x="226.95" y="413"/>
      <point x="185.7" y="381.5" type="curve"/>
      <point x="185.7" y="0" type="line"/>
    </contour>
  </outline>
</glyph>
<glyph name="o" format="1">
  <advance width="560"/>
  <unicode hex="006F"/>
  <outline>
    <contour>
      <point x="37.9004" y="258" type="curve" smooth="yes"/>
      <point x="37.9004" y="475"/>
      <point x="100.65" y="536"/>
      <point x="280.15" y="536" type="curve" smooth="yes"/>
      <point x="463" y="536"/>
      <point x="522.4" y="469"/>
      <point x="522.4" y="258" type="curve" smooth="yes"/>
      <point x="522.4" y="61"/>
      <point x="465.75" y="-5"/>
      <point x="280.15" y="-5" type="curve" smooth="yes"/>
      <point x="96.75" y="-5"/>
      <point x="37.9004" y="68"/>
    </contour>
    <contour>
      <point x="177.9" y="258" type="curve" smooth="yes"/>
      <point x="177.9" y="120.6"/>
      <point x="205.75" y="107.5"/>
      <point x="280.15" y="107.5" type="curve" smooth="yes"/>
      <point x="359" y="107.5"/>
      <point x="382.4" y="118.2"/>
      <point x="382.4" y="258" type="curve" smooth="yes"/>
      <point x="382.4" y="406.75"/>
      <point x="363.601" y="423.5"/>
      <point x="280.15" y="423.5" type="curve" smooth="yes"/>
      <point x="197.301" y="423.5"/>
      <point x="177.9" y="406.65"/>
    </contour>
  </outline>
</glyph>
<glyph name="p" format="1">
  <advance width="556"/>
  <unicode hex="0070"/>
  <outline>
    <contour>
      <point x="45.7002" y="-270" type="line"/>
      <point x="45.6992" y="531" type="line"/>
      <point x="160.85" y="531" type="line"/>
      <point x="185.35" y="477.5" type="line"/>
      <point x="218.5" y="504.2"/>
      <point x="283" y="537"/>
      <point x="346.05" y="537" type="curve" smooth="yes"/>
      <point x="476.75" y="537"/>
      <point x="519.4" y="427.4"/>
      <point x="519.4" y="268" type="curve" smooth="yes"/>
      <point x="519.4" y="114.4"/>
      <point x="493.2" y="-8"/>
      <point x="346.05" y="-8" type="curve" smooth="yes"/>
      <point x="301.05" y="-8"/>
      <point x="233.399" y="4.34961"/>
      <point x="184.8" y="26.5" type="curve"/>
      <point x="184.8" y="-270" type="line"/>
    </contour>
    <contour>
      <point x="185.35" y="121.7" type="line"/>
      <point x="221.899" y="107.55"/>
      <point x="261.349" y="101.749"/>
      <point x="309.749" y="101.749" type="curve" smooth="yes"/>
      <point x="353.949" y="101.749"/>
      <point x="379.399" y="126.999"/>
      <point x="379.399" y="262.499" type="curve" smooth="yes"/>
      <point x="379.399" y="380.949"/>
      <point x="354.949" y="417.35"/>
      <point x="309.749" y="417.35" type="curve" smooth="yes"/>
      <point x="257.149" y="417.35"/>
      <point x="215.149" y="403.8"/>
      <point x="185.35" y="384.55" type="curve"/>
    </contour>
  </outline>
</glyph>
<glyph name="q" format="1">
  <advance width="555"/>
  <unicode hex="0071"/>
  <outline>
    <contour>
      <point x="37.9004" y="268" type="curve" smooth="yes"/>
      <point x="37.9004" y="453.6"/>
      <point x="107.351" y="537"/>
      <point x="232.351" y="537" type="curve" smooth="yes"/>
      <point x="338.351" y="537"/>
      <point x="459.001" y="520.75"/>
      <point x="509.851" y="506.85" type="curve"/>
      <point x="509.851" y="-270" type="line"/>
      <point x="369.851" y="-270" type="line"/>
      <point x="369.851" y="29" type="line"/>
      <point x="328.95" y="1.34961"/>
      <point x="277.351" y="-10"/>
      <point x="232.351" y="-10" type="curve" smooth="yes"/>
      <point x="79.3506" y="-10"/>
      <point x="37.9004" y="91.2998"/>
    </contour>
    <contour>
      <point x="177.9" y="271.85" type="curve" smooth="yes"/>
      <point x="177.9" y="171.1"/>
      <point x="178.851" y="100.299"/>
      <point x="258.751" y="100.299" type="curve" smooth="yes"/>
      <point x="303.051" y="100.299"/>
      <point x="325.9" y="104.299"/>
      <point x="369.851" y="121.999" type="curve"/>
      <point x="369.851" y="429.999" type="line"/>
      <point x="259.851" y="429.999" type="line" smooth="yes"/>
      <point x="179.801" y="429.999"/>
      <point x="177.9" y="333.199"/>
    </contour>
  </outline>
</glyph>
<glyph name="r" format="1">
  <advance width="417"/>
  <unicode hex="0072"/>
  <outline>
    <contour>
      <point x="45.7002" y="0" type="line"/>
      <point x="45.7002" y="531.002" type="line"/>
      <point x="163.7" y="531.002" type="line"/>
      <point x="185.7" y="464.002" type="line"/>
      <point x="222.5" y="499.552"/>
      <point x="272" y="536.452"/>
      <point x="338.05" y="536.452" type="curve" smooth="yes"/>
      <point x="361" y="536.452"/>
      <point x="383" y="535.552"/>
      <point x="397.2" y="530.102" type="curve"/>
      <point x="397.2" y="394.951" type="line"/>
      <point x="383" y="396.301"/>
      <point x="350.55" y="397.65"/>
      <point x="320.45" y="397.65" type="curve" smooth="yes"/>
      <point x="262.45" y="397.65"/>
      <point x="220.351" y="388.2"/>
      <point x="185.7" y="338.55" type="curve"/>
      <point x="185.7" y="0" type="line"/>
    </contour>
  </outline>
</glyph>
<glyph name="s" format="1">
  <advance width="508"/>
  <unicode hex="0073"/>
  <outline>
    <contour>
      <point x="30.0996" y="347" type="curve" smooth="yes"/>
      <point x="30.1016" y="393.001" type="line" smooth="yes"/>
      <point x="30.1016" y="475.001"/>
      <point x="65.1016" y="536.001"/>
      <point x="168.102" y="536.001" type="curve" smooth="yes"/>
      <point x="270.151" y="536.001"/>
      <point x="410.651" y="532.701"/>
      <point x="451.651" y="509.001" type="curve"/>
      <point x="451.651" y="420.651" type="line"/>
      <point x="211.001" y="420.651" type="line" smooth="yes"/>
      <point x="175.051" y="420.651"/>
      <point x="170.101" y="409.401"/>
      <point x="170.101" y="384.201" type="curve" smooth="yes"/>
      <point x="170.101" y="360.201" type="line" smooth="yes"/>
      <point x="170.101" y="326.651"/>
      <point x="187.751" y="325.751"/>
      <point x="211.001" y="325.751" type="curve" smooth="yes"/>
      <point x="337.101" y="325.751" type="line" smooth="yes"/>
      <point x="438.4" y="325.751"/>
      <point x="478.101" y="265.701"/>
      <point x="478.101" y="188.501" type="curve" smooth="yes"/>
      <point x="478.101" y="134.001" type="line" smooth="yes"/>
      <point x="478.101" y="25.001"/>
      <point x="412.101" y="-4.99902"/>
      <point x="348.101" y="-4.99902" type="curve" smooth="yes"/>
      <point x="247.4" y="-4.99902"/>
      <point x="89" y="-0.449219"/>
      <point x="52.0996" y="23.9004" type="curve"/>
      <point x="52.0996" y="111.351" type="line"/>
      <point x="303" y="111.351" type="line" smooth="yes"/>
      <point x="312.35" y="111.351"/>
      <point x="338.1" y="112.501"/>
      <point x="338.1" y="145.001" type="curve" smooth="yes"/>
      <point x="338.1" y="169.801" type="line" smooth="yes"/>
      <point x="338.1" y="192.15"/>
      <point x="331.6" y="204.45"/>
      <point x="303" y="204.45" type="curve" smooth="yes"/>
      <point x="179.1" y="204.45" type="line" smooth="yes"/>
      <point x="85.0996" y="204.45"/>
      <point x="30.0996" y="244"/>
    </contour>
  </outline>
</glyph>
<glyph name="t" format="1">
  <advance width="381"/>
  <unicode hex="0074"/>
  <outline>
    <contour>
      <point x="15.0498" y="425" type="line"/>
      <point x="15.0498" y="503.001" type="line"/>
      <point x="100.85" y="532.001" type="line"/>
      <point x="124.35" y="680.001" type="line"/>
      <point x="240.85" y="680.001" type="line"/>
      <point x="240.85" y="532.001" type="line"/>
      <point x="359.55" y="532.001" type="line"/>
      <point x="359.55" y="425.001" type="line"/>
      <point x="240.85" y="425.001" type="line"/>
      <point x="240.85" y="212.001" type="line" smooth="yes"/>
      <point x="240.85" y="133.801"/>
      <point x="258.899" y="117.101"/>
      <point x="286.3" y="106.9" type="curve" smooth="yes"/>
      <point x="286.3" y="106.9"/>
      <point x="346.3" y="85.9004"/>
      <point x="353.3" y="85.9004" type="curve"/>
      <point x="353.3" y="-0.0996094" type="line"/>
      <point x="231.2" y="-0.0996094" type="line" smooth="yes"/>
      <point x="152.55" y="-0.0996094"/>
      <point x="100.85" y="49"/>
      <point x="100.85" y="190" type="curve" smooth="yes"/>
      <point x="100.85" y="425" type="line"/>
    </contour>
  </outline>
</glyph>
<glyph name="u" format="1">
  <advance width="550"/>
  <unicode hex="0075"/>
  <outline>
    <contour>
      <point x="37.9004" y="177.5" type="curve" smooth="yes"/>
      <point x="37.9014" y="531" type="line"/>
      <point x="177.901" y="531" type="line"/>
      <point x="177.901" y="175.3" type="line" smooth="yes"/>
      <point x="177.901" y="122.5"/>
      <point x="201.501" y="103.5"/>
      <point x="236.551" y="103.5" type="curve" smooth="yes"/>
      <point x="292.9" y="103.5"/>
      <point x="323.65" y="118"/>
      <point x="364.9" y="149.5" type="curve"/>
      <point x="364.9" y="531" type="line"/>
      <point x="504.9" y="531" type="line"/>
      <point x="504.9" y="0" type="line"/>
      <point x="392.4" y="0" type="line"/>
      <point x="364.9" y="56.5" type="line"/>
      <point x="312.15" y="24.7998"/>
      <point x="277.4" y="-9"/>
      <point x="196.4" y="-9" type="curve" smooth="yes"/>
      <point x="72.8008" y="-9"/>
      <point x="37.9004" y="76.2998"/>
    </contour>
  </outline>
</glyph>
<glyph name="v" format="1">
  <advance width="564"/>
  <unicode hex="0076"/>
  <outline>
    <contour>
      <point x="15.0498" y="531" type="line"/>
      <point x="164.8" y="531" type="line"/>
      <point x="280.75" y="164" type="line"/>
      <point x="400.35" y="531" type="line"/>
      <point x="549.55" y="531" type="line"/>
      <point x="356.899" y="0" type="line"/>
      <point x="200.399" y="0" type="line"/>
    </contour>
  </outline>
</glyph>
<glyph name="w" format="1">
  <advance width="826"/>
  <unicode hex="0077"/>
  <outline>
    <contour>
      <point x="15.0498" y="531" type="line"/>
      <point x="164.8" y="531" type="line"/>
      <point x="271.2" y="164" type="line"/>
      <point x="366.3" y="531" type="line"/>
      <point x="505.7" y="531" type="line"/>
      <point x="468.75" y="387.95" type="line"/>
      <point x="556.7" y="164" type="line"/>
      <point x="661.5" y="531" type="line"/>
      <point x="811.8" y="531" type="line"/>
      <point x="640.149" y="0" type="line"/>
      <point x="483.649" y="-0" type="line"/>
      <point x="404.149" y="192.35" type="line"/>
      <point x="344.1" y="0" type="line"/>
      <point x="184.899" y="0" type="line"/>
    </contour>
  </outline>
</glyph>
<glyph name="x" format="1">
  <advance width="572"/>
  <unicode hex="0078"/>
  <outline>
    <contour>
      <point x="18.5" y="0" type="line"/>
      <point x="201.7" y="266" type="line"/>
      <point x="18.5" y="531" type="line"/>
      <point x="187.5" y="531" type="line"/>
      <point x="284.75" y="372.1" type="line"/>
      <point x="384.9" y="531" type="line"/>
      <point x="553.9" y="531" type="line"/>
      <point x="368.15" y="263" type="line"/>
      <point x="545.9" y="0" type="line"/>
      <point x="384.9" y="0" type="line"/>
      <point x="286.2" y="157.45" type="line"/>
      <point x="187.5" y="0" type="line"/>
    </contour>
  </outline>
</glyph>
<glyph name="y" format="1">
  <advance width="578"/>
  <unicode hex="0079"/>
  <outline>
    <contour>
      <point x="16.0498" y="531" type="line"/>
      <point x="163.051" y="531" type="line"/>
      <point x="254.65" y="159.45" type="line" smooth="yes"/>
      <point x="266.051" y="116.75"/>
      <point x="299.65" y="121"/>
      <point x="308" y="120.45" type="curve"/>
      <point x="414.35" y="531" type="line"/>
      <point x="560.05" y="531" type="line"/>
      <point x="376.1" y="-168" type="line"/>
      <point x="303.3" y="-270" type="line"/>
      <point x="203.399" y="-270" type="line"/>
      <point x="278.149" y="0" type="line"/>
      <point x="204.35" y="0"/>
      <point x="146.05" y="37.2002"/>
      <point x="120.2" y="135.3" type="curve" smooth="yes"/>
    </contour>
  </outline>
</glyph>
<glyph name="z" format="1">
  <advance width="474"/>
  <unicode hex="007A"/>
  <outline>
    <contour>
      <point x="22.8496" y="413" type="line"/>
      <point x="22.8496" y="531" type="line"/>
      <point x="451.85" y="531" type="line"/>
      <point x="451.85" y="413" type="line"/>
      <point x="224.5" y="119" type="line"/>
      <point x="451.85" y="119" type="line" smooth="yes"/>
      <point x="452.85" y="118"/>
      <point x="451.85" y="1"/>
      <point x="451.85" y="1" type="curve"/>
      <point x="37.8496" y="1" type="line"/>
      <point x="37.8496" y="117.9" type="line"/>
      <point x="276.25" y="413" type="line"/>
    </contour>
  </outline>
</glyph>
<glyph name="braceleft" format="1">
  <advance width="321"/>
  <unicode hex="007B"/>
  <outline>
    <contour>
      <point x="15.0498" y="280.75" type="curve"/>
      <point x="15.0498" y="386.25" type="line"/>
      <point x="48.0498" y="389.25"/>
      <point x="88.5498" y="395.4"/>
      <point x="88.5498" y="439.25" type="curve" smooth="yes"/>
      <point x="88.5498" y="656" type="line" smooth="yes"/>
      <point x="88.5498" y="765.2"/>
      <point x="156" y="842"/>
      <point x="306.05" y="842" type="curve"/>
      <point x="306.05" y="724" type="line"/>
      <point x="254.6" y="724"/>
      <point x="228.55" y="703"/>
      <point x="228.55" y="612" type="curve" smooth="yes"/>
      <point x="228.55" y="431" type="line" smooth="yes"/>
      <point x="228.55" y="368.7"/>
      <point x="189.899" y="340.8"/>
      <point x="132.55" y="334" type="curve"/>
      <point x="189.899" y="323.7"/>
      <point x="227.55" y="290.25"/>
      <point x="227.55" y="240" type="curve" smooth="yes"/>
      <point x="227.55" y="0.5" type="line" smooth="yes"/>
      <point x="227.55" y="-64.5"/>
      <point x="249.25" y="-99.2998"/>
      <point x="306.05" y="-97.5" type="curve"/>
      <point x="306.05" y="-210" type="line"/>
      <point x="142.2" y="-210"/>
      <point x="87.5498" y="-141.3"/>
      <point x="87.5498" y="-38" type="curve" smooth="yes"/>
      <point x="87.5498" y="227.75" type="line" smooth="yes"/>
      <point x="87.5498" y="265.35"/>
      <point x="55.0498" y="283.75"/>
    </contour>
  </outline>
</glyph>
<glyph name="bar" format="1">
  <advance width="247"/>
  <unicode hex="007C"/>
  <outline>
    <contour>
      <point x="65.0996" y="-72" type="line"/>
      <point x="65.0996" y="770" type="line"/>
      <point x="183.1" y="770" type="line"/>
      <point x="183.1" y="-72" type="line"/>
    </contour>
  </outline>
</glyph>
<glyph name="braceright" format="1">
  <advance width="321"/>
  <unicode hex="007D"/>
  <outline>
    <contour>
      <point x="15.0498" y="-97.5" type="line"/>
      <point x="71.8496" y="-99.2998"/>
      <point x="93.5498" y="-64.5"/>
      <point x="93.5498" y="0.5" type="curve" smooth="yes"/>
      <point x="93.5498" y="240" type="line" smooth="yes"/>
      <point x="93.5498" y="290.25"/>
      <point x="131.2" y="323.7"/>
      <point x="188.55" y="334" type="curve"/>
      <point x="131.2" y="340.8"/>
      <point x="92.5498" y="368.7"/>
      <point x="92.5498" y="431" type="curve" smooth="yes"/>
      <point x="92.5498" y="612" type="line" smooth="yes"/>
      <point x="92.5498" y="703"/>
      <point x="66.5" y="724"/>
      <point x="15.0498" y="724" type="curve"/>
      <point x="15.0498" y="842" type="line"/>
      <point x="165.1" y="842"/>
      <point x="232.55" y="765.2"/>
      <point x="232.55" y="656" type="curve" smooth="yes"/>
      <point x="232.55" y="439.25" type="line" smooth="yes"/>
      <point x="232.55" y="395.4"/>
      <point x="273.05" y="389.25"/>
      <point x="306.05" y="386.25" type="curve"/>
      <point x="306.05" y="280.75" type="line"/>
      <point x="266.05" y="283.75"/>
      <point x="233.55" y="265.35"/>
      <point x="233.55" y="227.75" type="curve" smooth="yes"/>
      <point x="233.55" y="-38" type="line" smooth="yes"/>
      <point x="233.55" y="-141.3"/>
      <point x="178.899" y="-210"/>
      <point x="15.0498" y="-210" type="curve"/>
    </contour>
  </outline>
</glyph>
<glyph name="asciitilde" format="1">
  <advance width="419"/>
  <unicode hex="007E"/>
  <outline>
    <contour>
      <point x="37.9004" y="586.3" type="line"/>
      <point x="69.6504" y="620.95"/>
      <point x="103.551" y="657.6"/>
      <point x="158.201" y="657.6" type="curve" smooth="yes"/>
      <point x="202.201" y="657.6"/>
      <point x="224.201" y="622.6"/>
      <point x="264.201" y="622.6" type="curve" smooth="yes"/>
      <point x="303.751" y="621.5"/>
      <point x="333.401" y="642.75"/>
      <point x="357.201" y="662.6" type="curve"/>
      <point x="381.401" y="583" type="line"/>
      <point x="357.151" y="553.6"/>
      <point x="319.951" y="511"/>
      <point x="268.051" y="511" type="curve" smooth="yes"/>
      <point x="224.15" y="511"/>
      <point x="194.2" y="546"/>
      <point x="155.2" y="546" type="curve" smooth="yes"/>
      <point x="116.2" y="546"/>
      <point x="95.4502" y="530.5"/>
      <point x="62.2002" y="511" type="curve"/>
    </contour>
  </outline>
</glyph>
<glyph name="exclamdown" format="1">
  <advance width="276"/>
  <unicode hex="00A1"/>
  <outline>
    <contour>
      <point x="70" y="351" type="curve" smooth="yes"/>
      <point x="70" y="438" type="line" smooth="yes"/>
      <point x="70" y="452"/>
      <point x="78" y="459.667"/>
      <point x="94" y="461" type="curve" smooth="yes"/>
      <point x="179" y="461" type="line" smooth="yes"/>
      <point x="187.667" y="460.333"/>
      <point x="193.833" y="457"/>
      <point x="197.5" y="451" type="curve" smooth="yes"/>
      <point x="201.167" y="445"/>
      <point x="203" y="439.667"/>
      <point x="203" y="435" type="curve" smooth="yes"/>
      <point x="203" y="351" type="line" smooth="yes"/>
      <point x="202.333" y="333"/>
      <point x="194.667" y="324"/>
      <point x="180" y="324" type="curve" smooth="yes"/>
      <point x="94" y="324" type="line" smooth="yes"/>
      <point x="78" y="324"/>
      <point x="70" y="333"/>
    </contour>
    <contour>
      <point x="65" y="-270" type="line"/>
      <point x="79" y="263" type="line"/>
      <point x="194" y="263" type="line"/>
      <point x="208" y="-270" type="line"/>
    </contour>
  </outline>
</glyph>
<glyph name="cent" format="1">
  <advance width="487"/>
  <unicode hex="00A2"/>
  <outline>
    <contour>
      <point x="43" y="130.5" type="curve" smooth="yes"/>
      <point x="34.3333" y="166.833"/>
      <point x="30" y="212"/>
      <point x="30" y="266" type="curve" smooth="yes"/>
      <point x="30" y="320"/>
      <point x="34.3333" y="365.333"/>
      <point x="43" y="402" type="curve" smooth="yes"/>
      <point x="58.3333" y="467.333"/>
      <point x="90" y="508.667"/>
      <point x="138" y="526" type="curve" smooth="yes"/>
      <point x="157.333" y="533.333"/>
      <point x="174.167" y="537"/>
      <point x="188.5" y="537" type="curve" smooth="yes"/>
      <point x="210" y="537"/>
      <point x="210" y="537"/>
      <point x="213" y="537" type="curve" smooth="yes"/>
      <point x="213" y="634" type="line"/>
      <point x="299" y="634" type="line"/>
      <point x="299" y="534" type="line"/>
      <point x="357" y="528"/>
      <point x="407.333" y="518"/>
      <point x="450" y="504" type="curve"/>
      <point x="450" y="417" type="line"/>
      <point x="386" y="421.667"/>
      <point x="335.333" y="424"/>
      <point x="298" y="424" type="curve" smooth="yes"/>
      <point x="260.667" y="424"/>
      <point x="238" y="423.5"/>
      <point x="230" y="422.5" type="curve" smooth="yes"/>
      <point x="222" y="421.5"/>
      <point x="213.5" y="418.333"/>
      <point x="204.5" y="413" type="curve" smooth="yes"/>
      <point x="195.5" y="407.667"/>
      <point x="188.667" y="399"/>
      <point x="184" y="387" type="curve" smooth="yes"/>
      <point x="174.667" y="360.333"/>
      <point x="170" y="321.667"/>
      <point x="170" y="271" type="curve" smooth="yes"/>
      <point x="170" y="220.333"/>
      <point x="173.167" y="183.833"/>
      <point x="179.5" y="161.5" type="curve" smooth="yes"/>
      <point x="185.833" y="139.167"/>
      <point x="195.167" y="124.5"/>
      <point x="207.5" y="117.5" type="curve" smooth="yes"/>
      <point x="219.833" y="110.5"/>
      <point x="239.333" y="107"/>
      <point x="266" y="107" type="curve" smooth="yes"/>
      <point x="320" y="107"/>
      <point x="374.333" y="109.333"/>
      <point x="429" y="114" type="curve" smooth="yes"/>
      <point x="457" y="116" type="line"/>
      <point x="457" y="28" type="line"/>
      <point x="415.667" y="7.33333"/>
      <point x="362.333" y="-3.66667"/>
      <point x="297" y="-5" type="curve"/>
      <point x="297" y="-95" type="line"/>
      <point x="211" y="-95" type="line"/>
      <point x="211" y="-6" type="line"/>
      <point x="182.333" y="-6"/>
      <point x="157.833" y="-2"/>
      <point x="137.5" y="6" type="curve" smooth="yes"/>
      <point x="117.167" y="14"/>
      <point x="98.5" y="27.6667"/>
      <point x="81.5" y="47" type="curve" smooth="yes"/>
      <point x="64.5" y="66.3333"/>
      <point x="51.6667" y="94.1667"/>
    </contour>
  </outline>
</glyph>
<glyph name="sterling" format="1">
  <advance width="582"/>
  <unicode hex="00A3"/>
  <outline>
    <contour>
      <point x="38" y="0" type="line"/>
      <point x="38" y="108" type="line"/>
      <point x="104" y="129" type="line"/>
      <point x="104" y="314" type="line"/>
      <point x="38" y="314" type="line"/>
      <point x="38" y="386" type="line"/>
      <point x="104" y="408" type="line"/>
      <point x="104" y="483" type="line" smooth="yes"/>
      <point x="104" y="539"/>
      <point x="108.667" y="579.167"/>
      <point x="118" y="603.5" type="curve" smooth="yes"/>
      <point x="127.333" y="627.833"/>
      <point x="136" y="646.333"/>
      <point x="144" y="659" type="curve" smooth="yes"/>
      <point x="152" y="671.667"/>
      <point x="161.833" y="682.167"/>
      <point x="173.5" y="690.5" type="curve" smooth="yes"/>
      <point x="185.167" y="698.833"/>
      <point x="197.333" y="705.833"/>
      <point x="210" y="711.5" type="curve" smooth="yes"/>
      <point x="222.667" y="717.167"/>
      <point x="237.333" y="721.333"/>
      <point x="254" y="724" type="curve" smooth="yes"/>
      <point x="283.333" y="729.333"/>
      <point x="312.667" y="732"/>
      <point x="342" y="732" type="curve" smooth="yes"/>
      <point x="388" y="732"/>
      <point x="444.333" y="728"/>
      <point x="511" y="720" type="curve" smooth="yes"/>
      <point x="545" y="716" type="line"/>
      <point x="545" y="604" type="line"/>
      <point x="356" y="604" type="line" smooth="yes"/>
      <point x="331.333" y="604"/>
      <point x="313.167" y="603.167"/>
      <point x="301.5" y="601.5" type="curve" smooth="yes"/>
      <point x="289.833" y="599.833"/>
      <point x="278.833" y="595.333"/>
      <point x="268.5" y="588" type="curve" smooth="yes"/>
      <point x="258.167" y="580.667"/>
      <point x="251.5" y="569.833"/>
      <point x="248.5" y="555.5" type="curve" smooth="yes"/>
      <point x="245.5" y="541.167"/>
      <point x="244" y="521"/>
      <point x="244" y="495" type="curve" smooth="yes"/>
      <point x="244" y="408" type="line"/>
      <point x="466" y="392" type="line"/>
      <point x="466" y="314" type="line"/>
      <point x="244" y="314" type="line"/>
      <point x="244" y="129" type="line"/>
      <point x="544" y="129" type="line"/>
      <point x="544" y="0" type="line"/>
    </contour>
  </outline>
</glyph>
<glyph name="currency" format="1">
  <advance width="446"/>
  <unicode hex="00A4"/>
  <outline>
    <contour>
      <point x="133" y="442" type="line"/>
      <point x="159.667" y="460.667"/>
      <point x="189.333" y="470"/>
      <point x="222" y="470" type="curve" smooth="yes"/>
      <point x="254.667" y="470"/>
      <point x="284.667" y="460.667"/>
      <point x="312" y="442" type="curve"/>
      <point x="358" y="489" type="line"/>
      <point x="408" y="442" type="line"/>
      <point x="359" y="392" type="line"/>
      <point x="373.667" y="368"/>
      <point x="381" y="339.833"/>
      <point x="381" y="307.5" type="curve" smooth="yes"/>
      <point x="381" y="275.167"/>
      <point x="371.333" y="245.333"/>
      <point x="352" y="218" type="curve"/>
      <point x="400" y="170" type="line"/>
      <point x="353" y="120" type="line"/>
      <point x="300" y="171" type="line"/>
      <point x="276" y="156.333"/>
      <point x="249.333" y="149"/>
      <point x="220" y="149" type="curve" smooth="yes"/>
      <point x="190.667" y="149"/>
      <point x="163" y="157.667"/>
      <point x="137" y="175" type="curve"/>
      <point x="91" y="127" type="line"/>
      <point x="42" y="177" type="line"/>
      <point x="89" y="225" type="line"/>
      <point x="72.3333" y="251.667"/>
      <point x="64" y="280.167"/>
      <point x="64" y="310.5" type="curve" smooth="yes"/>
      <point x="64" y="340.833"/>
      <point x="71.3333" y="368"/>
      <point x="86" y="392" type="curve"/>
      <point x="39" y="438" type="line"/>
      <point x="87" y="487" type="line"/>
    </contour>
    <contour>
      <point x="165.5" y="368" type="curve" smooth="yes"/>
      <point x="149.833" y="352"/>
      <point x="142" y="332.833"/>
      <point x="142" y="310.5" type="curve" smooth="yes"/>
      <point x="142" y="288.167"/>
      <point x="149.833" y="268.833"/>
      <point x="165.5" y="252.5" type="curve" smooth="yes"/>
      <point x="181.167" y="236.167"/>
      <point x="200.167" y="228"/>
      <point x="222.5" y="228" type="curve" smooth="yes"/>
      <point x="244.833" y="228"/>
      <point x="263.833" y="236.167"/>
      <point x="279.5" y="252.5" type="curve" smooth="yes"/>
      <point x="295.167" y="268.833"/>
      <point x="303" y="288.167"/>
      <point x="303" y="310.5" type="curve" smooth="yes"/>
      <point x="303" y="332.833"/>
      <point x="295.167" y="352"/>
      <point x="279.5" y="368" type="curve" smooth="yes"/>
      <point x="263.833" y="384"/>
      <point x="244.833" y="392"/>
      <point x="222.5" y="392" type="curve" smooth="yes"/>
      <point x="200.167" y="392"/>
      <point x="181.167" y="384"/>
    </contour>
  </outline>
</glyph>
<glyph name="yen" format="1">
  <advance width="634"/>
  <unicode hex="00A5"/>
  <outline>
    <contour>
      <point x="525" y="338" type="line"/>
      <point x="525" y="256" type="line"/>
      <point x="378" y="256" type="line"/>
      <point x="378" y="220" type="line"/>
      <point x="525" y="220" type="line"/>
      <point x="525" y="139" type="line"/>
      <point x="378" y="139" type="line"/>
      <point x="378" y="0" type="line"/>
      <point x="238" y="0" type="line"/>
      <point x="238" y="139" type="line"/>
      <point x="98" y="139" type="line"/>
      <point x="98" y="220" type="line"/>
      <point x="238" y="220" type="line"/>
      <point x="238" y="256" type="line"/>
      <point x="98" y="256" type="line"/>
      <point x="98" y="338" type="line"/>
      <point x="204" y="338" type="line"/>
      <point x="15" y="732" type="line"/>
      <point x="168" y="732" type="line"/>
      <point x="310" y="402" type="line"/>
      <point x="465" y="732" type="line"/>
      <point x="619" y="732" type="line"/>
      <point x="414" y="338" type="line"/>
    </contour>
  </outline>
</glyph>
<glyph name="brokenbar" format="1">
  <advance width="248"/>
  <unicode hex="00A6"/>
  <outline>
    <contour>
      <point x="65" y="-72" type="line"/>
      <point x="65" y="256" type="line"/>
      <point x="183" y="256" type="line"/>
      <point x="183" y="-72" type="line"/>
    </contour>
    <contour>
      <point x="65" y="429" type="line"/>
      <point x="65" y="770" type="line"/>
      <point x="183" y="770" type="line"/>
      <point x="183" y="429" type="line"/>
    </contour>
  </outline>
</glyph>
<glyph name="section" format="1">
  <advance width="541"/>
  <unicode hex="00A7"/>
  <outline>
    <contour>
      <point x="42" y="590" type="curve" smooth="yes"/>
      <point x="42" y="638" type="line" smooth="yes"/>
      <point x="42" y="710"/>
      <point x="69.3333" y="755.667"/>
      <point x="124" y="775" type="curve" smooth="yes"/>
      <point x="141.333" y="781"/>
      <point x="166" y="784"/>
      <point x="198" y="784" type="curve" smooth="yes"/>
      <point x="230" y="784"/>
      <point x="275.833" y="782.167"/>
      <point x="335.5" y="778.5" type="curve" smooth="yes"/>
      <point x="395.167" y="774.833"/>
      <point x="437.333" y="770.333"/>
      <point x="462" y="765" type="curve"/>
      <point x="462" y="666" type="line"/>
      <point x="221" y="666" type="line" smooth="yes"/>
      <point x="203.667" y="666"/>
      <point x="192" y="661"/>
      <point x="186" y="651" type="curve" smooth="yes"/>
      <point x="183.333" y="645.667"/>
      <point x="182" y="638.667"/>
      <point x="182" y="630" type="curve" smooth="yes"/>
      <point x="182" y="595" type="line" smooth="yes"/>
      <point x="182" y="572.333"/>
      <point x="195.333" y="561"/>
      <point x="222" y="561" type="curve" smooth="yes"/>
      <point x="345" y="561" type="line" smooth="yes"/>
      <point x="400.333" y="561"/>
      <point x="440.167" y="550.667"/>
      <point x="464.5" y="530" type="curve" smooth="yes"/>
      <point x="488.833" y="509.333"/>
      <point x="500.667" y="477.667"/>
      <point x="500" y="435" type="curve" smooth="yes"/>
      <point x="500" y="400" type="line" smooth="yes"/>
      <point x="500" y="338.667"/>
      <point x="480.667" y="303"/>
      <point x="442" y="293" type="curve"/>
      <point x="480" y="286.333"/>
      <point x="499" y="253.333"/>
      <point x="499" y="194" type="curve" smooth="yes"/>
      <point x="499" y="138" type="line" smooth="yes"/>
      <point x="499" y="40.6667"/>
      <point x="453" y="-8"/>
      <point x="361" y="-8" type="curve" smooth="yes"/>
      <point x="315" y="-8"/>
      <point x="262.167" y="-6.16667"/>
      <point x="202.5" y="-2.5" type="curve" smooth="yes"/>
      <point x="142.833" y="1.16667"/>
      <point x="101.667" y="5.66667"/>
      <point x="79" y="11" type="curve"/>
      <point x="79" y="110" type="line"/>
      <point x="316" y="110" type="line" smooth="yes"/>
      <point x="335.333" y="110"/>
      <point x="347.5" y="113"/>
      <point x="352.5" y="119" type="curve" smooth="yes"/>
      <point x="357.5" y="125"/>
      <point x="360" y="132.333"/>
      <point x="360" y="141" type="curve" smooth="yes"/>
      <point x="360" y="181" type="line" smooth="yes"/>
      <point x="360" y="193.667"/>
      <point x="356.833" y="202.333"/>
      <point x="350.5" y="207" type="curve" smooth="yes"/>
      <point x="344.167" y="211.667"/>
      <point x="333.333" y="214"/>
      <point x="318" y="214" type="curve" smooth="yes"/>
      <point x="194" y="214" type="line" smooth="yes"/>
      <point x="144" y="214"/>
      <point x="106.333" y="222.833"/>
      <point x="81" y="240.5" type="curve" smooth="yes"/>
      <point x="55.6667" y="258.167"/>
      <point x="43" y="290"/>
      <point x="43" y="336" type="curve" smooth="yes"/>
      <point x="43" y="371" type="line" smooth="yes"/>
      <point x="43" y="419"/>
      <point x="51.6667" y="451"/>
      <point x="69" y="467" type="curve" smooth="yes"/>
      <point x="77.6667" y="475"/>
      <point x="89" y="481.333"/>
      <point x="103" y="486" type="curve"/>
      <point x="62.3333" y="503.333"/>
      <point x="42" y="538"/>
    </contour>
    <contour>
      <point x="182" y="366" type="line" smooth="yes"/>
      <point x="182" y="348.667"/>
      <point x="185" y="338"/>
      <point x="191" y="334" type="curve" smooth="yes"/>
      <point x="199.667" y="328.667"/>
      <point x="211.667" y="326"/>
      <point x="227" y="326" type="curve" smooth="yes"/>
      <point x="313" y="326" type="line" smooth="yes"/>
      <point x="334.333" y="326"/>
      <point x="347" y="328.667"/>
      <point x="351" y="334" type="curve" smooth="yes"/>
      <point x="357" y="341.333"/>
      <point x="360" y="352.333"/>
      <point x="360" y="367" type="curve" smooth="yes"/>
      <point x="360" y="405" type="line" smooth="yes"/>
      <point x="360" y="428.333"/>
      <point x="353" y="441.667"/>
      <point x="339" y="445" type="curve" smooth="yes"/>
      <point x="332.333" y="447"/>
      <point x="323.667" y="448"/>
      <point x="313" y="448" type="curve" smooth="yes"/>
      <point x="227" y="448" type="line" smooth="yes"/>
      <point x="208.333" y="448"/>
      <point x="196.167" y="444.833"/>
      <point x="190.5" y="438.5" type="curve" smooth="yes"/>
      <point x="184.833" y="432.167"/>
      <point x="182" y="420.333"/>
      <point x="182" y="403" type="curve" smooth="yes"/>
    </contour>
  </outline>
</glyph>
<glyph name="dieresis" format="1">
  <advance width="448"/>
  <unicode hex="00A8"/>
  <outline>
    <contour>
      <point x="38" y="582" type="curve" smooth="yes"/>
      <point x="38" y="598"/>
      <point x="43.8333" y="611.667"/>
      <point x="55.5" y="623" type="curve" smooth="yes"/>
      <point x="67.1667" y="634.333"/>
      <point x="81" y="640"/>
      <point x="97" y="640" type="curve" smooth="yes"/>
      <point x="113" y="640"/>
      <point x="126.667" y="634.333"/>
      <point x="138" y="623" type="curve" smooth="yes"/>
      <point x="149.333" y="611.667"/>
      <point x="155" y="598"/>
      <point x="155" y="582" type="curve" smooth="yes"/>
      <point x="155" y="566"/>
      <point x="149.333" y="552.167"/>
      <point x="138" y="540.5" type="curve" smooth="yes"/>
      <point x="126.667" y="528.833"/>
      <point x="113" y="523"/>
      <point x="97" y="523" type="curve" smooth="yes"/>
      <point x="81" y="523"/>
      <point x="67.1667" y="528.833"/>
      <point x="55.5" y="540.5" type="curve" smooth="yes"/>
      <point x="43.8333" y="552.167"/>
      <point x="38" y="566"/>
    </contour>
    <contour>
      <point x="293" y="582" type="curve" smooth="yes"/>
      <point x="293" y="598"/>
      <point x="298.833" y="611.667"/>
      <point x="310.5" y="623" type="curve" smooth="yes"/>
      <point x="322.167" y="634.333"/>
      <point x="336" y="640"/>
      <point x="352" y="640" type="curve" smooth="yes"/>
      <point x="368" y="640"/>
      <point x="381.667" y="634.333"/>
      <point x="393" y="623" type="curve" smooth="yes"/>
      <point x="404.333" y="611.667"/>
      <point x="410" y="598"/>
      <point x="410" y="582" type="curve" smooth="yes"/>
      <point x="410" y="566"/>
      <point x="404.333" y="552.167"/>
      <point x="393" y="540.5" type="curve" smooth="yes"/>
      <point x="381.667" y="528.833"/>
      <point x="368" y="523"/>
      <point x="352" y="523" type="curve" smooth="yes"/>
      <point x="336" y="523"/>
      <point x="322.167" y="528.833"/>
      <point x="310.5" y="540.5" type="curve" smooth="yes"/>
      <point x="298.833" y="552.167"/>
      <point x="293" y="566"/>
    </contour>
  </outline>
</glyph>
<glyph name="copyright" format="1">
  <advance width="800"/>
  <unicode hex="00A9"/>
  <outline>
    <contour>
      <point x="42" y="377" type="curve" smooth="yes"/>
      <point x="42" y="410.333"/>
      <point x="44" y="443.167"/>
      <point x="48" y="475.5" type="curve" smooth="yes"/>
      <point x="52" y="507.833"/>
      <point x="59.5" y="540.5"/>
      <point x="70.5" y="573.5" type="curve" smooth="yes"/>
      <point x="81.5" y="606.5"/>
      <point x="96.1667" y="634.167"/>
      <point x="114.5" y="656.5" type="curve" smooth="yes"/>
      <point x="132.833" y="678.833"/>
      <point x="157.5" y="697"/>
      <point x="188.5" y="711" type="curve" smooth="yes"/>
      <point x="219.5" y="725"/>
      <point x="255.333" y="732"/>
      <point x="296" y="732" type="curve" smooth="yes"/>
      <point x="528" y="732" type="line" smooth="yes"/>
      <point x="566.667" y="732"/>
      <point x="600.167" y="724.667"/>
      <point x="628.5" y="710" type="curve" smooth="yes"/>
      <point x="656.833" y="695.333"/>
      <point x="679.167" y="676.833"/>
      <point x="695.5" y="654.5" type="curve" smooth="yes"/>
      <point x="711.833" y="632.167"/>
      <point x="725" y="604.333"/>
      <point x="735" y="571" type="curve" smooth="yes"/>
      <point x="751" y="516.333"/>
      <point x="759" y="448.667"/>
      <point x="759" y="368" type="curve" smooth="yes"/>
      <point x="759" y="252"/>
      <point x="739.167" y="161.667"/>
      <point x="699.5" y="97" type="curve" smooth="yes"/>
      <point x="659.833" y="32.3333"/>
      <point x="602.667" y="0"/>
      <point x="528" y="0" type="curve" smooth="yes"/>
      <point x="296" y="0" type="line" smooth="yes"/>
      <point x="220.667" y="0"/>
      <point x="161" y="29.3333"/>
      <point x="117" y="88" type="curve" smooth="yes"/>
      <point x="67" y="154"/>
      <point x="42" y="250.333"/>
    </contour>
    <contour>
      <point x="133" y="370" type="curve" smooth="yes"/>
      <point x="133" y="316"/>
      <point x="138.5" y="268.333"/>
      <point x="149.5" y="227" type="curve" smooth="yes"/>
      <point x="160.5" y="185.667"/>
      <point x="178.667" y="151.833"/>
      <point x="204" y="125.5" type="curve" smooth="yes"/>
      <point x="229.333" y="99.1667"/>
      <point x="260" y="86"/>
      <point x="296" y="86" type="curve" smooth="yes"/>
      <point x="522" y="86" type="line" smooth="yes"/>
      <point x="551.333" y="86"/>
      <point x="576.5" y="95.1667"/>
      <point x="597.5" y="113.5" type="curve" smooth="yes"/>
      <point x="618.5" y="131.833"/>
      <point x="635.5" y="162.333"/>
      <point x="648.5" y="205" type="curve" smooth="yes"/>
      <point x="661.5" y="247.667"/>
      <point x="668" y="302"/>
      <point x="668" y="368" type="curve" smooth="yes"/>
      <point x="668" y="455.333"/>
      <point x="661" y="517"/>
      <point x="647" y="553" type="curve" smooth="yes"/>
      <point x="630.333" y="595"/>
      <point x="609.333" y="622"/>
      <point x="584" y="634" type="curve" smooth="yes"/>
      <point x="567.333" y="642"/>
      <point x="548.667" y="646"/>
      <point x="528" y="646" type="curve" smooth="yes"/>
      <point x="296" y="646" type="line" smooth="yes"/>
      <point x="248.667" y="646"/>
      <point x="210.667" y="628.333"/>
      <point x="182" y="593" type="curve" smooth="yes"/>
      <point x="149.333" y="552.333"/>
      <point x="133" y="478"/>
    </contour>
    <contour>
      <point x="223" y="365" type="curve" smooth="yes"/>
      <point x="223" y="510.333"/>
      <point x="271" y="583"/>
      <point x="367" y="583" type="curve" smooth="yes"/>
      <point x="391.667" y="583"/>
      <point x="422" y="580.833"/>
      <point x="458" y="576.5" type="curve" smooth="yes"/>
      <point x="494" y="572.167"/>
      <point x="525" y="566.333"/>
      <point x="551" y="559" type="curve"/>
      <point x="551" y="485" type="line"/>
      <point x="495" y="493"/>
      <point x="441" y="497"/>
      <point x="389" y="497" type="curve" smooth="yes"/>
      <point x="362.333" y="497"/>
      <point x="343.333" y="486.833"/>
      <point x="332" y="466.5" type="curve" smooth="yes"/>
      <point x="320.667" y="446.167"/>
      <point x="315" y="412.667"/>
      <point x="315" y="366" type="curve" smooth="yes"/>
      <point x="315" y="319.333"/>
      <point x="320.833" y="285.5"/>
      <point x="332.5" y="264.5" type="curve" smooth="yes"/>
      <point x="344.167" y="243.5"/>
      <point x="364.333" y="233"/>
      <point x="393" y="233" type="curve" smooth="yes"/>
      <point x="441.667" y="233"/>
      <point x="496.333" y="238.333"/>
      <point x="557" y="249" type="curve"/>
      <point x="557" y="175" type="line"/>
      <point x="511" y="156.333"/>
      <point x="449.333" y="147"/>
      <point x="372" y="147" type="curve" smooth="yes"/>
      <point x="300" y="147"/>
      <point x="254.333" y="183.667"/>
      <point x="235" y="257" type="curve" smooth="yes"/>
      <point x="227" y="286.333"/>
      <point x="223" y="322.333"/>
    </contour>
  </outline>
</glyph>
<glyph name="ordfeminine" format="1">
  <advance width="366"/>
  <unicode hex="00AA"/>
  <outline>
    <contour>
      <point x="23" y="262" type="line"/>
      <point x="23" y="332" type="line"/>
      <point x="344" y="332" type="line"/>
      <point x="344" y="262" type="line"/>
    </contour>
    <contour>
      <point x="35" y="712" type="line"/>
      <point x="87.6667" y="729.333"/>
      <point x="143.333" y="738"/>
      <point x="202" y="738" type="curve" smooth="yes"/>
      <point x="230.667" y="738"/>
      <point x="255.167" y="734.833"/>
      <point x="275.5" y="728.5" type="curve" smooth="yes"/>
      <point x="295.833" y="722.167"/>
      <point x="312.167" y="710.333"/>
      <point x="324.5" y="693" type="curve" smooth="yes"/>
      <point x="336.833" y="675.667"/>
      <point x="343" y="653"/>
      <point x="343" y="625" type="curve" smooth="yes"/>
      <point x="343" y="378" type="line"/>
      <point x="261" y="378" type="line"/>
      <point x="235" y="423" type="line"/>
      <point x="231.667" y="415"/>
      <point x="219.333" y="404.833"/>
      <point x="198" y="392.5" type="curve" smooth="yes"/>
      <point x="176.667" y="380.167"/>
      <point x="155" y="374"/>
      <point x="133" y="374" type="curve" smooth="yes"/>
      <point x="98.3333" y="374"/>
      <point x="71.3333" y="383.167"/>
      <point x="52" y="401.5" type="curve" smooth="yes"/>
      <point x="32.6667" y="419.833"/>
      <point x="23" y="441.333"/>
      <point x="23" y="466" type="curve" smooth="yes"/>
      <point x="23" y="501" type="line" smooth="yes"/>
      <point x="23" y="529"/>
      <point x="32" y="551.833"/>
      <point x="50" y="569.5" type="curve" smooth="yes"/>
      <point x="68" y="587.167"/>
      <point x="94.8333" y="596"/>
      <point x="130.5" y="596" type="curve" smooth="yes"/>
      <point x="184" y="596"/>
      <point x="184" y="596"/>
      <point x="209.5" y="596" type="curve" smooth="yes"/>
      <point x="235" y="596"/>
      <point x="235" y="596"/>
      <point x="235" y="596" type="curve"/>
      <point x="235.667" y="606.667"/>
      <point x="235.833" y="615"/>
      <point x="235.5" y="621" type="curve" smooth="yes"/>
      <point x="235.167" y="627"/>
      <point x="232.667" y="633"/>
      <point x="228" y="639" type="curve" smooth="yes"/>
      <point x="221.333" y="648.333"/>
      <point x="205.5" y="653"/>
      <point x="180.5" y="653" type="curve" smooth="yes"/>
      <point x="155.5" y="653"/>
      <point x="125.333" y="651.667"/>
      <point x="90" y="649" type="curve" smooth="yes"/>
      <point x="54.6667" y="646.333"/>
      <point x="36.3333" y="645"/>
      <point x="35" y="645" type="curve" smooth="yes"/>
    </contour>
    <contour>
      <point x="124" y="485" type="line" smooth="yes"/>
      <point x="124" y="473"/>
      <point x="127.167" y="465"/>
      <point x="133.5" y="461" type="curve" smooth="yes"/>
      <point x="139.833" y="457"/>
      <point x="149" y="455"/>
      <point x="161" y="455" type="curve" smooth="yes"/>
      <point x="173" y="455"/>
      <point x="185.333" y="457"/>
      <point x="198" y="461" type="curve" smooth="yes"/>
      <point x="210.667" y="465"/>
      <point x="220" y="469.333"/>
      <point x="226" y="474" type="curve" smooth="yes"/>
      <point x="235" y="480" type="line"/>
      <point x="235" y="539" type="line"/>
      <point x="155" y="532" type="line" smooth="yes"/>
      <point x="134.333" y="530.667"/>
      <point x="124" y="519.667"/>
      <point x="124" y="499" type="curve" smooth="yes"/>
    </contour>
  </outline>
</glyph>
<glyph name="guillemotleft" format="1">
  <advance width="580"/>
  <unicode hex="00AB"/>
  <outline>
    <contour>
      <point x="38" y="354" type="line"/>
      <point x="244" y="557" type="line"/>
      <point x="321" y="481" type="line"/>
      <point x="190" y="354" type="line"/>
      <point x="323" y="223" type="line"/>
      <point x="249" y="146" type="line"/>
    </contour>
    <contour>
      <point x="257" y="354" type="line"/>
      <point x="463" y="557" type="line"/>
      <point x="540" y="481" type="line"/>
      <point x="410" y="354" type="line"/>
      <point x="543" y="223" type="line"/>
      <point x="468" y="146" type="line"/>
    </contour>
  </outline>
</glyph>
<glyph name="logicalnot" format="1">
  <advance width="494"/>
  <unicode hex="00AC"/>
  <outline>
    <contour>
      <point x="34" y="240" type="line"/>
      <point x="34" y="352" type="line"/>
      <point x="460" y="352" type="line"/>
      <point x="460" y="159" type="line"/>
      <point x="348" y="159" type="line"/>
      <point x="348" y="240" type="line"/>
    </contour>
  </outline>
</glyph>
<glyph name="registered" format="1">
  <advance width="800"/>
  <unicode hex="00AE"/>
  <outline>
    <contour>
      <point x="42" y="377" type="curve" smooth="yes"/>
      <point x="42" y="410.333"/>
      <point x="44" y="443.167"/>
      <point x="48" y="475.5" type="curve" smooth="yes"/>
      <point x="52" y="507.833"/>
      <point x="59.5" y="540.5"/>
      <point x="70.5" y="573.5" type="curve" smooth="yes"/>
      <point x="81.5" y="606.5"/>
      <point x="96.1667" y="634.167"/>
      <point x="114.5" y="656.5" type="curve" smooth="yes"/>
      <point x="132.833" y="678.833"/>
      <point x="157.5" y="697"/>
      <point x="188.5" y="711" type="curve" smooth="yes"/>
      <point x="219.5" y="725"/>
      <point x="255.333" y="732"/>
      <point x="296" y="732" type="curve" smooth="yes"/>
      <point x="528" y="732" type="line" smooth="yes"/>
      <point x="566.667" y="732"/>
      <point x="600.167" y="724.667"/>
      <point x="628.5" y="710" type="curve" smooth="yes"/>
      <point x="656.833" y="695.333"/>
      <point x="679.167" y="676.833"/>
      <point x="695.5" y="654.5" type="curve" smooth="yes"/>
      <point x="711.833" y="632.167"/>
      <point x="725" y="604.333"/>
      <point x="735" y="571" type="curve" smooth="yes"/>
      <point x="751" y="516.333"/>
      <point x="759" y="448.667"/>
      <point x="759" y="368" type="curve" smooth="yes"/>
      <point x="759" y="252"/>
      <point x="739.167" y="161.667"/>
      <point x="699.5" y="97" type="curve" smooth="yes"/>
      <point x="659.833" y="32.3333"/>
      <point x="602.667" y="0"/>
      <point x="528" y="0" type="curve" smooth="yes"/>
      <point x="296" y="0" type="line" smooth="yes"/>
      <point x="220.667" y="0"/>
      <point x="161" y="29.3333"/>
      <point x="117" y="88" type="curve" smooth="yes"/>
      <point x="67" y="154"/>
      <point x="42" y="250.333"/>
    </contour>
    <contour>
      <point x="133" y="370" type="curve" smooth="yes"/>
      <point x="133" y="316"/>
      <point x="138.5" y="268.333"/>
      <point x="149.5" y="227" type="curve" smooth="yes"/>
      <point x="160.5" y="185.667"/>
      <point x="178.667" y="151.833"/>
      <point x="204" y="125.5" type="curve" smooth="yes"/>
      <point x="229.333" y="99.1667"/>
      <point x="260" y="86"/>
      <point x="296" y="86" type="curve" smooth="yes"/>
      <point x="522" y="86" type="line" smooth="yes"/>
      <point x="551.333" y="86"/>
      <point x="576.5" y="95.1667"/>
      <point x="597.5" y="113.5" type="curve" smooth="yes"/>
      <point x="618.5" y="131.833"/>
      <point x="635.5" y="162.333"/>
      <point x="648.5" y="205" type="curve" smooth="yes"/>
      <point x="661.5" y="247.667"/>
      <point x="668" y="302"/>
      <point x="668" y="368" type="curve" smooth="yes"/>
      <point x="668" y="455.333"/>
      <point x="661" y="517"/>
      <point x="647" y="553" type="curve" smooth="yes"/>
      <point x="630.333" y="595"/>
      <point x="609.333" y="622"/>
      <point x="584" y="634" type="curve" smooth="yes"/>
      <point x="567.333" y="642"/>
      <point x="548.667" y="646"/>
      <point x="528" y="646" type="curve" smooth="yes"/>
      <point x="296" y="646" type="line" smooth="yes"/>
      <point x="248.667" y="646"/>
      <point x="210.667" y="628.333"/>
      <point x="182" y="593" type="curve" smooth="yes"/>
      <point x="149.333" y="552.333"/>
      <point x="133" y="478"/>
    </contour>
    <contour>
      <point x="430" y="580" type="line" smooth="yes"/>
      <point x="519.333" y="580"/>
      <point x="564" y="535.333"/>
      <point x="564" y="446" type="curve" smooth="yes"/>
      <point x="564" y="403.333"/>
      <point x="557" y="372.667"/>
      <point x="543" y="354" type="curve" smooth="yes"/>
      <point x="529" y="335.333"/>
      <point x="510" y="322.667"/>
      <point x="486" y="316" type="curve"/>
      <point x="573" y="153" type="line"/>
      <point x="474" y="153" type="line"/>
      <point x="391" y="312" type="line"/>
      <point x="339" y="324" type="line"/>
      <point x="339" y="153" type="line"/>
      <point x="248" y="153" type="line"/>
      <point x="248" y="580" type="line"/>
    </contour>
    <contour>
      <point x="339" y="390" type="line"/>
      <point x="414" y="390" type="line" smooth="yes"/>
      <point x="440" y="390"/>
      <point x="456.333" y="393.167"/>
      <point x="463" y="399.5" type="curve" smooth="yes"/>
      <point x="469.667" y="405.833"/>
      <point x="473" y="420.333"/>
      <point x="473" y="443" type="curve" smooth="yes"/>
      <point x="473" y="465.667"/>
      <point x="468.5" y="479.833"/>
      <point x="459.5" y="485.5" type="curve" smooth="yes"/>
      <point x="450.5" y="491.167"/>
      <point x="435.333" y="494"/>
      <point x="414" y="494" type="curve" smooth="yes"/>
      <point x="339" y="494" type="line"/>
    </contour>
  </outline>
</glyph>
<glyph name="macron" format="1">
  <advance width="367"/>
  <unicode hex="00AF"/>
  <outline>
    <contour>
      <point x="37.9004" y="501" type="line"/>
      <point x="37.9004" y="610.5" type="line"/>
      <point x="329.9" y="610.5" type="line"/>
      <point x="329.9" y="501" type="line"/>
    </contour>
  </outline>
</glyph>
<glyph name="degree" format="1">
  <advance width="290"/>
  <unicode hex="00B0"/>
  <outline>
    <contour>
      <point x="2.08984" y="631.563" type="curve" smooth="yes"/>
      <point x="2.08984" y="711.776"/>
      <point x="66.8232" y="776.51"/>
      <point x="145.629" y="776.51" type="curve" smooth="yes"/>
      <point x="224.435" y="776.51"/>
      <point x="287.761" y="711.776"/>
      <point x="287.761" y="631.563" type="curve" smooth="yes"/>
      <point x="287.761" y="551.35"/>
      <point x="224.435" y="488.023"/>
      <point x="145.629" y="488.023" type="curve" smooth="yes"/>
      <point x="66.8232" y="488.023"/>
      <point x="2.08984" y="551.35"/>
    </contour>
    <contour>
      <point x="105.351" y="632" type="curve" smooth="yes"/>
      <point x="105.351" y="607.5"/>
      <point x="125.4" y="588.45"/>
      <point x="149.9" y="588.45" type="curve" smooth="yes"/>
      <point x="174.4" y="588.45"/>
      <point x="193.45" y="607.5"/>
      <point x="193.45" y="632" type="curve" smooth="yes"/>
      <point x="193.45" y="656.5"/>
      <point x="174.4" y="676.55"/>
      <point x="149.9" y="676.55" type="curve" smooth="yes"/>
      <point x="125.4" y="676.55"/>
      <point x="105.351" y="656.5"/>
    </contour>
  </outline>
</glyph>
<glyph name="plusminus" format="1">
  <advance width="500"/>
  <unicode hex="00B1"/>
  <outline>
    <contour>
      <point x="42.7998" y="70.5" type="line"/>
      <point x="42.7998" y="188.5" type="line"/>
      <point x="458.8" y="188.5" type="line"/>
      <point x="458.8" y="70.5" type="line"/>
    </contour>
    <contour>
      <point x="42.7998" y="381.5" type="line"/>
      <point x="42.7998" y="499.5" type="line"/>
      <point x="190.8" y="499.5" type="line"/>
      <point x="190.8" y="648.5" type="line"/>
      <point x="308.8" y="648.5" type="line"/>
      <point x="308.8" y="499.5" type="line"/>
      <point x="458.8" y="499.5" type="line"/>
      <point x="458.8" y="381.5" type="line"/>
      <point x="308.8" y="381.5" type="line"/>
      <point x="308.8" y="232.5" type="line"/>
      <point x="190.8" y="232.5" type="line"/>
      <point x="190.8" y="381.5" type="line"/>
    </contour>
  </outline>
</glyph>
<glyph name="uni00B2" format="1">
  <advance width="400"/>
  <unicode hex="00B2"/>
  <outline>
    <contour>
      <point x="24" y="767" type="line" smooth="yes"/>
      <point x="23.3333" y="767"/>
      <point x="23" y="774.833"/>
      <point x="23" y="790.5" type="curve" smooth="yes"/>
      <point x="23" y="814"/>
      <point x="23" y="814"/>
      <point x="23" y="828" type="curve" smooth="yes"/>
      <point x="24" y="848" type="line"/>
      <point x="95.3333" y="860.667"/>
      <point x="152.667" y="867"/>
      <point x="196" y="867" type="curve" smooth="yes"/>
      <point x="239.333" y="867"/>
      <point x="270.5" y="863.333"/>
      <point x="289.5" y="856" type="curve" smooth="yes"/>
      <point x="308.5" y="848.667"/>
      <point x="323.667" y="838.333"/>
      <point x="335" y="825" type="curve" smooth="yes"/>
      <point x="357.667" y="799"/>
      <point x="369" y="764.333"/>
      <point x="369" y="721" type="curve" smooth="yes"/>
      <point x="369" y="651"/>
      <point x="311.333" y="570"/>
      <point x="196" y="478" type="curve"/>
      <point x="368" y="478" type="line"/>
      <point x="368" y="378" type="line"/>
      <point x="27" y="378" type="line"/>
      <point x="27" y="473" type="line"/>
      <point x="105" y="527.667"/>
      <point x="161.333" y="572.333"/>
      <point x="196" y="607" type="curve" smooth="yes"/>
      <point x="212" y="623"/>
      <point x="226.5" y="640.667"/>
      <point x="239.5" y="660" type="curve" smooth="yes"/>
      <point x="252.5" y="679.333"/>
      <point x="259" y="697.833"/>
      <point x="259" y="715.5" type="curve" smooth="yes"/>
      <point x="259" y="733.167"/>
      <point x="253.333" y="746.167"/>
      <point x="242" y="754.5" type="curve" smooth="yes"/>
      <point x="230.667" y="762.833"/>
      <point x="211" y="767"/>
      <point x="183" y="767" type="curve" smooth="yes"/>
    </contour>
  </outline>
</glyph>
<glyph name="uni00B3" format="1">
  <advance width="408"/>
  <unicode hex="00B3"/>
  <outline>
    <contour>
      <point x="193" y="373" type="line" smooth="yes"/>
      <point x="118.333" y="373"/>
      <point x="63" y="379.667"/>
      <point x="27" y="393" type="curve"/>
      <point x="28" y="473" type="line"/>
      <point x="187" y="473" type="line" smooth="yes"/>
      <point x="213.667" y="473"/>
      <point x="231.667" y="475.667"/>
      <point x="241" y="481" type="curve" smooth="yes"/>
      <point x="250.333" y="486.333"/>
      <point x="255" y="497"/>
      <point x="255" y="513" type="curve" smooth="yes"/>
      <point x="255" y="525" type="line" smooth="yes"/>
      <point x="255" y="541.667"/>
      <point x="249.667" y="553.167"/>
      <point x="239" y="559.5" type="curve" smooth="yes"/>
      <point x="228.333" y="565.833"/>
      <point x="212.333" y="569.333"/>
      <point x="191" y="570" type="curve" smooth="yes"/>
      <point x="68" y="575" type="line"/>
      <point x="68" y="661" type="line"/>
      <point x="191" y="668" type="line" smooth="yes"/>
      <point x="214.333" y="668.667"/>
      <point x="231.167" y="672.167"/>
      <point x="241.5" y="678.5" type="curve" smooth="yes"/>
      <point x="251.833" y="684.833"/>
      <point x="257" y="695.333"/>
      <point x="257" y="710" type="curve" smooth="yes"/>
      <point x="257" y="722" type="line" smooth="yes"/>
      <point x="257" y="737.333"/>
      <point x="251.5" y="747.833"/>
      <point x="240.5" y="753.5" type="curve" smooth="yes"/>
      <point x="229.5" y="759.167"/>
      <point x="213" y="762"/>
      <point x="191" y="762" type="curve" smooth="yes"/>
      <point x="23" y="762" type="line"/>
      <point x="23" y="841" type="line"/>
      <point x="60.3333" y="855"/>
      <point x="116.333" y="862"/>
      <point x="191" y="862" type="curve" smooth="yes"/>
      <point x="213" y="862"/>
      <point x="213" y="862"/>
      <point x="237" y="862" type="curve" smooth="yes"/>
      <point x="276.333" y="861.333"/>
      <point x="307.333" y="850"/>
      <point x="330" y="828" type="curve" smooth="yes"/>
      <point x="352.667" y="806"/>
      <point x="364" y="777"/>
      <point x="364" y="741" type="curve" smooth="yes"/>
      <point x="364" y="711" type="line" smooth="yes"/>
      <point x="364" y="661.667"/>
      <point x="345" y="630.667"/>
      <point x="307" y="618" type="curve"/>
      <point x="345" y="603.333"/>
      <point x="364" y="570.333"/>
      <point x="364" y="519" type="curve" smooth="yes"/>
      <point x="364" y="496" type="line" smooth="yes"/>
      <point x="364" y="414"/>
      <point x="320" y="373"/>
      <point x="232" y="373" type="curve" smooth="yes"/>
    </contour>
  </outline>
</glyph>
<glyph name="acute" format="1">
  <advance width="243"/>
  <unicode hex="00B4"/>
  <outline>
    <contour>
      <point x="15.0498" y="511" type="line"/>
      <point x="105.55" y="669.5" type="line"/>
      <point x="263.05" y="669.5" type="line"/>
      <point x="141.05" y="511" type="line"/>
    </contour>
  </outline>
</glyph>
<glyph name="mu" format="1">
  <advance width="588"/>
  <unicode hex="00B5"/>
  <outline>
    <contour>
      <point x="209" y="531" type="line"/>
      <point x="209" y="175" type="line" smooth="yes"/>
      <point x="209" y="127.667"/>
      <point x="228.333" y="104"/>
      <point x="267" y="104" type="curve" smooth="yes"/>
      <point x="301.667" y="104"/>
      <point x="331.333" y="110.333"/>
      <point x="356" y="123" type="curve" smooth="yes"/>
      <point x="368" y="129.667"/>
      <point x="381.333" y="138.667"/>
      <point x="396" y="150" type="curve"/>
      <point x="396" y="531" type="line"/>
      <point x="536" y="531" type="line"/>
      <point x="536" y="0" type="line"/>
      <point x="423" y="0" type="line"/>
      <point x="396" y="56" type="line"/>
      <point x="392" y="54"/>
      <point x="385.167" y="50"/>
      <point x="375.5" y="44" type="curve" smooth="yes"/>
      <point x="365.833" y="38"/>
      <point x="358.833" y="33.8333"/>
      <point x="354.5" y="31.5" type="curve" smooth="yes"/>
      <point x="350.167" y="29.1667"/>
      <point x="343.833" y="25.8333"/>
      <point x="335.5" y="21.5" type="curve" smooth="yes"/>
      <point x="327.167" y="17.1667"/>
      <point x="320" y="13.6667"/>
      <point x="314" y="11" type="curve" smooth="yes"/>
      <point x="276" y="-3.66667"/>
      <point x="241" y="-6"/>
      <point x="209" y="4" type="curve"/>
      <point x="209" y="-270" type="line"/>
      <point x="69" y="-270" type="line"/>
      <point x="69" y="178" type="line"/>
      <point x="69" y="531" type="line"/>
    </contour>
  </outline>
</glyph>
<glyph name="paragraph" format="1">
  <advance width="577"/>
  <unicode hex="00B6"/>
  <outline>
    <contour>
      <point x="30" y="499" type="curve" smooth="yes"/>
      <point x="30" y="592" type="line" smooth="yes"/>
      <point x="30" y="637.333"/>
      <point x="44.6667" y="672"/>
      <point x="74" y="696" type="curve" smooth="yes"/>
      <point x="103.333" y="720"/>
      <point x="140.667" y="732"/>
      <point x="186" y="732" type="curve" smooth="yes"/>
      <point x="563" y="732" type="line"/>
      <point x="563" y="628" type="line"/>
      <point x="510" y="628" type="line"/>
      <point x="510" y="0" type="line"/>
      <point x="408" y="0" type="line"/>
      <point x="408" y="630" type="line"/>
      <point x="342" y="630" type="line"/>
      <point x="342" y="-270" type="line"/>
      <point x="240" y="-270" type="line"/>
      <point x="240" y="372" type="line"/>
      <point x="240" y="372"/>
      <point x="240" y="372"/>
      <point x="232" y="367" type="curve" smooth="yes"/>
      <point x="218.667" y="359"/>
      <point x="203.333" y="355"/>
      <point x="186" y="355" type="curve" smooth="yes"/>
      <point x="134.667" y="355"/>
      <point x="95.8333" y="368.5"/>
      <point x="69.5" y="395.5" type="curve" smooth="yes"/>
      <point x="43.1667" y="422.5"/>
      <point x="30" y="457"/>
    </contour>
    <contour>
      <point x="132" y="511" type="line" smooth="yes"/>
      <point x="132" y="487.667"/>
      <point x="138.333" y="472.333"/>
      <point x="151" y="465" type="curve" smooth="yes"/>
      <point x="161.667" y="459.667"/>
      <point x="175.333" y="457"/>
      <point x="192" y="457" type="curve" smooth="yes"/>
      <point x="240" y="457" type="line"/>
      <point x="240" y="631" type="line"/>
      <point x="192" y="631" type="line" smooth="yes"/>
      <point x="168" y="631"/>
      <point x="152" y="626.167"/>
      <point x="144" y="616.5" type="curve" smooth="yes"/>
      <point x="136" y="606.833"/>
      <point x="132" y="592"/>
      <point x="132" y="572" type="curve" smooth="yes"/>
    </contour>
  </outline>
</glyph>
<glyph name="periodcentered" format="1">
  <advance width="263"/>
  <unicode hex="00B7"/>
  <outline>
    <contour>
      <point x="64.6504" y="339.7" type="curve" smooth="yes"/>
      <point x="64.6504" y="429.7" type="line" smooth="yes"/>
      <point x="64.6504" y="444.7"/>
      <point x="72.6504" y="454.7"/>
      <point x="88.6504" y="454.7" type="curve" smooth="yes"/>
      <point x="174.65" y="454.7" type="line" smooth="yes"/>
      <point x="192.65" y="454.7"/>
      <point x="199.65" y="445.7"/>
      <point x="199.65" y="429.7" type="curve" smooth="yes"/>
      <point x="199.65" y="339.7" type="line" smooth="yes"/>
      <point x="199.65" y="321.7"/>
      <point x="188.65" y="316.7"/>
      <point x="174.65" y="316.7" type="curve" smooth="yes"/>
      <point x="88.6504" y="316.7" type="line" smooth="yes"/>
      <point x="74.6504" y="316.7"/>
      <point x="64.6504" y="325.7"/>
    </contour>
  </outline>
</glyph>
<glyph name="cedilla" format="1">
  <advance width="244"/>
  <unicode hex="00B8"/>
  <outline>
    <contour>
      <point x="37.9004" y="-118.4" type="line"/>
      <point x="82.1006" y="-103.4" type="line" smooth="yes"/>
      <point x="110.101" y="-91.4004"/>
      <point x="111.9" y="-75"/>
      <point x="111.9" y="-37" type="curve"/>
      <point x="206.4" y="-37" type="line"/>
      <point x="206.4" y="-139"/>
      <point x="181" y="-178.5"/>
      <point x="94.4004" y="-178.5" type="curve" smooth="yes"/>
      <point x="37.9004" y="-178.5" type="line"/>
    </contour>
  </outline>
</glyph>
<glyph name="uni00B9" format="1">
  <advance width="270"/>
  <unicode hex="00B9"/>
  <outline>
    <contour>
      <point x="221" y="860" type="line"/>
      <point x="221" y="378" type="line"/>
      <point x="113" y="378" type="line"/>
      <point x="113" y="762" type="line"/>
      <point x="12" y="739" type="line"/>
      <point x="12" y="805" type="line"/>
      <point x="114" y="860" type="line"/>
    </contour>
  </outline>
</glyph>
<glyph name="ordmasculine" format="1">
  <advance width="394"/>
  <unicode hex="00BA"/>
  <outline>
    <contour>
      <point x="61.5" y="414" type="curve" smooth="yes"/>
      <point x="35.8333" y="440.667"/>
      <point x="23" y="487.833"/>
      <point x="23" y="555.5" type="curve" smooth="yes"/>
      <point x="23" y="623.167"/>
      <point x="35.5" y="670.167"/>
      <point x="60.5" y="696.5" type="curve" smooth="yes"/>
      <point x="85.5" y="722.833"/>
      <point x="131.167" y="736"/>
      <point x="197.5" y="736" type="curve" smooth="yes"/>
      <point x="263.833" y="736"/>
      <point x="309.5" y="722.667"/>
      <point x="334.5" y="696" type="curve" smooth="yes"/>
      <point x="359.5" y="669.333"/>
      <point x="372" y="622"/>
      <point x="372" y="554" type="curve" smooth="yes"/>
      <point x="372" y="486"/>
      <point x="359.5" y="439"/>
      <point x="334.5" y="413" type="curve" smooth="yes"/>
      <point x="309.5" y="387"/>
      <point x="264.167" y="374"/>
      <point x="198.5" y="374" type="curve" smooth="yes"/>
      <point x="132.833" y="374"/>
      <point x="87.1667" y="387.333"/>
    </contour>
    <contour>
      <point x="36" y="264" type="line"/>
      <point x="36" y="333" type="line"/>
      <point x="358" y="333" type="line"/>
      <point x="358" y="264" type="line"/>
    </contour>
    <contour>
      <point x="134" y="604" type="curve" smooth="yes"/>
      <point x="132" y="591.333"/>
      <point x="131" y="572.5"/>
      <point x="131" y="547.5" type="curve" smooth="yes"/>
      <point x="131" y="522.5"/>
      <point x="133.667" y="503.5"/>
      <point x="139" y="490.5" type="curve" smooth="yes"/>
      <point x="144.333" y="477.5"/>
      <point x="151" y="469.333"/>
      <point x="159" y="466" type="curve" smooth="yes"/>
      <point x="167" y="462.667"/>
      <point x="179" y="461"/>
      <point x="195" y="461" type="curve" smooth="yes"/>
      <point x="211" y="461"/>
      <point x="222.333" y="461.667"/>
      <point x="229" y="463" type="curve" smooth="yes"/>
      <point x="235.667" y="464.333"/>
      <point x="242" y="468"/>
      <point x="248" y="474" type="curve" smooth="yes"/>
      <point x="258.667" y="483.333"/>
      <point x="264" y="506.167"/>
      <point x="264" y="542.5" type="curve" smooth="yes"/>
      <point x="264" y="578.833"/>
      <point x="261.833" y="603.833"/>
      <point x="257.5" y="617.5" type="curve" smooth="yes"/>
      <point x="253.167" y="631.167"/>
      <point x="246.833" y="639.833"/>
      <point x="238.5" y="643.5" type="curve" smooth="yes"/>
      <point x="230.167" y="647.167"/>
      <point x="217.667" y="649"/>
      <point x="201" y="649" type="curve" smooth="yes"/>
      <point x="184.333" y="649"/>
      <point x="172.333" y="648"/>
      <point x="165" y="646" type="curve" smooth="yes"/>
      <point x="157.667" y="644"/>
      <point x="151.167" y="639.667"/>
      <point x="145.5" y="633" type="curve" smooth="yes"/>
      <point x="139.833" y="626.333"/>
      <point x="136" y="616.667"/>
    </contour>
  </outline>
</glyph>
<glyph name="guillemotright" format="1">
  <advance width="580"/>
  <unicode hex="00BB"/>
  <outline>
    <contour>
      <point x="38" y="223" type="line"/>
      <point x="171" y="354" type="line"/>
      <point x="41" y="481" type="line"/>
      <point x="117" y="557" type="line"/>
      <point x="323" y="354" type="line"/>
      <point x="112" y="146" type="line"/>
    </contour>
    <contour>
      <point x="257" y="223" type="line"/>
      <point x="390" y="354" type="line"/>
      <point x="260" y="481" type="line"/>
      <point x="337" y="557" type="line"/>
      <point x="543" y="354" type="line"/>
      <point x="332" y="146" type="line"/>
    </contour>
  </outline>
</glyph>
<glyph name="onequarter" format="1">
  <advance width="1015"/>
  <unicode hex="00BC"/>
  <outline>
    <contour>
      <point x="824.54" y="258.68" type="line" smooth="yes"/>
      <point x="845.762" y="258.68"/>
      <point x="866.982" y="266.841"/>
      <point x="866.982" y="294.593" type="curve" smooth="yes"/>
      <point x="866.982" y="320.711" type="line" smooth="yes"/>
      <point x="866.167" y="350.094"/>
      <point x="851.475" y="358.256"/>
      <point x="825.356" y="358.256" type="curve" smooth="yes"/>
      <point x="722.515" y="358.256" type="line" smooth="yes"/>
      <point x="696.396" y="358.256"/>
      <point x="680.89" y="350.094"/>
      <point x="680.072" y="320.711" type="curve" smooth="yes"/>
      <point x="680.072" y="293.776" type="line" smooth="yes"/>
      <point x="680.072" y="266.841"/>
      <point x="701.294" y="258.68"/>
      <point x="722.515" y="258.68" type="curve" smooth="yes"/>
    </contour>
    <contour>
      <point x="859.637" y="448.038" type="line" smooth="yes"/>
      <point x="910.241" y="448.038"/>
      <point x="960.029" y="436.611"/>
      <point x="960.029" y="351.726" type="curve" smooth="yes"/>
      <point x="960.029" y="301.121" type="line" smooth="yes"/>
      <point x="960.029" y="273.371"/>
      <point x="959.214" y="235.826"/>
      <point x="926.565" y="224.398" type="curve"/>
      <point x="960.847" y="213.788"/>
      <point x="982.067" y="195.016"/>
      <point x="982.884" y="156.655" type="curve" smooth="yes"/>
      <point x="982.884" y="30.1436" type="line" smooth="yes"/>
      <point x="982.884" y="29.3281"/>
      <point x="982.884" y="27.6953"/>
      <point x="982.884" y="26.8789" type="curve" smooth="yes"/>
      <point x="982.884" y="-49.0273"/>
      <point x="955.132" y="-71.8818"/>
      <point x="872.696" y="-71.8818" type="curve" smooth="yes"/>
      <point x="676.809" y="-71.8818" type="line" smooth="yes"/>
      <point x="609.063" y="-71.8818"/>
      <point x="566.621" y="-53.9248"/>
      <point x="566.621" y="28.5107" type="curve" smooth="yes"/>
      <point x="566.621" y="152.573" type="line" smooth="yes"/>
      <point x="566.621" y="190.936"/>
      <point x="589.475" y="214.605"/>
      <point x="623.755" y="225.216" type="curve"/>
      <point x="591.107" y="236.643"/>
      <point x="590.291" y="273.371"/>
      <point x="590.291" y="301.121" type="curve" smooth="yes"/>
      <point x="590.291" y="353.358" type="line" smooth="yes"/>
      <point x="590.291" y="433.346"/>
      <point x="640.079" y="448.038"/>
      <point x="697.214" y="448.038" type="curve" smooth="yes"/>
    </contour>
    <contour>
      <point x="657.22" y="60.3428" type="line" smooth="yes"/>
      <point x="657.22" y="25.2461"/>
      <point x="684.97" y="21.9814"/>
      <point x="712.722" y="21.9814" type="curve" smooth="yes"/>
      <point x="834.335" y="21.9814" type="line" smooth="yes"/>
      <point x="879.227" y="21.9814"/>
      <point x="889.837" y="38.3057"/>
      <point x="889.837" y="61.1592" type="curve" smooth="yes"/>
      <point x="889.837" y="129.721" type="line" smooth="yes"/>
      <point x="889.837" y="156.655"/>
      <point x="877.594" y="171.346"/>
      <point x="834.335" y="171.346" type="curve" smooth="yes"/>
      <point x="712.722" y="171.346" type="line" smooth="yes"/>
      <point x="678.44" y="171.346"/>
      <point x="657.22" y="164.816"/>
      <point x="657.22" y="128.088" type="curve" smooth="yes"/>
    </contour>
    <contour>
      <point x="244.24" y="649.34" type="curve" smooth="yes"/>
      <point x="262.451" y="610.489"/>
      <point x="430.66" y="469.939"/>
      <point x="430.66" y="414.56" type="curve" smooth="yes"/>
      <point x="430.66" y="359.18"/>
      <point x="370.213" y="287.132"/>
      <point x="335.5" y="247.64" type="curve" smooth="yes"/>
      <point x="310.441" y="219.132"/>
      <point x="281.41" y="203.909"/>
      <point x="247.234" y="203.909" type="curve" smooth="yes"/>
      <point x="210.615" y="203.909"/>
      <point x="175.601" y="210.979"/>
      <point x="112.42" y="255.439" type="curve" smooth="yes"/>
      <point x="69.0391" y="285.967"/>
      <point x="21.1602" y="329.54"/>
      <point x="21.1602" y="329.54" type="curve"/>
      <point x="71.8604" y="398.18" type="line"/>
      <point x="71.8604" y="398.18"/>
      <point x="99.9404" y="377.9"/>
      <point x="129.58" y="359.18" type="curve" smooth="yes"/>
      <point x="151.462" y="345.359"/>
      <point x="200.552" y="311.02"/>
      <point x="227.798" y="311.02" type="curve" smooth="yes"/>
      <point x="240.418" y="311.02"/>
      <point x="251.904" y="314.517"/>
      <point x="259.84" y="324.08" type="curve" smooth="yes"/>
      <point x="290.26" y="360.739"/>
      <point x="316" y="391.159"/>
      <point x="316" y="413" type="curve" smooth="yes"/>
      <point x="316" y="441.08"/>
      <point x="173.43" y="556.32"/>
      <point x="154.54" y="618.14" type="curve" smooth="yes"/>
      <point x="145.96" y="646.22"/>
      <point x="141.28" y="729.68"/>
      <point x="141.28" y="729.68" type="curve"/>
      <point x="218.5" y="747.62" type="line"/>
      <point x="218.5" y="747.62"/>
      <point x="232.54" y="674.3"/>
    </contour>
    <contour>
      <point x="301" y="-72" type="line"/>
      <point x="582" y="770" type="line"/>
      <point x="694" y="770" type="line"/>
      <point x="413" y="-72" type="line"/>
    </contour>
  </outline>
</glyph>
<glyph name="onehalf" format="1">
  <advance width="1020"/>
  <unicode hex="00BD"/>
  <outline>
    <contour>
      <point x="301" y="-72" type="line"/>
      <point x="582" y="770" type="line"/>
      <point x="694" y="770" type="line"/>
      <point x="413" y="-72" type="line"/>
    </contour>
    <contour>
      <point x="966.899" y="208" type="curve" smooth="yes"/>
      <point x="928.815" y="171.829"/>
      <point x="811.35" y="128.1"/>
      <point x="811.35" y="128.1" type="curve"/>
      <point x="988.149" y="6.5498" type="line"/>
      <point x="938.85" y="-73.3496" type="line"/>
      <point x="938.85" y="-73.3496"/>
      <point x="755.658" y="16.4561"/>
      <point x="583.55" y="157" type="curve"/>
      <point x="641.35" y="242.85" type="line"/>
      <point x="700" y="208" type="line"/>
      <point x="700" y="208"/>
      <point x="858.949" y="240.3"/>
      <point x="858.949" y="284.5" type="curve" smooth="yes"/>
      <point x="858.949" y="321.05"/>
      <point x="798.6" y="355.05"/>
      <point x="782.449" y="365.25" type="curve" smooth="yes"/>
      <point x="756.796" y="381.452"/>
      <point x="623.5" y="466.4"/>
      <point x="623.5" y="466.4" type="curve"/>
      <point x="671.949" y="544.6" type="line"/>
      <point x="671.949" y="544.6"/>
      <point x="842.676" y="457.215"/>
      <point x="913.35" y="406.9" type="curve" smooth="yes"/>
      <point x="940.812" y="387.349"/>
      <point x="996.084" y="339.647"/>
      <point x="996.084" y="285.139" type="curve" smooth="yes"/>
      <point x="996.084" y="261.84"/>
      <point x="993.031" y="232.819"/>
    </contour>
    <contour>
      <point x="244.24" y="649.34" type="curve" smooth="yes"/>
      <point x="262.451" y="610.489"/>
      <point x="430.66" y="469.939"/>
      <point x="430.66" y="414.56" type="curve" smooth="yes"/>
      <point x="430.66" y="359.18"/>
      <point x="370.213" y="287.132"/>
      <point x="335.5" y="247.64" type="curve" smooth="yes"/>
      <point x="310.441" y="219.132"/>
      <point x="281.41" y="203.909"/>
      <point x="247.234" y="203.909" type="curve" smooth="yes"/>
      <point x="210.615" y="203.909"/>
      <point x="175.601" y="210.979"/>
      <point x="112.42" y="255.439" type="curve" smooth="yes"/>
      <point x="69.0391" y="285.967"/>
      <point x="21.1602" y="329.54"/>
      <point x="21.1602" y="329.54" type="curve"/>
      <point x="71.8604" y="398.18" type="line"/>
      <point x="71.8604" y="398.18"/>
      <point x="99.9404" y="377.9"/>
      <point x="129.58" y="359.18" type="curve" smooth="yes"/>
      <point x="151.462" y="345.359"/>
      <point x="200.552" y="311.02"/>
      <point x="227.798" y="311.02" type="curve" smooth="yes"/>
      <point x="240.418" y="311.02"/>
      <point x="251.904" y="314.517"/>
      <point x="259.84" y="324.08" type="curve" smooth="yes"/>
      <point x="290.26" y="360.739"/>
      <point x="316" y="391.159"/>
      <point x="316" y="413" type="curve" smooth="yes"/>
      <point x="316" y="441.08"/>
      <point x="173.43" y="556.32"/>
      <point x="154.54" y="618.14" type="curve" smooth="yes"/>
      <point x="145.96" y="646.22"/>
      <point x="141.28" y="729.68"/>
      <point x="141.28" y="729.68" type="curve"/>
      <point x="218.5" y="747.62" type="line"/>
      <point x="218.5" y="747.62"/>
      <point x="232.54" y="674.3"/>
    </contour>
  </outline>
</glyph>
<glyph name="threequarters" format="1">
  <advance width="1115"/>
  <unicode hex="00BE"/>
  <outline>
    <contour>
      <point x="391" y="-72" type="line"/>
      <point x="672" y="770" type="line"/>
      <point x="784" y="770" type="line"/>
      <point x="503" y="-72" type="line"/>
    </contour>
    <contour>
      <point x="319.84" y="265.88" type="curve" smooth="yes"/>
      <point x="260.561" y="265.88"/>
      <point x="202.801" y="295.56"/>
      <point x="147.32" y="354.04" type="curve" smooth="yes"/>
      <point x="91.0801" y="413.319"/>
      <point x="20.4004" y="521.239"/>
      <point x="20.4004" y="521.239" type="curve"/>
      <point x="82.7207" y="571.399" type="line"/>
      <point x="197.48" y="447.52" type="line" smooth="yes"/>
      <point x="254.93" y="385.505"/>
      <point x="281.08" y="366.2"/>
      <point x="315.28" y="366.2" type="curve" smooth="yes"/>
      <point x="385.96" y="366.2"/>
      <point x="465" y="493.88"/>
      <point x="465" y="579" type="curve" smooth="yes"/>
      <point x="465" y="618.52"/>
      <point x="427.761" y="623.08"/>
      <point x="371.521" y="623.08" type="curve" smooth="yes"/>
      <point x="322.88" y="623.08"/>
      <point x="177.721" y="623.08"/>
      <point x="177.721" y="623.08" type="curve"/>
      <point x="167.84" y="706.68" type="line"/>
      <point x="167.84" y="706.68"/>
      <point x="341.12" y="722.64"/>
      <point x="401.92" y="722.64" type="curve" smooth="yes"/>
      <point x="520.48" y="722.64"/>
      <point x="572.92" y="670.96"/>
      <point x="572.92" y="597.239" type="curve" smooth="yes"/>
      <point x="572.92" y="504.385"/>
      <point x="482.706" y="265.88"/>
    </contour>
    <contour>
      <point x="913.54" y="258.68" type="line" smooth="yes"/>
      <point x="934.762" y="258.68"/>
      <point x="955.982" y="266.841"/>
      <point x="955.982" y="294.593" type="curve" smooth="yes"/>
      <point x="955.982" y="320.711" type="line" smooth="yes"/>
      <point x="955.167" y="350.094"/>
      <point x="940.475" y="358.256"/>
      <point x="914.356" y="358.256" type="curve" smooth="yes"/>
      <point x="811.515" y="358.256" type="line" smooth="yes"/>
      <point x="785.396" y="358.256"/>
      <point x="769.89" y="350.094"/>
      <point x="769.072" y="320.711" type="curve" smooth="yes"/>
      <point x="769.072" y="293.776" type="line" smooth="yes"/>
      <point x="769.072" y="266.841"/>
      <point x="790.294" y="258.68"/>
      <point x="811.515" y="258.68" type="curve" smooth="yes"/>
    </contour>
    <contour>
      <point x="948.637" y="448.038" type="line" smooth="yes"/>
      <point x="999.241" y="448.038"/>
      <point x="1049.03" y="436.611"/>
      <point x="1049.03" y="351.726" type="curve" smooth="yes"/>
      <point x="1049.03" y="301.121" type="line" smooth="yes"/>
      <point x="1049.03" y="273.371"/>
      <point x="1048.21" y="235.826"/>
      <point x="1015.57" y="224.398" type="curve"/>
      <point x="1049.85" y="213.788"/>
      <point x="1071.07" y="195.016"/>
      <point x="1071.88" y="156.655" type="curve" smooth="yes"/>
      <point x="1071.88" y="30.1436" type="line" smooth="yes"/>
      <point x="1071.88" y="29.3281"/>
      <point x="1071.88" y="27.6953"/>
      <point x="1071.88" y="26.8789" type="curve" smooth="yes"/>
      <point x="1071.88" y="-49.0273"/>
      <point x="1044.13" y="-71.8818"/>
      <point x="961.696" y="-71.8818" type="curve" smooth="yes"/>
      <point x="765.809" y="-71.8818" type="line" smooth="yes"/>
      <point x="698.063" y="-71.8818"/>
      <point x="655.621" y="-53.9248"/>
      <point x="655.621" y="28.5107" type="curve" smooth="yes"/>
      <point x="655.621" y="152.573" type="line" smooth="yes"/>
      <point x="655.621" y="190.936"/>
      <point x="678.475" y="214.605"/>
      <point x="712.755" y="225.216" type="curve"/>
      <point x="680.107" y="236.643"/>
      <point x="679.291" y="273.371"/>
      <point x="679.291" y="301.121" type="curve" smooth="yes"/>
      <point x="679.291" y="353.358" type="line" smooth="yes"/>
      <point x="679.291" y="433.346"/>
      <point x="729.079" y="448.038"/>
      <point x="786.214" y="448.038" type="curve" smooth="yes"/>
    </contour>
    <contour>
      <point x="746.22" y="60.3428" type="line" smooth="yes"/>
      <point x="746.22" y="25.2461"/>
      <point x="773.97" y="21.9814"/>
      <point x="801.722" y="21.9814" type="curve" smooth="yes"/>
      <point x="923.335" y="21.9814" type="line" smooth="yes"/>
      <point x="968.227" y="21.9814"/>
      <point x="978.837" y="38.3057"/>
      <point x="978.837" y="61.1592" type="curve" smooth="yes"/>
      <point x="978.837" y="129.721" type="line" smooth="yes"/>
      <point x="978.837" y="156.655"/>
      <point x="966.594" y="171.346"/>
      <point x="923.335" y="171.346" type="curve" smooth="yes"/>
      <point x="801.722" y="171.346" type="line" smooth="yes"/>
      <point x="767.44" y="171.346"/>
      <point x="746.22" y="164.816"/>
      <point x="746.22" y="128.088" type="curve" smooth="yes"/>
    </contour>
  </outline>
</glyph>
<glyph name="questiondown" format="1">
  <advance width="543"/>
  <unicode hex="00BF"/>
  <outline>
    <contour>
      <point x="528" y="-137" type="line"/>
      <point x="528" y="-137"/>
      <point x="528" y="-137"/>
      <point x="528" y="-179" type="curve" smooth="yes"/>
      <point x="528" y="-221"/>
      <point x="528" y="-221"/>
      <point x="528" y="-231" type="curve" smooth="yes"/>
      <point x="528" y="-242" type="line"/>
      <point x="438" y="-260"/>
      <point x="361.667" y="-269"/>
      <point x="299" y="-269" type="curve" smooth="yes"/>
      <point x="281.667" y="-269"/>
      <point x="268.333" y="-268.667"/>
      <point x="259" y="-268" type="curve" smooth="yes"/>
      <point x="245" y="-267"/>
      <point x="245" y="-267"/>
      <point x="245" y="-267" type="curve"/>
      <point x="207" y="-267"/>
      <point x="173.667" y="-261.167"/>
      <point x="145" y="-249.5" type="curve" smooth="yes"/>
      <point x="116.333" y="-237.833"/>
      <point x="94" y="-222.333"/>
      <point x="78" y="-203" type="curve" smooth="yes"/>
      <point x="46" y="-164.333"/>
      <point x="30" y="-120"/>
      <point x="30" y="-70" type="curve" smooth="yes"/>
      <point x="30" y="4" type="line" smooth="yes"/>
      <point x="29.3333" y="68.6667"/>
      <point x="48" y="116.667"/>
      <point x="86" y="148" type="curve" smooth="yes"/>
      <point x="118" y="174.667"/>
      <point x="162.667" y="188"/>
      <point x="220" y="188" type="curve" smooth="yes"/>
      <point x="231.333" y="188"/>
      <point x="243.333" y="187.667"/>
      <point x="256" y="187" type="curve"/>
      <point x="256" y="277" type="line"/>
      <point x="370" y="277" type="line"/>
      <point x="371" y="82" type="line"/>
      <point x="332" y="82"/>
      <point x="332" y="82"/>
      <point x="303.5" y="82" type="curve" smooth="yes"/>
      <point x="284.5" y="82"/>
      <point x="265.5" y="81.6667"/>
      <point x="246.5" y="81" type="curve" smooth="yes"/>
      <point x="227.5" y="80.3333"/>
      <point x="211.167" y="73"/>
      <point x="197.5" y="59" type="curve" smooth="yes"/>
      <point x="183.833" y="45"/>
      <point x="176.667" y="24"/>
      <point x="176" y="-4" type="curve" smooth="yes"/>
      <point x="175.333" y="-32"/>
      <point x="175" y="-49"/>
      <point x="175" y="-55" type="curve" smooth="yes"/>
      <point x="175" y="-80.3333"/>
      <point x="183.5" y="-100.5"/>
      <point x="200.5" y="-115.5" type="curve" smooth="yes"/>
      <point x="217.5" y="-130.5"/>
      <point x="242" y="-138"/>
      <point x="274" y="-138" type="curve" smooth="yes"/>
      <point x="277" y="-138"/>
      <point x="277" y="-138"/>
      <point x="279" y="-138" type="curve" smooth="yes"/>
    </contour>
    <contour>
      <point x="246" y="447" type="line" smooth="yes"/>
      <point x="246" y="463"/>
      <point x="254.333" y="471.333"/>
      <point x="271" y="472" type="curve" smooth="yes"/>
      <point x="355" y="472" type="line" smooth="yes"/>
      <point x="362.333" y="471.333"/>
      <point x="368.167" y="469"/>
      <point x="372.5" y="465" type="curve" smooth="yes"/>
      <point x="376.833" y="461"/>
      <point x="379" y="455.667"/>
      <point x="379" y="449" type="curve" smooth="yes"/>
      <point x="379" y="360" type="line" smooth="yes"/>
      <point x="378.333" y="344"/>
      <point x="370.667" y="335.667"/>
      <point x="356" y="335" type="curve" smooth="yes"/>
      <point x="269" y="335" type="line" smooth="yes"/>
      <point x="254.333" y="336.333"/>
      <point x="246.667" y="344.667"/>
      <point x="246" y="360" type="curve" smooth="yes"/>
    </contour>
  </outline>
</glyph>
<glyph name="Aacute" format="1">
  <advance width="692"/>
  <unicode hex="00C1"/>
  <outline>
    <contour>
      <point x="315" y="797" type="line"/>
      <point x="406" y="936" type="line"/>
      <point x="528" y="936" type="line"/>
      <point x="406" y="797" type="line"/>
    </contour>
    <contour>
      <point x="34" y="0" type="line"/>
      <point x="281" y="732" type="line"/>
      <point x="440" y="732" type="line"/>
      <point x="678" y="0" type="line"/>
      <point x="529" y="0" type="line"/>
      <point x="477" y="162" type="line"/>
      <point x="237" y="162" type="line"/>
      <point x="184" y="0" type="line"/>
    </contour>
    <contour>
      <point x="274" y="286" type="line"/>
      <point x="444" y="286" type="line"/>
      <point x="362" y="548" type="line"/>
    </contour>
  </outline>
</glyph>
<glyph name="Acircumflex" format="1">
  <advance width="692"/>
  <unicode hex="00C2"/>
  <outline>
    <contour>
      <point x="206" y="797" type="line"/>
      <point x="314" y="932" type="line"/>
      <point x="418" y="932" type="line"/>
      <point x="515" y="797" type="line"/>
      <point x="422" y="797" type="line"/>
      <point x="363" y="857" type="line"/>
      <point x="300" y="797" type="line"/>
    </contour>
    <contour>
      <point x="34" y="0" type="line"/>
      <point x="281" y="732" type="line"/>
      <point x="440" y="732" type="line"/>
      <point x="678" y="0" type="line"/>
      <point x="529" y="0" type="line"/>
      <point x="477" y="162" type="line"/>
      <point x="237" y="162" type="line"/>
      <point x="184" y="0" type="line"/>
    </contour>
    <contour>
      <point x="274" y="286" type="line"/>
      <point x="444" y="286" type="line"/>
      <point x="362" y="548" type="line"/>
    </contour>
  </outline>
</glyph>
<glyph name="Atilde" format="1">
  <advance width="692"/>
  <unicode hex="00C3"/>
  <outline>
    <contour>
      <point x="420" y="887" type="curve" smooth="yes"/>
      <point x="445.333" y="887"/>
      <point x="474.667" y="899.667"/>
      <point x="508" y="925" type="curve"/>
      <point x="532" y="865" type="line"/>
      <point x="490.667" y="819.667"/>
      <point x="453.333" y="797"/>
      <point x="420" y="797" type="curve" smooth="yes"/>
      <point x="403.333" y="797"/>
      <point x="383.333" y="802.833"/>
      <point x="360" y="814.5" type="curve" smooth="yes"/>
      <point x="336.667" y="826.167"/>
      <point x="320.5" y="832"/>
      <point x="311.5" y="832" type="curve" smooth="yes"/>
      <point x="302.5" y="832"/>
      <point x="294.667" y="831.5"/>
      <point x="288" y="830.5" type="curve" smooth="yes"/>
      <point x="281.333" y="829.5"/>
      <point x="276" y="828.5"/>
      <point x="272" y="827.5" type="curve" smooth="yes"/>
      <point x="268" y="826.5"/>
      <point x="262.833" y="824.5"/>
      <point x="256.5" y="821.5" type="curve" smooth="yes"/>
      <point x="250.167" y="818.5"/>
      <point x="245.833" y="816.333"/>
      <point x="243.5" y="815" type="curve" smooth="yes"/>
      <point x="241.167" y="813.667"/>
      <point x="236.167" y="810.667"/>
      <point x="228.5" y="806" type="curve" smooth="yes"/>
      <point x="220.833" y="801.333"/>
      <point x="215.667" y="798.333"/>
      <point x="213" y="797" type="curve"/>
      <point x="189" y="852" type="line"/>
      <point x="231.667" y="898.667"/>
      <point x="272" y="922"/>
      <point x="310" y="922" type="curve" smooth="yes"/>
      <point x="326" y="921.333"/>
      <point x="345" y="915.333"/>
      <point x="367" y="904" type="curve" smooth="yes"/>
      <point x="389" y="892.667"/>
      <point x="403" y="887"/>
      <point x="409" y="887" type="curve" smooth="yes"/>
      <point x="418" y="887"/>
      <point x="418" y="887"/>
    </contour>
    <contour>
      <point x="34" y="0" type="line"/>
      <point x="281" y="732" type="line"/>
      <point x="440" y="732" type="line"/>
      <point x="678" y="0" type="line"/>
      <point x="529" y="0" type="line"/>
      <point x="477" y="162" type="line"/>
      <point x="237" y="162" type="line"/>
      <point x="184" y="0" type="line"/>
    </contour>
    <contour>
      <point x="274" y="286" type="line"/>
      <point x="444" y="286" type="line"/>
      <point x="362" y="548" type="line"/>
    </contour>
  </outline>
</glyph>
<glyph name="Adieresis" format="1">
  <advance width="692"/>
  <unicode hex="00C4"/>
  <outline>
    <contour>
      <point x="191.5" y="814.5" type="curve" smooth="yes"/>
      <point x="179.833" y="826.167"/>
      <point x="174" y="838.667"/>
      <point x="174" y="852" type="curve" smooth="yes"/>
      <point x="174" y="865.333"/>
      <point x="176.667" y="876.667"/>
      <point x="182" y="886" type="curve" smooth="yes"/>
      <point x="194" y="905.333"/>
      <point x="209.667" y="914.833"/>
      <point x="229" y="914.5" type="curve" smooth="yes"/>
      <point x="248.333" y="914.167"/>
      <point x="263.667" y="908.5"/>
      <point x="275" y="897.5" type="curve" smooth="yes"/>
      <point x="286.333" y="886.5"/>
      <point x="292" y="872.833"/>
      <point x="292" y="856.5" type="curve" smooth="yes"/>
      <point x="292" y="840.167"/>
      <point x="286.333" y="826.167"/>
      <point x="275" y="814.5" type="curve" smooth="yes"/>
      <point x="263.667" y="802.833"/>
      <point x="249.833" y="797"/>
      <point x="233.5" y="797" type="curve" smooth="yes"/>
      <point x="217.167" y="797"/>
      <point x="203.167" y="802.833"/>
    </contour>
    <contour>
      <point x="429" y="856" type="curve" smooth="yes"/>
      <point x="429" y="872"/>
      <point x="434.833" y="885.667"/>
      <point x="446.5" y="897" type="curve" smooth="yes"/>
      <point x="458.167" y="908.333"/>
      <point x="472.167" y="914"/>
      <point x="488.5" y="914" type="curve" smooth="yes"/>
      <point x="504.833" y="914"/>
      <point x="518.667" y="908.5"/>
      <point x="530" y="897.5" type="curve" smooth="yes"/>
      <point x="541.333" y="886.5"/>
      <point x="547" y="872.833"/>
      <point x="547" y="856.5" type="curve" smooth="yes"/>
      <point x="547" y="840.167"/>
      <point x="541.333" y="826.167"/>
      <point x="530" y="814.5" type="curve" smooth="yes"/>
      <point x="518.667" y="802.833"/>
      <point x="504.833" y="797"/>
      <point x="488.5" y="797" type="curve" smooth="yes"/>
      <point x="472.167" y="797"/>
      <point x="458.167" y="802.833"/>
      <point x="446.5" y="814.5" type="curve" smooth="yes"/>
      <point x="434.833" y="826.167"/>
      <point x="429" y="840"/>
    </contour>
    <contour>
      <point x="34" y="0" type="line"/>
      <point x="281" y="732" type="line"/>
      <point x="440" y="732" type="line"/>
      <point x="678" y="0" type="line"/>
      <point x="529" y="0" type="line"/>
      <point x="477" y="162" type="line"/>
      <point x="237" y="162" type="line"/>
      <point x="184" y="0" type="line"/>
    </contour>
    <contour>
      <point x="274" y="286" type="line"/>
      <point x="444" y="286" type="line"/>
      <point x="362" y="548" type="line"/>
    </contour>
  </outline>
</glyph>
<glyph name="Aring" format="1">
  <advance width="692"/>
  <unicode hex="00C5"/>
  <outline>
    <contour>
      <point x="273" y="780.5" type="curve" smooth="yes"/>
      <point x="282.333" y="764.833"/>
      <point x="294.833" y="752.5"/>
      <point x="310.5" y="743.5" type="curve" smooth="yes"/>
      <point x="326.167" y="734.5"/>
      <point x="343.167" y="730"/>
      <point x="361.5" y="730" type="curve" smooth="yes"/>
      <point x="379.833" y="730"/>
      <point x="396.667" y="734.5"/>
      <point x="412" y="743.5" type="curve" smooth="yes"/>
      <point x="427.333" y="752.5"/>
      <point x="439.5" y="764.833"/>
      <point x="448.5" y="780.5" type="curve" smooth="yes"/>
      <point x="457.5" y="796.167"/>
      <point x="462" y="815.833"/>
      <point x="462" y="839.5" type="curve" smooth="yes"/>
      <point x="462" y="863.167"/>
      <point x="452.167" y="885"/>
      <point x="432.5" y="905" type="curve" smooth="yes"/>
      <point x="412.833" y="925"/>
      <point x="389" y="935"/>
      <point x="361" y="935" type="curve" smooth="yes"/>
      <point x="333" y="935"/>
      <point x="309" y="925"/>
      <point x="289" y="905" type="curve" smooth="yes"/>
      <point x="269" y="885"/>
      <point x="259" y="863.167"/>
      <point x="259" y="839.5" type="curve" smooth="yes"/>
      <point x="259" y="815.833"/>
      <point x="263.667" y="796.167"/>
    </contour>
    <contour>
      <point x="330.5" y="863" type="curve" smooth="yes"/>
      <point x="338.833" y="871.667"/>
      <point x="349" y="876"/>
      <point x="361" y="876" type="curve" smooth="yes"/>
      <point x="373" y="876"/>
      <point x="383.167" y="871.667"/>
      <point x="391.5" y="863" type="curve" smooth="yes"/>
      <point x="399.833" y="854.333"/>
      <point x="404" y="844"/>
      <point x="404" y="832" type="curve" smooth="yes"/>
      <point x="404" y="820"/>
      <point x="399.833" y="810"/>
      <point x="391.5" y="802" type="curve" smooth="yes"/>
      <point x="383.167" y="794"/>
      <point x="373" y="790"/>
      <point x="361" y="790" type="curve" smooth="yes"/>
      <point x="349" y="790"/>
      <point x="338.667" y="794"/>
      <point x="330" y="802" type="curve" smooth="yes"/>
      <point x="326.667" y="806"/>
      <point x="323.833" y="810.5"/>
      <point x="321.5" y="815.5" type="curve" smooth="yes"/>
      <point x="319.167" y="820.5"/>
      <point x="318" y="827.5"/>
      <point x="318" y="836.5" type="curve" smooth="yes"/>
      <point x="318" y="845.5"/>
      <point x="322.167" y="854.333"/>
    </contour>
    <contour>
      <point x="34" y="0" type="line"/>
      <point x="281" y="732" type="line"/>
      <point x="440" y="732" type="line"/>
      <point x="678" y="0" type="line"/>
      <point x="529" y="0" type="line"/>
      <point x="477" y="162" type="line"/>
      <point x="237" y="162" type="line"/>
      <point x="184" y="0" type="line"/>
    </contour>
    <contour>
      <point x="274" y="286" type="line"/>
      <point x="444" y="286" type="line"/>
      <point x="362" y="548" type="line"/>
    </contour>
  </outline>
</glyph>
